<svg width="14" height="17" viewBox="0 0 14 17" fill="none" xmlns="http://www.w3.org/2000/svg">
<g opacity="0.6">
<path d="M0.722488 6.21995C-0.725814 8.67681 0.194898 12.4052 1.79648 14.6659C2.59593 15.7961 3.40532 16.8107 4.51391 16.8107C4.53481 16.8107 4.55576 16.8103 4.57721 16.8094C5.09806 16.7891 5.47445 16.6324 5.83836 16.4809C6.24693 16.3107 6.66949 16.1347 7.33227 16.1347C7.96282 16.1347 8.36521 16.305 8.75434 16.4696C9.13786 16.6318 9.53289 16.7996 10.1166 16.7889C11.3653 16.7661 12.132 15.6714 12.8085 14.7056C13.5143 13.6972 13.8684 12.7181 13.9879 12.344L13.9927 12.3291C14.0155 12.2626 13.9833 12.19 13.9181 12.1608C13.9163 12.1599 13.9097 12.1573 13.9079 12.1565C13.688 12.0686 11.759 11.2321 11.7387 8.95206C11.7199 7.09969 13.1858 6.11875 13.4798 5.94096L13.4935 5.93262C13.5253 5.91258 13.5475 5.88078 13.5551 5.84443C13.5626 5.80814 13.5547 5.77036 13.5334 5.73983C12.5216 4.29235 10.9707 4.0742 10.3464 4.04796C10.2558 4.03912 10.1623 4.03467 10.0683 4.03467C9.33501 4.03467 8.63251 4.30542 8.06813 4.52296C7.67855 4.67314 7.34205 4.80283 7.10996 4.80283C6.84917 4.80283 6.51075 4.67155 6.11887 4.51956C5.59482 4.31624 5.00083 4.08584 4.37203 4.08584C4.35703 4.08584 4.34226 4.08601 4.32771 4.08628C2.86565 4.10731 1.48413 4.925 0.722488 6.21995Z" fill="white"/>
<path d="M10.4192 0.000104399C9.51935 0.0349869 8.43995 0.562191 7.79479 1.28147C7.24649 1.88604 6.71088 2.89405 6.85199 3.9101C6.86084 3.97367 6.91518 4.02273 6.98237 4.02768C7.0431 4.03219 7.1051 4.03447 7.16686 4.03452C8.0467 4.03452 8.99583 3.57121 9.64402 2.82521C10.3262 2.03747 10.6712 1.02653 10.5668 0.120998C10.5586 0.0500375 10.493 -0.00266664 10.4192 0.000104399Z" fill="white"/>
</g>
</svg>
