<svg width="68" height="16" viewBox="0 0 68 16" fill="none" xmlns="http://www.w3.org/2000/svg">
<path fill-rule="evenodd" clip-rule="evenodd" d="M8.21597 15.0356C12.3138 15.0356 15.6354 11.7172 15.6354 7.61781C15.6354 3.51837 12.3138 0.200012 8.21597 0.200012C4.11979 0.200012 0.799805 3.51837 0.799805 7.61781C0.799805 11.7172 4.11979 15.0356 8.21597 15.0356ZM9.41612 5.67897C9.26937 5.59744 8.98889 5.51917 8.57797 5.44253L7.87679 5.31045L7.58328 6.87097L8.28609 7.00305C8.65298 7.06991 8.93019 7.09111 9.11771 7.06176C9.30524 7.03078 9.452 6.96392 9.56614 6.85793C9.6754 6.7552 9.74877 6.61659 9.77813 6.45353C9.81074 6.28394 9.79443 6.13555 9.73247 5.99858C9.67377 5.8665 9.5694 5.75724 9.41612 5.67897ZM9.37209 8.59293C9.43569 8.74295 9.4471 8.90764 9.41449 9.10169C9.37209 9.32672 9.27426 9.50283 9.11934 9.6398C8.9628 9.77188 8.79322 9.85179 8.60569 9.86972C8.41654 9.88766 8.18662 9.86972 7.91593 9.8208L7.44794 9.72949C7.29303 9.69851 7.20008 9.67568 7.16584 9.65122C7.13322 9.62839 7.11529 9.59578 7.10713 9.55012C7.10387 9.51587 7.11692 9.39521 7.14953 9.20116L7.4088 7.81511L8.2388 7.96839C8.60243 8.03851 8.8666 8.12331 9.02966 8.22114C9.19435 8.31898 9.30687 8.44617 9.37209 8.59293ZM11.2702 5.65777C11.1446 5.38383 10.9326 5.15227 10.6407 4.96149C10.5299 4.88648 10.388 4.82125 10.2331 4.76092L10.4434 3.63415L9.36068 3.43032L9.16174 4.48371L8.46546 4.35326L8.6644 3.29986L7.58002 3.09603L7.38108 4.15106L5.72598 3.84124L5.56128 4.72668L5.81403 4.77397C5.98362 4.80332 6.0945 4.84082 6.14668 4.88322C6.20212 4.92235 6.23474 4.9729 6.24941 5.02998C6.26409 5.08705 6.25431 5.20935 6.21843 5.40176L5.54987 8.96961C5.51562 9.1555 5.48301 9.27454 5.44714 9.32183C5.41126 9.36912 5.36234 9.40499 5.29712 9.42293C5.23189 9.44087 5.11612 9.43434 4.94816 9.39847L4.69378 9.35607L4.52909 10.2382L6.18256 10.5448L5.98688 11.5982L7.07126 11.802L7.26693 10.7486L7.88332 10.8628C7.89718 10.866 7.91022 10.8681 7.92327 10.8701C7.93631 10.8722 7.94936 10.8742 7.96322 10.8775L7.76754 11.9309L8.85029 12.1314L9.06553 10.9916C9.25306 10.9883 9.42101 10.972 9.5694 10.9476C9.97217 10.8677 10.3016 10.703 10.5608 10.4535C10.8185 10.2089 10.9799 9.91538 11.0419 9.57458C11.0957 9.28759 11.0761 9.0169 10.9848 8.76578C10.8919 8.50814 10.7435 8.29452 10.538 8.12168C10.3978 8.00101 10.1825 7.87382 9.89879 7.74337C10.1956 7.69934 10.4418 7.6227 10.6391 7.50692C10.838 7.39278 10.9995 7.24928 11.1234 7.0748C11.249 6.90195 11.3338 6.70791 11.3713 6.49755C11.43 6.22035 11.3957 5.93335 11.2702 5.65777ZM21.9098 13.8307C25.6211 13.8307 27.3757 10.7651 27.3757 8.08269C27.3757 6.61511 26.6012 5.21439 24.8792 5.2095C23.8666 5.2095 22.9387 5.65304 22.3321 6.37867H22.2979L23.2747 1.66774H20.8303L19.1589 10.0199C19.0578 10.5075 18.9746 11.0113 18.9746 11.5201C18.9746 12.9828 19.953 13.8307 21.9098 13.8307ZM24.827 8.58819C24.827 7.79733 24.4895 7.17116 23.7492 7.17116C22.8702 7.17116 22.0125 8.06639 21.7239 9.50135L21.5723 10.1764C21.5639 10.2423 21.5537 10.3091 21.5431 10.3776L21.5431 10.3776C21.5104 10.5908 21.4751 10.8206 21.4875 11.0896C21.5038 11.6766 21.8576 11.9995 22.4153 11.9995C23.8177 11.9946 24.827 10.0395 24.827 8.58819ZM30.469 13.6497H28.0394L29.6081 5.39865H32.0377L30.469 13.6497ZM31.3463 1.80961C30.6028 1.80961 29.9603 2.36729 29.9456 3.19239C29.9456 3.9164 30.4511 4.37461 31.1246 4.37461C31.9024 4.37461 32.5579 3.86748 32.5579 3.00813C32.5595 2.27923 32.0524 1.80961 31.3463 1.80961ZM34.7037 3.66688L37.1839 3.08964L36.7469 5.39536H38.5015L38.1444 7.23473H36.393L35.8337 10.0362C35.7652 10.3721 35.6984 10.7961 35.6984 11.083C35.6984 11.4874 35.868 11.7777 36.393 11.7777C36.6132 11.7777 36.8464 11.7777 37.0681 11.7435L36.7779 13.6513C36.4713 13.7671 35.8663 13.8356 35.3445 13.8356C33.8949 13.8356 33.2019 13.0936 33.2019 12.0647C33.2019 11.6097 33.2524 11.1564 33.3698 10.5303L34.0123 7.23962H32.9654L33.303 5.40026H34.3662L34.7037 3.66688ZM38.5733 10.4471C38.5733 12.5865 40.0067 13.8177 42.045 13.8177C43.0266 13.8177 43.8697 13.6481 44.3898 13.3953L44.3735 11.538C43.9496 11.7076 43.4457 11.8756 42.738 11.8756C41.8248 11.8756 41.1188 11.2999 41.1188 10.1699C41.1188 8.6208 42.1787 7.14996 43.9186 7.14996C44.4094 7.14996 44.747 7.23476 45.0339 7.35216L45.6226 5.49649C45.2688 5.34321 44.6605 5.20624 43.9545 5.20624C40.8155 5.21439 38.5733 7.51034 38.5733 10.4471ZM49.2508 13.8356C52.1207 13.8356 54.177 11.6261 54.177 8.60613C54.177 6.73252 52.8969 5.21439 50.6841 5.21439C47.7473 5.21439 45.758 7.55926 45.758 10.4259C45.758 12.4691 47.1619 13.8356 49.2508 13.8356ZM51.6641 8.6208C51.6641 7.86256 51.3462 7.05376 50.3661 7.05376C48.9671 7.05376 48.2594 9.09532 48.2789 10.3754C48.2789 11.3375 48.7502 11.9783 49.5949 11.9783C50.9255 11.9799 51.6641 10.0395 51.6641 8.6208ZM56.8137 3.19239C56.8268 2.36729 57.4692 1.80961 58.2112 1.80961C58.9221 1.80961 59.4309 2.27923 59.4293 3.00813C59.4293 3.86748 58.7754 4.37461 57.9959 4.37461C57.3225 4.37461 56.8137 3.9164 56.8137 3.19239ZM54.9091 13.6497H57.3355L58.9075 5.39865H56.4778L54.9091 13.6497ZM62.8911 6.76676C63.6657 5.68728 64.693 5.21439 65.7904 5.21439C67.1406 5.21439 67.9005 6.04113 67.9037 7.46631C67.9037 7.83321 67.8352 8.45611 67.7684 8.86051L66.8552 13.6513H64.4272L65.2849 9.07902C65.3387 8.79529 65.373 8.45774 65.373 8.15118C65.373 7.57719 65.1708 7.17116 64.5625 7.17116C63.7684 7.17116 62.8389 8.17238 62.5014 9.98892L61.81 13.6513H59.3803L60.4288 8.08432C60.6327 7.03745 60.768 6.12755 60.8708 5.40029H63.0265L62.8569 6.76676H62.8911Z" fill="white"/>
</svg>
