<svg width="100%" height="100%" viewBox="0 0 17 17" fill="none" xmlns="http://www.w3.org/2000/svg">
<path fill-rule="evenodd" clip-rule="evenodd" d="M8.5 3.54163C11.2828 3.54163 14.1161 5.2073 17 8.5387C16.317 9.23597 15.8806 9.67498 15.6908 9.85575C15.5011 10.0365 15.0394 10.4368 14.3058 11.0566C13.5722 11.6764 12.9777 12.1025 12.5223 12.3349C12.067 12.5673 11.4661 12.8127 10.7199 13.0709C9.97358 13.3292 9.23363 13.4583 8.5 13.4583C7.58928 13.4583 6.75447 13.3421 5.99554 13.1097C5.2366 12.8772 4.47768 12.477 3.71875 11.9088C2.95982 11.3407 2.36533 10.8565 1.93527 10.4562C1.50521 10.0559 0.860123 9.40383 0 8.49996C1.64435 6.82135 3.10528 5.57532 4.38281 4.76184C5.66035 3.94836 7.03273 3.54163 8.5 3.54163ZM8.5 12.0416C9.47068 12.0416 10.3036 11.6914 10.9988 10.9908C11.6941 10.2902 12.0417 9.45998 12.0417 8.49996C12.0417 7.53994 11.6941 6.70967 10.9988 6.00912C10.3036 5.30856 9.47068 4.95829 8.5 4.95829C7.52932 4.95829 6.69638 5.30856 6.00116 6.00912C5.30594 6.70967 4.95833 7.53994 4.95833 8.49996C4.95833 9.45998 5.30594 10.2902 6.00116 10.9908C6.69638 11.6914 7.52932 12.0416 8.5 12.0416ZM8.5 7.21694C8.5 7.59116 8.62259 7.89854 8.86779 8.13911C9.11298 8.37968 9.42628 8.49996 9.80769 8.49996C10.0801 8.49996 10.3526 8.40641 10.625 8.2193V8.49996C10.625 9.08801 10.4207 9.58919 10.012 10.0035C9.60336 10.4178 9.09936 10.625 8.5 10.625C7.90064 10.625 7.39664 10.4178 6.98798 10.0035C6.57932 9.58919 6.375 9.08801 6.375 8.49996C6.375 7.91191 6.57932 7.41073 6.98798 6.99642C7.39664 6.58211 7.90064 6.37496 8.5 6.37496H8.82692C8.60897 6.64226 8.5 6.92291 8.5 7.21694Z" fill="#332B45"/>
<mask id="mask0_21_5214" style="mask-type:alpha" maskUnits="userSpaceOnUse" x="0" y="3" width="17" height="11">
<path fill-rule="evenodd" clip-rule="evenodd" d="M8.5 3.54163C11.2828 3.54163 14.1161 5.2073 17 8.5387C16.317 9.23597 15.8806 9.67498 15.6908 9.85575C15.5011 10.0365 15.0394 10.4368 14.3058 11.0566C13.5722 11.6764 12.9777 12.1025 12.5223 12.3349C12.067 12.5673 11.4661 12.8127 10.7199 13.0709C9.97358 13.3292 9.23363 13.4583 8.5 13.4583C7.58928 13.4583 6.75447 13.3421 5.99554 13.1097C5.2366 12.8772 4.47768 12.477 3.71875 11.9088C2.95982 11.3407 2.36533 10.8565 1.93527 10.4562C1.50521 10.0559 0.860123 9.40383 0 8.49996C1.64435 6.82135 3.10528 5.57532 4.38281 4.76184C5.66035 3.94836 7.03273 3.54163 8.5 3.54163ZM8.5 12.0416C9.47068 12.0416 10.3036 11.6914 10.9988 10.9908C11.6941 10.2902 12.0417 9.45998 12.0417 8.49996C12.0417 7.53994 11.6941 6.70967 10.9988 6.00912C10.3036 5.30856 9.47068 4.95829 8.5 4.95829C7.52932 4.95829 6.69638 5.30856 6.00116 6.00912C5.30594 6.70967 4.95833 7.53994 4.95833 8.49996C4.95833 9.45998 5.30594 10.2902 6.00116 10.9908C6.69638 11.6914 7.52932 12.0416 8.5 12.0416ZM8.5 7.21694C8.5 7.59116 8.62259 7.89854 8.86779 8.13911C9.11298 8.37968 9.42628 8.49996 9.80769 8.49996C10.0801 8.49996 10.3526 8.40641 10.625 8.2193V8.49996C10.625 9.08801 10.4207 9.58919 10.012 10.0035C9.60336 10.4178 9.09936 10.625 8.5 10.625C7.90064 10.625 7.39664 10.4178 6.98798 10.0035C6.57932 9.58919 6.375 9.08801 6.375 8.49996C6.375 7.91191 6.57932 7.41073 6.98798 6.99642C7.39664 6.58211 7.90064 6.37496 8.5 6.37496H8.82692C8.60897 6.64226 8.5 6.92291 8.5 7.21694Z" fill="white"/>
</mask>
<g mask="url(#mask0_21_5214)">
<rect width="17" height="17" fill="#AFAFAF"/>
</g>
<path fill-rule="evenodd" clip-rule="evenodd" d="M3.33428 14.6467L15.3551 2.62584L15.856 3.12671L3.83514 15.1475L3.33428 14.6467Z" fill="#332B45"/>
<path fill-rule="evenodd" clip-rule="evenodd" d="M2.8333 14.1458L14.8541 2.12499L15.355 2.62585L3.33416 14.6467L2.8333 14.1458Z" fill="#AFAFAF"/>
</svg>
