<svg width="100%" height="100%" viewBox="0 0 17 17" fill="none" xmlns="http://www.w3.org/2000/svg">
    <g opacity="0.3">
        <path fill-rule="evenodd" clip-rule="evenodd"
              d="M8.5 3.5415C11.2828 3.5415 14.1161 5.20718 17 8.53857C16.317 9.23584 15.8806 9.67486 15.6908 9.85563C15.5011 10.0364 15.0394 10.4367 14.3058 11.0565C13.5722 11.6763 12.9777 12.1024 12.5223 12.3348C12.067 12.5672 11.4661 12.8126 10.7199 13.0708C9.97358 13.3291 9.23363 13.4582 8.5 13.4582C7.58928 13.4582 6.75447 13.342 5.99554 13.1095C5.2366 12.8771 4.47768 12.4768 3.71875 11.9087C2.95982 11.3405 2.36533 10.8563 1.93527 10.4561C1.50521 10.0558 0.860123 9.40371 0 8.49984C1.64435 6.82123 3.10528 5.5752 4.38281 4.76172C5.66035 3.94824 7.03273 3.5415 8.5 3.5415ZM8.5 12.0415C9.47068 12.0415 10.3036 11.6912 10.9988 10.9907C11.6941 10.2901 12.0417 9.45985 12.0417 8.49984C12.0417 7.53982 11.6941 6.70955 10.9988 6.00899C10.3036 5.30844 9.47068 4.95817 8.5 4.95817C7.52932 4.95817 6.69638 5.30844 6.00116 6.00899C5.30594 6.70955 4.95833 7.53982 4.95833 8.49984C4.95833 9.45985 5.30594 10.2901 6.00116 10.9907C6.69638 11.6912 7.52932 12.0415 8.5 12.0415ZM8.5 7.21682C8.5 7.59103 8.62259 7.89842 8.86779 8.13899C9.11298 8.37956 9.42628 8.49984 9.80769 8.49984C10.0801 8.49984 10.3526 8.40628 10.625 8.21918V8.49984C10.625 9.08789 10.4207 9.58906 10.012 10.0034C9.60336 10.4177 9.09936 10.6248 8.5 10.6248C7.90064 10.6248 7.39664 10.4177 6.98798 10.0034C6.57932 9.58906 6.375 9.08789 6.375 8.49984C6.375 7.91178 6.57932 7.41061 6.98798 6.9963C7.39664 6.58199 7.90064 6.37484 8.5 6.37484H8.82692C8.60897 6.64213 8.5 6.92279 8.5 7.21682Z"
              fill="#332B45"/>
        <mask id="mask0_420_1185" style="mask-type:alpha" maskUnits="userSpaceOnUse" x="0" y="3" width="17" height="11">
            <path fill-rule="evenodd" clip-rule="evenodd"
                  d="M8.5 3.5415C11.2828 3.5415 14.1161 5.20718 17 8.53857C16.317 9.23584 15.8806 9.67486 15.6908 9.85563C15.5011 10.0364 15.0394 10.4367 14.3058 11.0565C13.5722 11.6763 12.9777 12.1024 12.5223 12.3348C12.067 12.5672 11.4661 12.8126 10.7199 13.0708C9.97358 13.3291 9.23363 13.4582 8.5 13.4582C7.58928 13.4582 6.75447 13.342 5.99554 13.1095C5.2366 12.8771 4.47768 12.4768 3.71875 11.9087C2.95982 11.3405 2.36533 10.8563 1.93527 10.4561C1.50521 10.0558 0.860123 9.40371 0 8.49984C1.64435 6.82123 3.10528 5.5752 4.38281 4.76172C5.66035 3.94824 7.03273 3.5415 8.5 3.5415ZM8.5 12.0415C9.47068 12.0415 10.3036 11.6912 10.9988 10.9907C11.6941 10.2901 12.0417 9.45985 12.0417 8.49984C12.0417 7.53982 11.6941 6.70955 10.9988 6.00899C10.3036 5.30844 9.47068 4.95817 8.5 4.95817C7.52932 4.95817 6.69638 5.30844 6.00116 6.00899C5.30594 6.70955 4.95833 7.53982 4.95833 8.49984C4.95833 9.45985 5.30594 10.2901 6.00116 10.9907C6.69638 11.6912 7.52932 12.0415 8.5 12.0415ZM8.5 7.21682C8.5 7.59103 8.62259 7.89842 8.86779 8.13899C9.11298 8.37956 9.42628 8.49984 9.80769 8.49984C10.0801 8.49984 10.3526 8.40628 10.625 8.21918V8.49984C10.625 9.08789 10.4207 9.58906 10.012 10.0034C9.60336 10.4177 9.09936 10.6248 8.5 10.6248C7.90064 10.6248 7.39664 10.4177 6.98798 10.0034C6.57932 9.58906 6.375 9.08789 6.375 8.49984C6.375 7.91178 6.57932 7.41061 6.98798 6.9963C7.39664 6.58199 7.90064 6.37484 8.5 6.37484H8.82692C8.60897 6.64213 8.5 6.92279 8.5 7.21682Z"
                  fill="white"/>
        </mask>
        <g mask="url(#mask0_420_1185)">
            <rect width="17" height="17" fill="white"/>
        </g>
    </g>
</svg>
