<svg width="60" height="60" viewBox="0 0 60 60" fill="none" xmlns="http://www.w3.org/2000/svg">
<path fill-rule="evenodd" clip-rule="evenodd" d="M30 0C13.458 0 0 13.458 0 30C0 46.542 13.458 60 30 60C46.542 60 60 46.542 60 30C60 13.458 46.542 0 30 0ZM30 58C14.561 58 2 45.439 2 30C2 14.561 14.561 2 30 2C45.439 2 58 14.561 58 30C58 45.439 45.439 58 30 58ZM37.7061 30.901L37.9129 31.1001C38.0191 31.1966 38.1061 31.3143 38.1688 31.4463C38.2316 31.5783 38.2689 31.722 38.2786 31.8693C38.2796 31.9813 38.2587 32.0924 38.2171 32.1956C38.1755 32.2987 38.1142 32.3918 38.037 32.469C37.963 32.5542 37.8734 32.6227 37.7736 32.6705C37.6716 32.7191 37.5613 32.7456 37.4493 32.7483C37.1615 32.7389 36.8884 32.6126 36.6873 32.3958L35.9799 31.709C35.4008 31.139 34.8044 30.5622 34.2035 29.9945C34.1265 29.9359 34.0351 29.9017 33.9401 29.896C33.705 29.8823 33.4612 29.8823 33.2044 29.8823V31.3405C33.2044 31.3961 33.2057 31.4541 33.2071 31.5138C33.2101 31.6383 33.2132 31.7698 33.2044 31.9013C33.2015 32.0157 33.1764 32.1283 33.1307 32.2323C33.0851 32.3362 33.0198 32.4292 32.9388 32.5057C32.7746 32.6662 32.5578 32.7539 32.3336 32.7506C32.1284 32.7544 31.9284 32.6819 31.7691 32.5457C31.6098 32.4096 31.5013 32.2187 31.4629 32.0066C31.4456 31.9039 31.439 31.7995 31.4433 31.6953V24.3952C31.4274 24.2444 31.4417 24.0918 31.4852 23.9471C31.5287 23.8024 31.6004 23.6689 31.6958 23.5551C31.8743 23.3673 32.1181 23.2895 32.5143 23.2895H33.2305C33.8835 23.2849 34.5366 23.2804 35.1897 23.3078C35.9384 23.3304 36.657 23.623 37.225 24.1365C37.7819 24.6408 38.148 25.3386 38.2569 26.1029C38.36 26.8056 38.2399 27.5244 37.9153 28.1481C37.5906 28.7717 37.0794 29.2654 36.461 29.5527C36.7527 29.8846 37.0552 30.2234 37.3578 30.5553L37.3579 30.5554L37.358 30.5555L37.3581 30.5555C37.4646 30.6653 37.5712 30.7751 37.6822 30.8781L37.7061 30.901ZM36.0974 27.6572C36.3437 27.4129 36.4943 27.0806 36.5197 26.7255C36.5829 25.9243 36.0952 25.2216 35.4139 25.1575C34.8349 25.1021 34.2529 25.0907 33.6724 25.1231H33.5222H33.237V28.0761H33.5984C34.1469 28.0945 34.6585 28.099 35.1766 28.0761C35.5208 28.0544 35.8467 27.9061 36.0974 27.6572ZM30.6052 23.8687C30.5657 23.759 30.5049 23.6592 30.4267 23.5757C30.3494 23.4906 30.2559 23.4235 30.1524 23.3788C30.0445 23.3278 29.9282 23.2998 29.81 23.2964C29.6918 23.293 29.5742 23.3143 29.4639 23.359C29.3535 23.4037 29.2527 23.4709 29.1673 23.5569C29.0818 23.6428 29.0134 23.7456 28.966 23.8595C28.8593 24.0747 28.7483 24.299 28.6569 24.5165L26.2035 29.7633L24.8974 26.9567C24.4141 25.9297 23.9331 24.9034 23.4541 23.8778C23.4043 23.7531 23.3302 23.6408 23.2365 23.5482C23.1391 23.4536 23.0242 23.3811 22.899 23.3353C22.7894 23.2987 22.6741 23.2847 22.5595 23.2941C22.4465 23.3055 22.3365 23.3388 22.2351 23.3925C21.7997 23.6214 21.6473 24.1228 21.8716 24.6355C21.926 24.7637 21.9848 24.8874 22.0501 25.0247C22.0733 25.072 22.0972 25.1224 22.1219 25.1758L22.812 26.6523L25.3589 32.1051C25.4239 32.2851 25.537 32.4415 25.6845 32.5556C25.832 32.6697 26.0077 32.7366 26.1905 32.7483H26.221C26.3978 32.75 26.5712 32.6959 26.7186 32.5931C26.866 32.4903 26.9808 32.3435 27.0482 32.1714L28.572 28.9323C29.2439 27.4978 29.9136 26.064 30.5812 24.631C30.6398 24.5155 30.6747 24.3884 30.6835 24.2578C30.6853 24.1236 30.6585 23.9906 30.6052 23.8687ZM45.9435 23.4887L45.9783 23.5619L46.0088 23.6604V35.4014L45.9827 35.4701C45.9418 35.5843 45.9037 35.703 45.8663 35.8201C45.8579 35.8462 45.8495 35.8723 45.8412 35.8982C45.7387 36.2659 45.5963 36.62 45.4167 36.9535C45.0609 37.5949 44.5481 38.1243 43.9317 38.4867C43.3154 38.849 42.6179 39.031 41.9119 39.0137H39.1887H35.4488C35.0343 39.0366 34.6243 38.9142 34.2831 38.6656C33.942 38.417 33.6889 38.0564 33.5636 37.6402C33.4265 37.2282 33.2937 36.8093 33.1675 36.4041L33.1109 36.2278C33.0651 36.0767 33.0173 36.0424 32.8583 36.0424H27.1571C27.0113 36.0424 26.9634 36.0767 26.9198 36.2118L26.75 36.7612C26.663 37.0382 26.5737 37.3152 26.4845 37.5922C26.1797 38.5239 25.507 39.0183 24.5383 39.0183H18.1688C17.6251 39.0219 17.0857 38.9162 16.5797 38.707C16.0772 38.4974 15.6187 38.1864 15.23 37.7913C14.8453 37.4025 14.5401 36.9351 14.3332 36.4178C14.1249 35.9082 14.0197 35.3586 14.0241 34.804V32.8902V31.3863V31.3611C14.0306 29.1086 14.0371 26.7828 14.0023 24.4936C13.9717 23.4365 14.3085 22.4039 14.9496 21.5891C15.5907 20.7742 16.4921 20.2329 17.4853 20.0664V20H42.5389V20.071C43.1898 20.1763 43.8081 20.4414 44.3435 20.8447C45.1888 21.4684 45.7642 22.4193 45.9435 23.4887ZM24.9911 36.4293L25.0543 36.2347L25.0719 36.1785C25.1288 35.9966 25.1846 35.8183 25.2458 35.6418C25.3682 35.219 25.6215 34.8514 25.9655 34.5976C26.3095 34.3437 26.7244 34.2181 27.1441 34.2408H32.8649C33.2847 34.2168 33.7002 34.3412 34.045 34.5943C34.3898 34.8474 34.6441 35.2145 34.7675 35.6372C34.8328 35.8295 34.8937 36.0218 34.9547 36.2141L34.9982 36.3469C35.0202 36.4134 35.0431 36.4814 35.066 36.5493C35.1203 36.7104 35.1745 36.8713 35.2159 37.013C35.2449 37.1124 35.2596 37.1627 35.2931 37.1882C35.3276 37.2145 35.382 37.2145 35.4924 37.2145H37.4798H41.888C42.196 37.2155 42.5012 37.1541 42.787 37.0336C43.0719 36.9162 43.3316 36.7404 43.5511 36.5163C43.7689 36.2968 43.9415 36.0327 44.0583 35.7402C44.176 35.451 44.2353 35.1392 44.2325 34.8246C44.2499 31.9082 44.2564 28.0693 44.2325 24.2166C44.2286 23.8549 44.1467 23.4987 43.993 23.1751C43.5577 22.2594 42.8045 21.813 41.6921 21.813H18.6891C18.5874 21.813 18.477 21.8163 18.3636 21.8196C18.2439 21.8231 18.1208 21.8267 18.0012 21.8267C17.4061 21.8479 16.841 22.1065 16.4208 22.5501C16.2177 22.763 16.0566 23.016 15.9468 23.2945C15.837 23.573 15.7806 23.8716 15.7808 24.1731V34.8452C15.7784 35.1602 15.8392 35.4722 15.9593 35.7608C16.0768 36.0496 16.2486 36.3105 16.4643 36.5277C16.6838 36.7496 16.9427 36.9239 17.2262 37.0405C17.5127 37.1554 17.8165 37.2151 18.1231 37.2167H21.7868H24.5209C24.6257 37.2167 24.6801 37.2167 24.7165 37.1912C24.7558 37.1637 24.7742 37.1065 24.8126 36.9878C24.8614 36.8395 24.9088 36.6896 24.9559 36.5407C24.9676 36.5035 24.9794 36.4663 24.9911 36.4293Z" fill="white"/>
</svg>
