<svg width="16" height="16" viewBox="0 0 16 16" fill="none" xmlns="http://www.w3.org/2000/svg">
<path opacity="0.5" fill-rule="evenodd" clip-rule="evenodd" d="M7.73317 0C3.46264 0 0 3.46264 0 7.73317C0 12.0037 3.46264 15.467 7.73317 15.467C12.0037 15.467 15.467 12.0037 15.467 7.73317C15.467 3.46264 12.0037 0 7.73317 0ZM9.34321 11.9853C8.94516 12.1424 8.62829 12.2615 8.39064 12.344C8.15364 12.4265 7.87802 12.4678 7.56442 12.4678C7.08257 12.4678 6.70744 12.3499 6.44032 12.1149C6.17321 11.8799 6.04031 11.582 6.04031 11.2199C6.04031 11.0792 6.05013 10.9351 6.06977 10.7885C6.09007 10.6418 6.12215 10.4769 6.16601 10.2916L6.66423 8.53178C6.70809 8.36287 6.74606 8.20247 6.77618 8.0532C6.80629 7.90263 6.8207 7.76449 6.8207 7.63879C6.8207 7.41488 6.77421 7.25776 6.6819 7.16938C6.58828 7.08099 6.41217 7.03778 6.14964 7.03778C6.02132 7.03778 5.88908 7.05677 5.75356 7.09671C5.61935 7.13795 5.50281 7.17527 5.40723 7.21193L5.53882 6.66985C5.86485 6.53695 6.17714 6.42303 6.47502 6.32876C6.7729 6.23317 7.05442 6.18604 7.31957 6.18604C7.79815 6.18604 8.16739 6.30257 8.4273 6.53302C8.6859 6.76412 8.81618 7.06463 8.81618 7.43387C8.81618 7.51047 8.80702 7.64533 8.78934 7.83781C8.77167 8.03094 8.73828 8.20706 8.68983 8.36876L8.19423 10.1233C8.15364 10.2641 8.11763 10.4251 8.0849 10.6052C8.05282 10.7852 8.03711 10.9227 8.03711 11.015C8.03711 11.2481 8.08883 11.4072 8.19358 11.4916C8.29702 11.5761 8.47837 11.6186 8.735 11.6186C8.85612 11.6186 8.99164 11.597 9.14484 11.5551C9.29673 11.5132 9.40671 11.4759 9.47611 11.4438L9.34321 11.9853ZM8.42035 5.18566C8.74573 5.18566 9.02397 5.07829 9.25507 4.86355C9.48618 4.64881 9.60206 4.38825 9.60206 4.08251C9.60206 3.77808 9.48618 3.5162 9.25507 3.2995C9.02462 3.08214 8.74573 2.97412 8.42035 2.97412C8.09562 2.97412 7.81542 3.08214 7.58235 3.2995C7.35124 3.5162 7.2334 3.77808 7.2334 4.08251C7.2334 4.38759 7.35059 4.64881 7.58235 4.86355C7.81542 5.07829 8.09562 5.18566 8.42035 5.18566Z" fill="white"/>
</svg>
