<svg width="100%" height="100%" viewBox="0 0 12 15" fill="none" xmlns="http://www.w3.org/2000/svg">
<path fill-rule="evenodd" clip-rule="evenodd" d="M10.0003 5.33317H9.33366V3.99984C9.33366 2.15984 7.84032 0.666504 6.00033 0.666504C4.16033 0.666504 2.66699 2.15984 2.66699 3.99984V5.33317H2.00033C1.26699 5.33317 0.666992 5.93317 0.666992 6.6665V13.3332C0.666992 14.0665 1.26699 14.6665 2.00033 14.6665H10.0003C10.7337 14.6665 11.3337 14.0665 11.3337 13.3332V6.6665C11.3337 5.93317 10.7337 5.33317 10.0003 5.33317ZM6.00033 11.3332C5.26699 11.3332 4.66699 10.7332 4.66699 9.99984C4.66699 9.2665 5.26699 8.6665 6.00033 8.6665C6.73366 8.6665 7.33366 9.2665 7.33366 9.99984C7.33366 10.7332 6.73366 11.3332 6.00033 11.3332ZM3.93366 5.33317H8.06699V3.99984C8.06699 2.85984 7.14033 1.93317 6.00033 1.93317C4.86033 1.93317 3.93366 2.85984 3.93366 3.99984V5.33317Z" fill="#AFAFAF"/>
</svg>
