<svg width="21" height="20" viewBox="0 0 21 20" fill="none" xmlns="http://www.w3.org/2000/svg">
<path fill-rule="evenodd" clip-rule="evenodd" d="M10.9902 0C5.47023 0 0.990234 4.48 0.990234 10C0.990234 15.52 5.47023 20 10.9902 20C16.5102 20 20.9902 15.52 20.9902 10C20.9902 4.48 16.5102 0 10.9902 0ZM14.6 6.34C15.67 6.34 16.53 7.2 16.53 8.27C16.53 9.34 15.67 10.2 14.6 10.2C13.53 10.2 12.67 9.34 12.67 8.27C12.66 7.2 13.53 6.34 14.6 6.34ZM10.9602 7.12C10.9602 5.82 9.90023 4.76 8.60023 4.76C7.29023 4.76 6.24023 5.81 6.24023 7.12C6.24023 8.42 7.30023 9.48 8.60023 9.48C9.90023 9.48 10.9602 8.42 10.9602 7.12ZM8.60045 13.89V17.64C6.20045 16.89 4.30045 15.04 3.46045 12.68C4.51045 11.56 7.13045 10.99 8.60045 10.99C9.13045 10.99 9.80045 11.07 10.5004 11.21C8.86045 12.08 8.60045 13.23 8.60045 13.89ZM10.2002 17.96C10.4602 17.99 10.7202 18 10.9902 18C14.3802 18 17.2702 15.88 18.4402 12.91C17.5202 12.15 15.6702 11.76 14.6002 11.76C13.1402 11.76 10.2002 12.47 10.2002 13.89V17.96Z" fill="white"/>
</svg>
