<svg width="120" height="28" viewBox="0 0 120 28" fill="none" xmlns="http://www.w3.org/2000/svg">
<path fill-rule="evenodd" clip-rule="evenodd" d="M12.9487 17.0635C12.9487 16.2008 12.7564 15.4704 12.3716 14.872C11.9869 14.2737 11.381 13.745 10.554 13.2858C9.72702 12.8267 8.47771 12.3559 6.80604 11.8736C5.13437 11.3912 3.88064 10.9042 3.04481 10.4126C2.20897 9.92094 1.59648 9.35047 1.20731 8.70114C0.818138 8.05181 0.623555 7.26335 0.623555 6.33574C0.623555 4.86084 1.21615 3.66656 2.40135 2.75286C3.58656 1.83917 5.12995 1.38232 7.03158 1.38232C8.26985 1.38232 9.38207 1.63509 10.3683 2.14064C11.3545 2.64619 12.1173 3.3558 12.6568 4.2695C13.1964 5.1832 13.4661 6.21515 13.4661 7.36539H12.7497C12.7497 5.85338 12.219 4.60344 11.1577 3.61554C10.0963 2.62763 8.72094 2.13369 7.03158 2.13369C5.33338 2.13369 3.96025 2.53023 2.91214 3.32334C1.86403 4.11645 1.33998 5.1113 1.33998 6.30791C1.33998 7.52309 1.79548 8.5017 2.7065 9.24379C3.61751 9.98588 5.1211 10.6422 7.21732 11.2126C9.31354 11.7831 10.8481 12.444 11.821 13.1954C13.0593 14.1508 13.6784 15.4309 13.6784 17.0357C13.6784 18.0561 13.4042 18.9581 12.8559 19.742C12.3075 20.5258 11.5291 21.1311 10.5208 21.5578C9.51253 21.9845 8.38041 22.1978 7.12445 22.1978C5.72697 22.1978 4.47103 21.9543 3.35659 21.4673C2.24214 20.9803 1.40411 20.2869 0.842463 19.3872C0.280818 18.4874 0 17.4253 0 16.2008H0.716425C0.716425 17.8613 1.30902 19.1506 2.49422 20.069C3.67943 20.9873 5.22282 21.4465 7.12445 21.4465C8.81381 21.4465 10.2068 21.0406 11.3036 20.229C12.4004 19.4173 12.9487 18.3622 12.9487 17.0635ZM18.68 2.80146V6.86438H21.9438V7.62965H18.68V18.3157C18.68 19.3824 18.8459 20.1709 19.1776 20.6811C19.5092 21.1913 20.0642 21.4464 20.8426 21.4464C21.2318 21.4464 21.7049 21.4046 22.2622 21.3211L22.3816 22.0307C22.0897 22.1421 21.59 22.1977 20.8824 22.1977C19.8387 22.1977 19.0913 21.8939 18.6402 21.2863C18.1892 20.6788 17.9592 19.721 17.9503 18.4131V7.62965H15.2969V6.86438H17.9503V2.80146H18.68ZM34.9456 21.9194C34.7687 21.2793 34.6802 20.361 34.6802 19.1644C34.1142 20.1291 33.3403 20.8758 32.3585 21.4045C31.3767 21.9333 30.2667 22.1977 29.0284 22.1977C27.7017 22.1977 26.6337 21.8197 25.8244 21.0637C25.0151 20.3077 24.6105 19.3221 24.6105 18.1069C24.6105 16.7248 25.2053 15.6186 26.3949 14.7884C27.5845 13.9582 29.1655 13.5338 31.1379 13.5153H34.6802V11.3168C34.6802 10.0553 34.3021 9.07666 33.5459 8.38095C32.7897 7.68525 31.7084 7.3374 30.3021 7.3374C28.993 7.3374 27.9007 7.68988 27.0251 8.39487C26.1495 9.09985 25.7116 9.97179 25.7116 11.0107L24.9952 10.9829C24.9952 9.75844 25.5082 8.71953 26.5342 7.86613C27.5602 7.01273 28.8161 6.58603 30.3021 6.58603C31.8499 6.58603 33.0793 6.99186 33.9903 7.80352C34.9014 8.61518 35.3701 9.75844 35.3967 11.2333V18.4269C35.3967 20.0781 35.5205 21.2005 35.7681 21.7941V21.9194H34.9456ZM29.0285 21.4605C30.3729 21.4605 31.5293 21.1451 32.4978 20.5144C33.4664 19.8836 34.1938 18.9977 34.6803 17.8568V14.2808H31.3635C29.3115 14.2808 27.7416 14.7075 26.6537 15.5609C25.7692 16.2567 25.327 17.124 25.327 18.1629C25.327 19.0812 25.6763 19.8604 26.3751 20.5005C27.0738 21.1405 27.9583 21.4605 29.0285 21.4605ZM48.863 18.2321C48.863 16.4047 47.3771 15.1618 44.4053 14.5032C42.6186 14.1043 41.3759 13.5918 40.6772 12.9656C39.9784 12.3395 39.6291 11.4792 39.6291 10.3846C39.6291 9.28073 40.0735 8.37168 40.9624 7.65742C41.8513 6.94316 43.0078 6.58603 44.4318 6.58603C45.9796 6.58603 47.2223 6.97331 48.1599 7.74786C49.0974 8.52242 49.5662 9.56828 49.5662 10.8855H48.8365C48.8365 9.87439 48.4296 9.03028 47.6159 8.35313C46.8022 7.67597 45.7408 7.3374 44.4318 7.3374C43.1758 7.3374 42.1808 7.62495 41.4467 8.20007C40.7126 8.77519 40.3455 9.49408 40.3455 10.3568C40.3455 11.0339 40.4826 11.565 40.7568 11.9499C41.031 12.3349 41.4776 12.6827 42.0968 12.9935C42.7159 13.3042 43.6181 13.6034 44.8033 13.8909C45.9885 14.1785 46.926 14.5171 47.6159 14.9067C48.3058 15.2963 48.8055 15.7577 49.1151 16.2911C49.4247 16.8245 49.5794 17.4761 49.5794 18.246C49.5794 19.4334 49.1151 20.3888 48.1864 21.1124C47.2577 21.8359 46.0415 22.1977 44.5379 22.1977C42.9282 22.1977 41.6302 21.815 40.644 21.0497C39.6578 20.2845 39.1647 19.2989 39.1647 18.093H39.8812C39.9519 19.1505 40.3964 19.9737 41.2145 20.5627C42.0327 21.1518 43.1404 21.4463 44.5379 21.4463C45.8204 21.4463 46.8619 21.1332 47.6623 20.5071C48.4628 19.881 48.863 19.1226 48.863 18.2321ZM57.9243 20.7506L58.0172 20.4723L62.9791 6.86433H63.7751L57.3538 24.5352L57.0354 25.3701C56.3455 27.1233 55.2046 27.9998 53.6125 27.9998C53.0995 27.9998 52.7457 27.9488 52.5511 27.8468L52.5379 27.1372C52.8209 27.2207 53.1437 27.2624 53.5064 27.2624C54.2582 27.2624 54.8817 27.0328 55.377 26.5736C55.8723 26.1145 56.3013 25.3654 56.6639 24.3265L57.5396 21.8359L51.8214 6.86433H52.6042L57.9243 20.7506ZM80.5581 13.3067C80.5581 15.199 80.2065 16.8594 79.5034 18.288C78.8002 19.7165 77.7941 20.7739 76.4851 21.4604L80.0274 25.0919L79.51 25.5789L75.7421 21.7804C74.9461 22.0587 74.128 22.1978 73.2877 22.1978C71.1119 22.1978 69.3518 21.3862 68.0074 19.7628C66.663 18.1395 65.9908 15.9504 65.9908 13.1954V10.2734C65.9908 8.52952 66.2893 6.98044 66.8863 5.62612C67.4834 4.27181 68.3369 3.22595 69.4469 2.48849C70.5569 1.75104 71.8283 1.38232 73.2612 1.38232C74.7029 1.38232 75.9787 1.75104 77.0888 2.48849C78.1988 3.22595 79.0545 4.27413 79.6559 5.63308C80.2574 6.99203 80.5581 8.5388 80.5581 10.2734V13.3067ZM79.8417 10.2457C79.8417 7.79679 79.2491 5.83261 78.0639 4.35307C76.8787 2.87353 75.2778 2.13377 73.2612 2.13377C71.2711 2.13377 69.6835 2.86889 68.4983 4.33915C67.3131 5.80942 66.7205 7.81071 66.7205 10.3431V13.3068C66.7205 14.9208 66.9881 16.347 67.5232 17.5854C68.0583 18.8237 68.8211 19.7768 69.8117 20.4447C70.8024 21.1126 71.961 21.4465 73.2877 21.4465C75.3044 21.4465 76.9008 20.7091 78.0772 19.2342C79.2535 17.7593 79.8417 15.7464 79.8417 13.1955V10.2457Z" fill="white"/>
<path d="M84.5146 5.47766C84.5146 2.45243 86.8509 0 89.733 0H114.782C117.664 0 120 2.45243 120 5.47766V18.624C120 21.6493 117.664 24.1017 114.782 24.1017H107.297C106.743 24.1017 106.212 23.8709 105.821 23.46L103.733 21.2689C102.918 20.4132 101.596 20.4132 100.781 21.2689L98.6939 23.46C98.3024 23.8709 97.7715 24.1017 97.2179 24.1017H89.733C86.8509 24.1017 84.5146 21.6493 84.5146 18.624V5.47766Z" fill="url(#paint0_linear_202_812)"/>
<path d="M97.6502 14.8946L99.7813 6.67529H102.545L99.092 17.4276H97.3055L97.6502 14.8946ZM95.716 6.67529L97.8471 14.8946L98.2058 17.4276H96.3982L92.9659 6.67529H95.716Z" fill="white"/>
<path d="M103.298 6.67529H107.328C108.116 6.67529 108.8 6.79837 109.382 7.04453C109.963 7.29069 110.411 7.65501 110.725 8.13748C111.044 8.61996 111.204 9.21566 111.204 9.92461C111.204 10.54 111.112 11.0545 110.929 11.468C110.746 11.8816 110.491 12.2237 110.163 12.4945C109.839 12.7604 109.462 12.9795 109.03 13.1518L108.221 13.6318H104.838L104.824 11.6305H107.328C107.642 11.6305 107.903 11.5714 108.109 11.4533C108.315 11.3351 108.47 11.1677 108.573 10.9511C108.681 10.7295 108.735 10.4662 108.735 10.1609C108.735 9.85076 108.681 9.5849 108.573 9.36336C108.465 9.14182 108.306 8.97197 108.095 8.85381C107.888 8.73565 107.633 8.67657 107.328 8.67657H105.767V17.4276H103.298V6.67529ZM108.904 17.4276L106.639 12.6718L109.255 12.657L111.548 17.3168V17.4276H108.904Z" fill="white"/>
<defs>
<linearGradient id="paint0_linear_202_812" x1="75.1213" y1="-4.38213" x2="127.523" y2="24.7279" gradientUnits="userSpaceOnUse">
<stop stop-color="#4300C5"/>
<stop offset="0.489583" stop-color="#7751C1"/>
<stop offset="1" stop-color="#C5008E"/>
</linearGradient>
</defs>
</svg>
