<svg width="27" height="16" viewBox="0 0 27 16" fill="none" xmlns="http://www.w3.org/2000/svg">
<path d="M26.1132 7.82801C26.1132 12.0987 22.6397 15.5891 18.2978 15.5891C13.9973 15.5891 10.4824 12.0987 10.4824 7.82801C10.4824 3.55734 13.9559 0.0668945 18.2565 0.0668945C22.6397 0.0668945 26.1132 3.55734 26.1132 7.82801Z" fill="white"/>
<path d="M7.7942 0.0668945C3.53502 0.107815 0.0615234 3.55734 0.0615234 7.82801C0.0615234 12.0987 3.53502 15.5891 7.87691 15.5891C9.90312 15.5891 11.7226 14.8089 13.1285 13.577C13.418 13.3306 13.6661 13.0431 13.9142 12.7557H12.3015C12.0947 12.5093 11.888 12.2219 11.7226 11.9755H14.4931C14.6585 11.7291 14.8239 11.4416 14.948 11.1542H11.2677C11.1436 10.9078 11.0196 10.6204 10.9369 10.3329H15.2374C15.4856 9.5527 15.651 8.73142 15.651 7.86907C15.651 7.29418 15.5682 6.76034 15.4856 6.22651H10.6888C10.73 5.93905 10.8129 5.69267 10.8955 5.40522H15.1961C15.1134 5.11777 14.9893 4.83033 14.8653 4.58394H11.2264C11.3504 4.29649 11.5158 4.05011 11.6812 3.76266H14.4518C14.2864 3.47521 14.0796 3.18777 13.8315 2.94138H12.3015C12.5496 2.65393 12.7977 2.40755 13.0872 2.16116C11.7226 0.888176 9.82043 0.0668945 7.79422 0.0668945C7.79422 0.0668945 7.83542 0.0668945 7.79422 0.0668945H7.7942Z" fill="white"/>
<path d="M10.6474 9.79919L10.7715 9.1011C10.7301 9.1011 10.6474 9.14216 10.5647 9.14216C10.2753 9.14216 10.2339 8.9779 10.2753 8.89578L10.5234 7.45853H10.9782L11.1023 6.67832H10.6888L10.7715 6.18555H9.94446C9.94446 6.18555 9.44824 8.89578 9.44824 9.22429C9.44824 9.71706 9.7377 9.92238 10.1099 9.92238C10.358 9.92238 10.5647 9.84025 10.6474 9.79919Z" fill="#0F0F0F"/>
<path fill-rule="evenodd" clip-rule="evenodd" d="M12.3838 9.92216C11.7222 9.92216 10.9365 9.63471 10.9365 8.48492C10.9365 7.45831 11.5568 6.5549 12.4252 6.63703C13.3349 6.63703 13.6244 7.29406 13.6244 7.82789C13.6244 8.03321 13.5003 8.56705 13.5003 8.56705H11.8049C11.8049 8.56705 11.6395 9.22407 12.5492 9.22407C12.9627 9.22407 13.4176 9.01875 13.4176 9.01875L13.2522 9.79897C13.2522 9.79897 13.0041 9.92216 12.3838 9.92216ZM12.7572 7.85047C12.7657 7.74678 12.8027 7.29406 12.3838 7.29406C11.929 7.29406 11.8463 7.82789 11.8463 7.86896H12.756C12.756 7.86571 12.7565 7.85938 12.7572 7.85047Z" fill="#0F0F0F"/>
<path d="M17.6356 9.79913L17.801 8.89572C17.801 8.89572 17.3875 9.10104 17.0981 9.10104C16.5192 9.10104 16.2711 8.64934 16.2711 8.15657C16.2711 7.17103 16.7673 6.6372 17.3462 6.6372C17.7597 6.6372 18.0905 6.88358 18.0905 6.88358L18.2146 6.02124C18.2146 6.02124 17.7183 5.81592 17.2635 5.81592C16.3124 5.81592 15.3613 6.6372 15.3613 8.19763C15.3613 9.22424 15.8575 9.92233 16.85 9.92233C17.1808 9.92233 17.6356 9.79913 17.6356 9.79913Z" fill="#0F0F0F"/>
<path fill-rule="evenodd" clip-rule="evenodd" d="M5.10626 6.71943C5.10626 6.71943 5.51978 6.55518 6.09869 6.55518C6.38815 6.55518 7.21518 6.59624 7.21518 7.58178L6.88437 9.8403H6.14005L6.1814 9.51179C6.17268 9.51179 6.15476 9.52823 6.12648 9.55417C6.02068 9.65124 5.76985 9.88136 5.31302 9.88136C5.02356 9.88136 4.52734 9.71711 4.52734 8.97796C4.52734 8.03348 5.31302 7.74603 6.01599 7.74603H6.38815C6.38815 7.74603 6.4295 7.70497 6.4295 7.54071C6.4295 7.29433 6.1814 7.25326 5.89194 7.25326C5.35437 7.25326 4.98221 7.41752 4.98221 7.41752L5.10626 6.71943ZM5.68518 9.18328C6.1814 9.18328 6.2641 8.52625 6.2641 8.40306C6.2641 8.40306 6.22275 8.40306 6.09869 8.36199C5.47842 8.36199 5.35437 8.64944 5.35437 8.85476C5.35437 8.97796 5.43707 9.18328 5.68518 9.18328Z" fill="#0F0F0F"/>
<path d="M8.00088 9.88141C8.20764 9.88141 9.24142 9.92248 9.24142 8.81375C9.24142 7.78715 8.24899 7.99247 8.24899 7.58183C8.24899 7.37651 8.41439 7.29438 8.70385 7.29438C8.82791 7.29438 9.28277 7.33544 9.28277 7.33544L9.40682 6.59629C9.40682 6.59629 9.11736 6.51416 8.62115 6.51416C8.00088 6.51416 7.38061 6.76054 7.38061 7.58183C7.38061 8.5263 8.41439 8.44417 8.41439 8.81375C8.41439 9.06013 8.12494 9.1012 7.91818 9.1012C7.54602 9.1012 7.17386 8.978 7.17386 8.978L7.0498 9.71716C7.09116 9.79928 7.29791 9.88141 8.00088 9.88141Z" fill="#0F0F0F"/>
<path fill-rule="evenodd" clip-rule="evenodd" d="M24.3342 7.00668L24.4996 5.89795L25.368 5.93901L24.7477 9.88117H23.9207L23.962 9.59372C23.962 9.59372 23.6726 9.92223 23.1764 9.92223C22.4734 9.92223 22.1426 9.22414 22.1426 8.56711C22.1426 7.49945 22.8042 6.59604 23.5485 6.59604C24.0034 6.59604 24.3342 7.00668 24.3342 7.00668ZM23.4658 9.10095C23.9207 9.10095 24.1274 8.52605 24.1274 8.07435C24.1274 7.58158 23.962 7.37626 23.6726 7.37626C23.3004 7.37626 23.011 7.7869 23.011 8.44392C23.011 8.85456 23.1764 9.10095 23.4658 9.10095Z" fill="#0F0F0F"/>
<path d="M1.59134 9.8401L2.08755 6.88349L2.17026 9.8401H2.74917L3.8243 6.88349L3.36944 9.8401H4.23782L4.89944 5.89795H3.53485L2.70782 8.32073L2.66647 5.89795H1.46728L0.805664 9.8401H1.59134Z" fill="#0F0F0F"/>
<path d="M14.4107 9.8402C14.6588 8.48509 14.7002 7.37636 15.2791 7.58168C15.3618 7.04785 15.4858 6.84253 15.5685 6.63721C15.5685 6.63721 15.5272 6.63721 15.4031 6.63721C15.031 6.63721 14.7415 7.12998 14.7415 7.12998L14.8242 6.67827H14.0385L13.501 9.88127H14.4107V9.8402Z" fill="#0F0F0F"/>
<path fill-rule="evenodd" clip-rule="evenodd" d="M18.5457 6.71943C18.5457 6.71943 18.9592 6.55518 19.5381 6.55518C19.8276 6.55518 20.696 6.59624 20.6546 7.58178L20.3238 9.8403H19.5795L19.6208 9.51179C19.6121 9.51179 19.5942 9.52823 19.5659 9.55417C19.4601 9.65124 19.2093 9.88136 18.7525 9.88136C18.463 9.88136 17.9668 9.71711 17.9668 8.97796C17.9668 8.03348 18.7525 7.74603 19.4554 7.74603H19.8276C19.8276 7.74603 19.8689 7.70497 19.8689 7.54071C19.8689 7.29433 19.6208 7.25326 19.3314 7.25326C18.7938 7.25326 18.4217 7.41752 18.4217 7.41752L18.5457 6.71943ZM19.166 9.18328C19.6622 9.18328 19.7449 8.52625 19.7449 8.40306C19.7035 8.40306 19.7035 8.40306 19.5795 8.36199C18.9592 8.36199 18.8352 8.64944 18.8352 8.85476C18.8352 8.97796 18.9179 9.18328 19.166 9.18328Z" fill="#0F0F0F"/>
<path d="M21.357 9.8402C21.6051 8.48509 21.6464 7.37636 22.2254 7.58168C22.3081 7.04785 22.4321 6.84253 22.5148 6.63721C22.5148 6.63721 22.4735 6.63721 22.3494 6.63721C21.9773 6.63721 21.6878 7.12998 21.6878 7.12998L21.7705 6.67827H20.9848L20.4473 9.88127H21.357V9.8402Z" fill="#0F0F0F"/>
</svg>
