<svg width="60" height="60" viewBox="0 0 60 60" fill="none" xmlns="http://www.w3.org/2000/svg">
<g id="icon_girls">
<path id="Shape" fill-rule="evenodd" clip-rule="evenodd" d="M0 30C0 46.5418 13.4582 60 30 60C46.5418 60 60 46.5418 60 30C60 13.4582 46.5418 0 30 0C13.4582 0 0 13.4582 0 30ZM1.81818 30.0002C1.81818 14.4602 14.46 1.81836 30 1.81836C45.54 1.81836 58.1818 14.4602 58.1818 30.0002C58.1818 45.5402 45.54 58.182 30 58.182C14.46 58.182 1.81818 45.5402 1.81818 30.0002Z" fill="white"/>
<path id="Shape_2" fill-rule="evenodd" clip-rule="evenodd" d="M11.1456 52.9454C16.5604 57.4951 23.4317 60 30.4927 60C37.5556 60 44.4269 57.4951 49.8381 52.9472C50.079 52.7446 50.1976 52.4324 50.1556 52.122C50.1137 51.8116 49.9129 51.5451 49.6264 51.4155C48.8745 51.0759 48.0441 50.7363 47.1151 50.3985C42.3153 48.6477 39.9482 47.1122 38.928 44.9889C47.9017 42.7524 48.9621 37.2114 49.0041 36.9685C49.0643 36.6143 48.9055 36.251 48.6062 36.052C48.4219 35.9297 44.1239 32.983 44.1239 25.4391C44.1239 17.238 42.5033 8.85245 30.4927 8.85245C18.4822 8.85245 16.8616 17.2362 16.8616 25.4391C16.8616 32.983 12.5636 35.9297 12.3829 36.0484C12.0782 36.2474 11.9212 36.6089 11.9814 36.9685C12.0234 37.2132 13.0819 42.7524 22.0574 44.9889C21.0391 47.1122 18.6702 48.6495 13.8685 50.3985C12.9396 50.7363 12.111 51.0759 11.3573 51.4136C11.0726 51.5414 10.87 51.808 10.828 52.1202C10.786 52.4324 10.9047 52.7446 11.1456 52.9454ZM30.4928 58.1739C24.3661 58.1739 18.3892 56.1656 13.5035 52.4904C13.8211 52.3644 14.1496 52.2403 14.4964 52.1125C20.5938 49.8906 23.2127 47.8494 24.1617 44.5832C24.2329 44.3404 24.1964 44.0775 24.0668 43.8584C23.9354 43.6411 23.7182 43.4878 23.4682 43.4367C16.3707 41.9724 14.4234 38.4671 13.9342 37.158C15.2975 36.0078 18.6885 32.444 18.6885 25.4405C18.6885 16.5803 20.696 10.6796 30.4946 10.6796C40.2932 10.6796 42.3007 16.5803 42.3007 25.4405C42.3007 32.444 45.6898 36.0078 47.0549 37.158C46.5622 38.4744 44.6112 41.9743 37.5191 43.4385C37.2709 43.4896 37.0538 43.643 36.9224 43.8621C36.791 44.0793 36.7563 44.3422 36.8275 44.5869C37.7783 47.8531 40.3972 49.8924 46.4928 52.1143C46.8359 52.2403 47.1663 52.3644 47.482 52.4904C42.5982 56.1656 36.6212 58.1739 30.4928 58.1739Z" fill="white"/>
</g>
</svg>
