<svg width="60" height="60" viewBox="0 0 60 60" fill="none" xmlns="http://www.w3.org/2000/svg">
<path fill-rule="evenodd" clip-rule="evenodd" d="M0 30C0 13.458 13.458 0 30 0C46.542 0 60 13.458 60 30C60 46.542 46.542 60 30 60C13.458 60 0 46.542 0 30ZM2 30C2 45.439 14.561 58 30 58C45.439 58 58 45.439 58 30C58 14.561 45.439 2 30 2C14.561 2 2 14.561 2 30Z" fill="white"/>
<path fill-rule="evenodd" clip-rule="evenodd" d="M21.302 38.6089C19.1753 38.6089 17.1627 37.914 15.781 37.0835L15 39.616C16.2736 40.4465 18.7848 41.1061 21.0857 41.112C23.9079 41.112 26.0006 40.3257 27.3853 39.086C28.7814 40.2679 30.7018 40.953 32.7284 40.953C33.7376 40.953 34.6989 40.8293 35.594 40.5761C35.8343 40.5113 36.1046 40.5761 36.2548 40.7704C39.2634 44.7484 42.6355 42.313 43.3629 41.7082C43.3155 41.9324 43.3308 42.2541 43.6922 42.4667C45.2782 43.3795 46.0292 39.9282 45.9991 39.6279C45.7168 39.5101 42.1303 39.2038 42.5628 40.9648C42.6412 41.2889 42.8549 41.4215 43.0569 41.4724C41.3824 42.2423 38.6541 43.0214 37.5104 40.6644C37.3302 40.2993 37.2641 39.9047 37.6125 39.6809C39.8474 38.2733 41.145 35.7172 41.145 32.6251C41.145 29.7333 39.8413 27.2951 37.4744 25.752C36.2188 24.9274 34.7169 24.5093 32.9987 24.5093C29.6838 24.5093 26.9151 25.993 25.5508 28.4936C25.1987 28.3053 24.8229 28.1244 24.4235 27.9492C24.2467 27.8714 24.0653 27.7947 23.8792 27.719C23.8791 27.7192 23.879 27.7195 23.8789 27.7198C23.7067 27.65 23.5306 27.5811 23.3505 27.5129C20.0584 26.2643 18.6106 25.1865 18.6106 23.0015C18.6106 21.4054 19.8481 19.4972 23.1042 19.4972C25.2609 19.4972 26.853 20.1863 27.6339 20.6044L28.481 18.1426C27.4177 17.5536 25.6454 17 23.2064 17C18.5745 17 15.4926 19.7033 15.4926 23.349C15.4926 26.6413 17.9017 28.6202 21.7946 29.9748C23.0084 30.4321 23.9456 30.8945 24.6423 31.4101C24.5861 31.837 24.5581 32.2737 24.5581 32.7194C24.5581 34.1338 24.9255 35.5453 25.6116 36.8235C24.8115 37.9332 23.328 38.6089 21.302 38.6089ZM25.7296 32.5365C25.7318 33.6059 25.887 34.5754 26.2016 35.4763C26.259 35.2042 26.2882 34.9187 26.2882 34.6217C26.2882 34.1886 26.2382 33.7923 26.1329 33.4258C26.1326 33.4279 26.1324 33.4299 26.1321 33.4319C26.0408 33.1125 25.9078 32.8155 25.7296 32.5365ZM28.8895 38.8328C28.6223 38.6576 28.3725 38.4728 28.1404 38.2787C29.0078 37.1652 29.4362 35.8111 29.4362 34.3802C29.4362 32.0213 28.4666 30.3824 26.5526 29.0929C26.8335 28.5646 27.1861 28.0667 27.6099 27.6013C28.8655 26.2231 30.5897 25.5282 32.7344 25.5282C35.6901 25.5282 38.1052 26.9417 39.1925 29.3152C39.7032 30.3753 39.9615 31.5591 39.9615 32.8372C39.9615 35.458 38.8801 37.5547 36.8315 38.9034C35.7742 39.5925 34.4886 39.94 33.0227 39.94C31.3767 39.94 30.025 39.5807 28.8895 38.8328Z" fill="white"/>
<path d="M25.7415 21.5938C25.731 21.5923 25.7205 21.5909 25.6995 21.582C24.6061 22.5232 24.9396 24.0607 25.2483 25.4836C25.44 26.3669 25.622 27.206 25.4472 27.8309C25.4524 27.8326 25.5217 27.7557 25.6355 27.6293C25.9147 27.3193 26.462 26.7117 26.9911 26.2348C27.664 25.6282 28.3068 25.2748 28.3248 25.2807C28.536 24.5317 27.6267 24.0156 26.7646 23.5265C25.7626 22.9579 24.8245 22.4255 25.7836 21.6056C25.7626 21.5968 25.7521 21.5953 25.7415 21.5938Z" fill="white"/>
<path d="M39.7212 21.5938C39.7317 21.5923 39.7422 21.5909 39.7633 21.582C40.8567 22.5232 40.5231 24.0607 40.2144 25.4836C40.0228 26.3669 39.8407 27.206 40.0156 27.8309C40.0094 27.8324 39.9604 27.7682 39.878 27.6603C39.6395 27.3478 39.1211 26.6687 38.5497 26.1524C37.9189 25.5811 37.156 25.2748 37.138 25.2807C36.9268 24.5317 37.8361 24.0156 38.6982 23.5265C39.7001 22.9579 40.6382 22.4255 39.6792 21.6056C39.7002 21.5968 39.7107 21.5953 39.7212 21.5938Z" fill="white"/>
</svg>
