<svg width="60" height="54" viewBox="0 0 60 54" fill="none" xmlns="http://www.w3.org/2000/svg">
<path d="M58.5182 0.0117188H16.2047C15.4033 0.0117188 14.7537 0.661469 14.7537 1.46272C14.7537 2.26434 15.4033 2.91397 16.2047 2.91397H57.0671V50.8056H16.2047C15.4033 50.8056 14.7537 51.4551 14.7537 52.257C14.7537 53.058 15.4033 53.7077 16.2047 53.7077H58.5182C59.3195 53.7077 59.9691 53.058 59.9691 52.257V1.46284C59.9692 0.661594 59.3196 0.0117188 58.5182 0.0117188Z" fill="white"/>
<path d="M22.0991 35.677C21.5322 36.244 21.5322 37.1623 22.0991 37.7293C22.3826 38.0127 22.7541 38.1543 23.1255 38.1543C23.4966 38.1543 23.8678 38.0125 24.1513 37.7293L33.0999 28.7808C33.6669 28.214 33.6669 27.2952 33.0999 26.7287L24.1513 17.779C23.5845 17.2117 22.666 17.2117 22.0991 17.779C21.5322 18.345 21.5322 19.2641 22.0991 19.8307L28.5705 26.3033H1.45125C0.649875 26.3032 0 26.9532 0 27.7545C0 28.556 0.649875 29.2058 1.45125 29.2058H28.5705L22.0991 35.677Z" fill="white"/>
</svg>
