<svg width="60" height="60" viewBox="0 0 60 60" fill="none" xmlns="http://www.w3.org/2000/svg">
<path fill-rule="evenodd" clip-rule="evenodd" d="M23.563 14.1745L45.563 29.1745C45.836 29.3605 46 29.6695 46 30.0005C46 30.3315 45.836 30.6405 45.563 30.8265L23.563 45.8265C23.394 45.9415 23.197 46.0005 23 46.0005C22.84 46.0005 22.679 45.9625 22.533 45.8845C22.205 45.7115 22 45.3715 22 45.0005V15.0005C22 14.6295 22.205 14.2895 22.532 14.1165C22.86 13.9435 23.256 13.9665 23.563 14.1745ZM43.225 30.0005L24 16.8935V43.1075L43.225 30.0005Z" fill="white"/>
<path fill-rule="evenodd" clip-rule="evenodd" d="M0 30C0 13.458 13.458 0 30 0C46.542 0 60 13.458 60 30C60 46.542 46.542 60 30 60C13.458 60 0 46.542 0 30ZM2 30C2 45.439 14.561 58 30 58C45.439 58 58 45.439 58 30C58 14.561 45.439 2 30 2C14.561 2 2 14.561 2 30Z" fill="white"/>
</svg>
