<svg width="64" height="18" viewBox="0 0 64 18" fill="none" xmlns="http://www.w3.org/2000/svg">
<path fill-rule="evenodd" clip-rule="evenodd" d="M37.8493 0.570893L42.714 0.570893C44.2886 0.570893 45.5762 1.00442 46.4343 1.72733C47.007 2.45023 47.2934 3.6072 47.007 4.90832C46.578 8.08931 44.7176 9.6798 41.4264 9.6798H39.8529C39.4228 9.6798 39.1375 9.96918 39.1375 10.2585L38.5647 13.8725C38.5647 14.1619 38.4216 14.3071 38.1357 14.3071H35.5599C35.2735 14.3071 35.1309 14.1619 35.1309 13.8725L37.1339 1.14911C37.2771 0.859738 37.563 0.570893 37.8493 0.570893ZM40.4246 7.07703C41.7128 7.07703 43.0004 7.07703 43.2868 5.34185C43.2868 4.61947 43.2868 4.18542 43.0004 4.04073C42.5714 3.46198 41.7128 3.46198 40.8542 3.46198H40.5678C40.2819 3.46198 40.1388 3.6072 40.1388 3.75136L39.5665 7.07703H40.4246Z" fill="white"/>
<path fill-rule="evenodd" clip-rule="evenodd" d="M2.79464 0.570893L7.65934 0.570893C9.37654 0.570893 10.5215 1.00442 11.3796 1.72733C11.9523 2.45023 12.2387 3.6072 11.9523 4.90832C11.5233 8.08931 9.66291 9.6798 6.3717 9.6798H4.79821C4.36813 9.6798 4.0828 9.96918 4.0828 10.2585L3.51005 13.7284C3.36686 14.0178 3.08101 14.3071 2.79464 14.3071H0.505211C0.218836 14.3071 0.0761719 14.1619 0.0761719 13.8725L2.07922 1.14911C2.22241 0.859738 2.50826 0.570893 2.79464 0.570893ZM5.36991 7.07703C6.65808 7.07703 7.94571 7.07703 8.23209 5.34185C8.37475 4.61947 8.23209 4.18542 8.0889 4.04073C7.65934 3.46198 6.80126 3.46198 5.94266 3.46198H5.65629C5.36991 3.46198 5.22725 3.6072 5.22725 3.75136L4.6545 7.07703H5.36991Z" fill="white"/>
<path fill-rule="evenodd" clip-rule="evenodd" d="M20.1033 5.19705H22.3927C22.5344 5.19705 22.8157 5.48031 22.9609 5.62645L22.9655 5.6311L21.6773 13.7283C21.5341 14.0171 21.2478 14.3065 20.9619 14.3065H18.8157C18.5293 14.3065 18.3861 14.1618 18.3861 13.8724L18.5293 13.1495C18.5293 13.1495 17.3849 14.4512 15.2381 14.4512C13.9505 14.4512 12.9492 14.1618 12.2333 13.2942C11.5178 12.4266 11.0888 11.1255 11.3747 9.67969C11.8042 6.93223 14.0936 4.90767 16.6694 4.90767C17.8139 4.90767 18.8157 5.19705 19.3879 5.91995L19.5306 6.20932L19.6743 5.48642C19.6743 5.34173 19.9607 5.19705 20.1033 5.19705ZM16.3831 12.1378C17.8139 12.1378 18.8157 11.1255 19.1015 9.82437C19.1015 9.24563 18.9589 8.52272 18.5293 8.08919C18.1003 7.79982 17.6707 7.51044 16.9553 7.51044C15.6677 7.51044 14.5227 8.52272 14.38 9.82384C14.38 10.5467 14.5227 11.1255 14.8091 11.559C15.0949 11.8484 15.6677 12.1378 16.3831 12.1378Z" fill="white"/>
<path fill-rule="evenodd" clip-rule="evenodd" d="M55.0225 5.19705H57.312C57.5306 5.19705 57.6655 5.36572 57.7808 5.50989C57.8165 5.55456 57.8503 5.59688 57.8842 5.63111L56.5965 13.7283C56.4528 14.0171 56.167 14.3065 55.8811 14.3065H53.7344C53.448 14.3065 53.3053 14.1618 53.3053 13.8724L53.448 13.1495C53.448 13.1495 52.3035 14.4512 50.1568 14.4512C48.8697 14.4512 47.8679 14.1618 47.1519 13.2942C46.4365 12.4266 46.0075 11.1255 46.2939 9.67969C46.7229 6.93223 49.0123 4.90768 51.5881 4.90768C52.7326 4.90768 53.7344 5.19705 54.3071 5.91995L54.4498 6.20933L54.593 5.48642C54.593 5.34174 54.8793 5.19705 55.0225 5.19705ZM51.3023 12.1378C52.7326 12.1378 53.7344 11.1255 54.0207 9.82438C54.1634 9.24563 54.0207 8.52273 53.448 8.08919C53.019 7.79982 52.5899 7.51045 51.8745 7.51045C50.5869 7.51045 49.4414 8.52273 49.2987 9.82385C49.2987 10.5468 49.4414 11.1255 49.7277 11.559C50.0141 11.8484 50.5869 12.1378 51.3023 12.1378Z" fill="white"/>
<path d="M34.8423 5.19758H32.4097C32.1238 5.19758 31.9801 5.34174 31.8375 5.48695L28.6894 10.4026L27.2581 5.77633C27.1154 5.48695 26.9722 5.34174 26.5427 5.34174H24.2533C23.9669 5.34174 23.8242 5.63111 23.8242 5.92049L26.4 13.5841L23.9669 17.054C23.8242 17.3433 23.9669 17.7769 24.2533 17.7769H26.5427C26.8291 17.7769 26.9722 17.6322 27.1154 17.4875L34.985 6.06517C35.4145 5.63111 35.1287 5.19758 34.8423 5.19758Z" fill="white"/>
<path d="M60.0304 1.0043L58.0273 14.0176C58.0273 14.3065 58.17 14.4512 58.4564 14.4512H60.4594C60.7458 14.4512 61.0322 14.1618 61.1748 13.8724L63.1784 1.14846C63.1784 0.859619 63.0352 0.714931 62.7494 0.714931H60.4594C60.3168 0.570773 60.1736 0.714931 60.0304 1.0043Z" fill="white"/>
</svg>
