<svg width="71" height="18" viewBox="0 0 71 18" fill="none" xmlns="http://www.w3.org/2000/svg">
<path fill-rule="evenodd" clip-rule="evenodd" d="M26.249 2.17232L26.1553 2.49696L25.9127 3.32782C25.8123 3.66668 25.7085 4.02647 25.5981 4.40717C25.4893 4.78704 25.3839 5.14683 25.2843 5.4857L25.0417 6.31655L24.9471 6.64036H24.2802L22.739 0.980837H23.4762L24.6024 5.58108H24.6492L25.916 0.980837H26.6297L27.8965 5.58108H27.9434L29.0696 0.980837H29.8067L28.2655 6.64036H27.5987L26.2967 2.17232H26.249ZM30.6493 6.64036V2.41245H31.3237V6.64036H30.6493ZM30.9865 1.55315C30.9247 1.55389 30.8634 1.54194 30.8064 1.51805C30.7494 1.49416 30.698 1.45883 30.6552 1.41425C30.6104 1.37153 30.575 1.32008 30.5509 1.26308C30.5269 1.20609 30.5148 1.14477 30.5154 1.08292C30.5144 1.02064 30.5264 0.958841 30.5504 0.90139C30.5745 0.843939 30.6101 0.792079 30.6552 0.749067C30.6983 0.704988 30.7498 0.670102 30.8068 0.646517C30.8637 0.622932 30.9249 0.611138 30.9865 0.611847C31.117 0.611847 31.2283 0.657866 31.3195 0.749067C31.4115 0.841106 31.4567 0.952389 31.4567 1.08292C31.4574 1.14455 31.4456 1.20569 31.4221 1.26264C31.3985 1.31959 31.3636 1.37117 31.3195 1.41425C31.2765 1.45908 31.2248 1.49456 31.1675 1.51846C31.1102 1.54236 31.0486 1.55417 30.9865 1.55315ZM32.4482 6.64036V2.41245H33.0925V3.07931H33.1544C33.2615 2.84671 33.4196 2.6643 33.6272 2.53378C33.8347 2.40325 34.1007 2.33798 34.4254 2.33798C34.9015 2.33798 35.2663 2.47353 35.5215 2.74379C35.7767 3.01405 35.9039 3.40061 35.9039 3.90264V6.64036H35.2295V4.06747C35.2295 3.68593 35.1475 3.40312 34.9843 3.21988C34.8211 3.03748 34.5701 2.94544 34.2329 2.94544C33.8957 2.94544 33.6263 3.0517 33.4255 3.26339C33.2239 3.47508 33.1235 3.76709 33.1235 4.13775V6.64036H32.4482ZM38.5395 6.71566C37.9973 6.71566 37.5664 6.51653 37.2443 6.11909C36.923 5.72165 36.7623 5.19034 36.7623 4.52599C36.7623 3.86247 36.9238 3.33116 37.2476 2.93372C37.5723 2.53629 38.0023 2.33798 38.5387 2.33798C38.834 2.33798 39.0993 2.40325 39.3335 2.53378C39.567 2.6643 39.7435 2.84671 39.864 3.07931H39.9226V0.73317H40.5978V6.64036H39.9544V5.96597H39.8916C39.7577 6.20109 39.5729 6.38433 39.3352 6.51653C39.0912 6.6502 38.8169 6.71852 38.5387 6.71483L38.5395 6.71566ZM38.696 2.94544C38.3111 2.94544 38.0099 3.08601 37.7898 3.36714C37.5697 3.64828 37.4602 4.03484 37.4602 4.52599C37.4602 5.02048 37.5689 5.40788 37.7873 5.68734C38.0057 5.96681 38.3086 6.10654 38.696 6.10654C39.08 6.10654 39.3829 5.96597 39.6055 5.68316C39.828 5.40119 39.9393 5.01546 39.9393 4.52599C39.9393 4.04237 39.8272 3.65832 39.6038 3.373C39.3804 3.08852 39.0767 2.94627 38.696 2.94627V2.94544ZM43.4836 6.71483C42.882 6.71483 42.4068 6.51904 42.0579 6.12913C41.709 5.73755 41.5341 5.20372 41.5341 4.52599C41.5341 3.84658 41.709 3.31192 42.0579 2.92201C42.4068 2.53294 42.882 2.33798 43.4836 2.33798C44.0852 2.33798 44.5605 2.53294 44.9094 2.92201C45.2583 3.31192 45.4332 3.84658 45.4332 4.52599C45.4332 5.20372 45.2583 5.73755 44.9094 6.12829C44.5605 6.51904 44.0852 6.71483 43.4836 6.71483ZM43.4836 6.10654C43.8836 6.10654 44.1923 5.96848 44.409 5.69153C44.6266 5.41374 44.7353 5.0255 44.7353 4.52599C44.7353 4.02396 44.6266 3.63573 44.409 3.35961C44.1915 3.0835 43.8836 2.94544 43.4836 2.94544C43.0837 2.94544 42.7749 3.0835 42.5582 3.35961C42.3407 3.63573 42.2319 4.02396 42.2319 4.52599C42.2319 5.0255 42.3407 5.41374 42.5582 5.69153C42.7758 5.96764 43.0837 6.10654 43.4836 6.10654ZM51.491 2.41245L51.3722 2.83918L51.076 3.89678L50.7229 5.15603L50.4267 6.2128L50.307 6.64036H49.6209L48.6754 3.36881H48.6127L47.6714 6.64036H46.9895L45.8047 2.41245H46.4874L47.3183 5.79277H47.381L48.3265 2.41245H48.9733L49.9188 5.79277H49.9816L50.8132 2.41245H51.491ZM52.0164 3.56962C52.0164 3.21821 52.167 2.92536 52.4674 2.69108C52.7686 2.45512 53.1435 2.33798 53.5928 2.33798C54.0379 2.33798 54.4027 2.44006 54.6889 2.64338C54.9759 2.84754 55.1407 3.12366 55.1851 3.47173H54.519C54.4741 3.30092 54.3642 3.15441 54.2128 3.06341C54.0538 2.96133 53.8446 2.9103 53.5894 2.9103C53.3384 2.9103 53.1268 2.96887 52.9536 3.08517C52.7812 3.20147 52.6942 3.35292 52.6942 3.54201C52.6942 3.68593 52.7552 3.80558 52.8757 3.90096C52.9954 3.99635 53.1803 4.07416 53.428 4.13441L54.0798 4.29087C54.4772 4.38793 54.7726 4.52682 54.9675 4.70923C55.1625 4.89079 55.2604 5.1326 55.2604 5.43633C55.2604 5.81536 55.098 6.12327 54.7734 6.36006C54.4496 6.59685 54.0471 6.71483 53.566 6.71483C53.095 6.71483 52.7092 6.61024 52.4089 6.40106C52.2667 6.3084 52.1473 6.18478 52.0596 6.03945C51.9719 5.89412 51.9183 5.73084 51.9026 5.56184H52.5971C52.6546 5.73977 52.7743 5.89099 52.9343 5.98772C53.1016 6.09315 53.3192 6.1467 53.5894 6.1467C53.8739 6.1467 54.1082 6.08478 54.2915 5.96262C54.4739 5.83879 54.5659 5.68065 54.5659 5.48737C54.567 5.41768 54.5526 5.34862 54.5236 5.28523C54.4947 5.22183 54.4519 5.16568 54.3986 5.12089C54.2881 5.02216 54.1199 4.94602 53.8949 4.89079L53.1694 4.71508C52.7745 4.61803 52.4833 4.47913 52.2967 4.29924C52.1101 4.11851 52.0164 3.87503 52.0164 3.56962ZM28.6847 16.0115H28.0262V11.6891H27.9793L26.1946 15.973H25.5981L23.8142 11.6891H23.7665V16.0115H23.108V10.352H23.928L25.865 15.0351H25.9277L27.8656 10.352H28.6856V16.0115H28.6847ZM29.8963 16.0115V11.7836H30.5707V16.0115H29.8963ZM30.2334 10.9243C30.1717 10.9251 30.1104 10.9131 30.0534 10.8892C29.9964 10.8653 29.9449 10.83 29.9021 10.7854C29.8574 10.7427 29.8219 10.6913 29.7979 10.6343C29.7738 10.5773 29.7618 10.5159 29.7624 10.4541C29.7614 10.3918 29.7733 10.33 29.7974 10.2726C29.8214 10.2151 29.8571 10.1633 29.9021 10.1202C29.9452 10.0762 29.9968 10.0413 30.0537 10.0177C30.1107 9.99411 30.1718 9.98232 30.2334 9.98303C30.364 9.98303 30.4753 10.029 30.5665 10.1202C30.6585 10.2123 30.7037 10.3236 30.7037 10.4541C30.7044 10.5157 30.6926 10.5769 30.669 10.6338C30.6454 10.6908 30.6105 10.7423 30.5665 10.7854C30.5235 10.8303 30.4718 10.8657 30.4145 10.8896C30.3572 10.9135 30.2955 10.9253 30.2334 10.9243ZM33.1938 14.4151H33.131L32.1269 16.0115H31.3622L32.8097 13.8972L31.3463 11.7836H32.1504L33.1544 13.3567H33.2172L34.2095 11.7836H34.9743L33.5393 13.8704L34.9943 16.0115H34.1936L33.1938 14.4151ZM37.2443 12.3049C36.9071 12.3049 36.6301 12.4187 36.4126 12.6463C36.1959 12.8739 36.0745 13.1742 36.0486 13.5483H38.378C38.3696 13.1742 38.2625 12.8739 38.0567 12.6463C37.85 12.4187 37.5798 12.3049 37.2451 12.3049H37.2443ZM38.3579 14.9171H39.0332C38.9393 15.2692 38.7189 15.5743 38.414 15.7739C38.1019 15.9823 37.7153 16.086 37.2526 16.086C36.6669 16.086 36.2026 15.8894 35.8603 15.4961C35.5173 15.1029 35.3458 14.5707 35.3458 13.9014C35.3458 13.237 35.519 12.7057 35.8645 12.3074C36.2093 11.9083 36.672 11.7092 37.2526 11.7092C37.8216 11.7092 38.2709 11.8991 38.5972 12.2798C38.9244 12.6605 39.0875 13.1784 39.0875 13.8344V14.0938H36.0486V14.1248C36.0662 14.5431 36.185 14.8753 36.4034 15.1204C36.6209 15.3673 36.9096 15.4903 37.2677 15.4903C37.5396 15.4903 37.7672 15.4409 37.9505 15.343C38.1337 15.2451 38.2693 15.1029 38.3579 14.9171ZM41.55 16.086C41.0087 16.086 40.5777 15.8877 40.2556 15.4903C39.9343 15.0928 39.7737 14.5615 39.7737 13.8972C39.7737 13.2337 39.9352 12.7023 40.259 12.3049C40.5836 11.9075 41.0137 11.7092 41.55 11.7092C41.8454 11.7092 42.1106 11.7744 42.3449 11.905C42.5783 12.0355 42.7549 12.2179 42.8753 12.4505H42.9339V10.1043H43.6092V16.0115H42.9657V15.3371H42.9029C42.7691 15.5723 42.5842 15.7555 42.3466 15.8877C42.1026 16.0214 41.8282 16.0897 41.55 16.086ZM41.7073 12.3166C41.3224 12.3166 41.0212 12.4572 40.8011 12.7383C40.5811 13.0195 40.4715 13.406 40.4715 13.8972C40.4715 14.3917 40.5802 14.7791 40.7986 15.0585C41.017 15.338 41.3199 15.4777 41.7073 15.4777C42.0913 15.4777 42.3942 15.3371 42.6168 15.0543C42.8394 14.7724 42.9498 14.3866 42.9498 13.8972C42.9498 13.4135 42.8385 13.0295 42.6151 12.7442C42.3917 12.4597 42.088 12.3175 41.7073 12.3175V12.3166ZM47.6546 10.9796V13.1441H49.0478C49.4109 13.1441 49.6912 13.0513 49.8887 12.8638C50.0861 12.6772 50.1849 12.4095 50.1849 12.0623C50.1849 11.7217 50.0811 11.4565 49.8753 11.2657C49.6686 11.0749 49.3816 10.9796 49.016 10.9796H47.6546ZM47.6546 13.7717V16.0115H46.9493V10.352H49.1105C49.6569 10.352 50.0937 10.506 50.4217 10.8122C50.7505 11.1201 50.9145 11.5284 50.9145 12.0388C50.9145 12.4329 50.8141 12.7751 50.6124 13.0621C50.4116 13.35 50.1322 13.5499 49.7766 13.6621L51.0868 16.0115H50.2593L49.0478 13.7717H47.6546ZM53.5175 12.3049C53.1803 12.3049 52.9033 12.4187 52.6858 12.6463C52.4691 12.8739 52.3478 13.1742 52.3218 13.5483H54.6512C54.6429 13.1742 54.5358 12.8739 54.3299 12.6463C54.1233 12.4187 53.853 12.3049 53.5183 12.3049H53.5175ZM54.6312 14.9171H55.3064C55.2126 15.2692 54.9921 15.5743 54.6872 15.7739C54.3751 15.9823 53.9886 16.086 53.5259 16.086C52.9402 16.086 52.4758 15.8894 52.1336 15.4961C51.7905 15.1029 51.619 14.5707 51.619 13.9014C51.619 13.237 51.7922 12.7057 52.1378 12.3074C52.4825 11.9083 52.9452 11.7092 53.5259 11.7092C54.0948 11.7092 54.5441 11.8991 54.8705 12.2798C55.1976 12.6605 55.3608 13.1784 55.3608 13.8344V14.0938H52.3218V14.1248C52.3394 14.5431 52.4582 14.8753 52.6766 15.1204C52.8941 15.3673 53.1828 15.4903 53.5409 15.4903C53.8129 15.4903 54.0405 15.4409 54.2237 15.343C54.4069 15.2451 54.5425 15.1029 54.6312 14.9171ZM57.5605 15.4944C57.9086 15.4944 58.1964 15.3924 58.4256 15.1899C58.6541 14.9874 58.7687 14.7356 58.7687 14.4352V14.0469L57.6308 14.1214C57.0141 14.1632 56.7054 14.3933 56.7054 14.8117C56.7054 15.0259 56.7865 15.1932 56.948 15.3137C57.1112 15.4334 57.3145 15.4936 57.5605 15.4936V15.4944ZM57.435 16.086C57.025 16.086 56.6836 15.973 56.4133 15.7471C56.1431 15.5212 56.0076 15.2142 56.0076 14.8268C56.0076 14.0528 56.5213 13.6361 57.5488 13.5759L58.7687 13.5014V13.1165C58.7687 12.5785 58.4499 12.3091 57.8115 12.3091C57.558 12.3091 57.3471 12.3551 57.1798 12.4463C57.1023 12.4853 57.0337 12.5399 56.9784 12.6068C56.9231 12.6736 56.8823 12.7511 56.8585 12.8345H56.1757C56.2201 12.4948 56.3958 12.2221 56.7012 12.0171C57.0074 11.8112 57.3856 11.7092 57.8349 11.7092C58.3503 11.7092 58.7469 11.8338 59.0256 12.0832C59.3042 12.3334 59.4431 12.6772 59.4431 13.1174V16.0115H58.7997V15.3882H58.7369C58.6071 15.6068 58.4199 15.7856 58.1955 15.9053C57.9611 16.028 57.6996 16.0901 57.435 16.086ZM60.5676 16.0115V10.1043H61.2429V16.0115H60.5676ZM62.4067 16.0115V11.7836H63.0811V16.0115H62.4067ZM62.7439 10.9243C62.6821 10.9251 62.6208 10.9131 62.5639 10.8892C62.5069 10.8653 62.4554 10.83 62.4126 10.7854C62.3679 10.7427 62.3324 10.6913 62.3083 10.6343C62.2843 10.5773 62.2722 10.5159 62.2729 10.4541C62.2719 10.3918 62.2838 10.33 62.3078 10.2726C62.3319 10.2151 62.3675 10.1633 62.4126 10.1202C62.4557 10.0762 62.5073 10.0413 62.5642 10.0177C62.6212 9.99411 62.6823 9.98232 62.7439 9.98303C62.8744 9.98303 62.9857 10.029 63.0769 10.1202C63.169 10.2123 63.2142 10.3236 63.2142 10.4541C63.2149 10.5157 63.2031 10.5769 63.1795 10.6338C63.1559 10.6908 63.121 10.7423 63.0769 10.7854C63.034 10.8303 62.9822 10.8657 62.9249 10.8896C62.8676 10.9135 62.806 10.9253 62.7439 10.9243ZM64.4885 10.69H65.1628V11.7836H66.1041V12.3484H65.1628V14.7414C65.1628 14.9891 65.2131 15.1698 65.3118 15.2819C65.4114 15.394 65.5712 15.4509 65.7904 15.4509C65.8952 15.4517 66 15.4461 66.1041 15.4342V16.0032C65.9738 16.0292 65.8413 16.0424 65.7084 16.0425C65.2733 16.0425 64.962 15.9555 64.7729 15.7798C64.583 15.6049 64.4885 15.3162 64.4885 14.9129V12.3484H63.8057V11.7836H64.4885V10.6892V10.69ZM67.3232 17.541C67.2556 17.5403 67.1881 17.537 67.1208 17.531C67.0872 17.5275 67.0537 17.523 67.0204 17.5176V16.9403C67.0622 16.9487 67.1091 16.9545 67.1584 16.957C67.2086 16.9595 67.2563 16.9604 67.3032 16.9604C67.4973 16.9604 67.6529 16.9093 67.77 16.8056C67.8872 16.7027 67.991 16.5228 68.0796 16.2667L68.1583 16.0157L66.5936 11.7836H67.3232L68.4838 15.2627H68.5465L69.7037 11.7836H70.4216L68.7708 16.2701C68.59 16.7621 68.3968 17.0968 68.1918 17.2741C67.9868 17.4524 67.6973 17.5419 67.3232 17.5419V17.541Z" fill="white"/>
<path d="M0.30586 8.65952L0.300842 3.87269L6.19129 3.07279V8.65952H0.30586ZM7.17276 2.93055L15.0253 1.7876V8.65952H7.17276V2.93055ZM15.027 9.64098L15.0253 16.5137L7.17276 15.4093V9.64182H15.027V9.64098ZM6.19129 15.2838L0.30586 14.4772V9.64098H6.19129V15.2838Z" fill="white"/>
</svg>
