<svg width="72" height="15" viewBox="0 0 72 15" fill="none" xmlns="http://www.w3.org/2000/svg">
<path fill-rule="evenodd" clip-rule="evenodd" d="M19.4093 0.452637H1.42332C0.751436 0.452637 0.1875 1.05507 0.1875 1.80644V12.8912C0.1875 13.6367 0.751429 14.245 1.44757 14.245H6.36244C6.88957 14.245 7.34391 13.9003 7.53217 13.4049L8.95623 9.70668C9.19888 9.07914 9.77374 8.64656 10.4406 8.64656C11.1075 8.64656 11.6831 9.07914 11.9257 9.70584L13.349 13.4049C13.5372 13.9003 13.9916 14.245 14.4953 14.245H19.4034C20.1305 14.245 20.6936 13.6426 20.6936 12.8912V1.81313C20.7003 1.06009 20.1364 0.452637 19.4093 0.452637ZM5.82944 9.60627C4.6229 9.60627 3.64731 8.59636 3.64731 7.34882C3.64731 6.10128 4.6229 5.09221 5.82944 5.09221C7.0343 5.09221 8.01074 6.10128 8.01074 7.34882C8.00488 8.59636 7.03514 9.60543 5.82944 9.60543V9.60627ZM15.0584 9.60627C13.8527 9.60627 12.8771 8.59636 12.8771 7.34882C12.8771 6.10128 13.8527 5.09221 15.0584 5.09221C16.2641 5.09221 17.2397 6.10128 17.2397 7.34882C17.2338 8.59636 16.2641 9.60543 15.0584 9.60543V9.60627ZM32.329 8.74027C32.262 9.49917 31.9892 10.0949 31.5173 10.5208C31.0438 10.9475 30.4138 11.1609 29.6264 11.1609C29.0742 11.1609 28.5956 11.0287 28.178 10.7593C27.7597 10.4898 27.4384 10.1066 27.2075 9.61213C26.9782 9.11679 26.8627 8.5403 26.851 7.88181V7.21746C26.851 6.54641 26.9656 5.95067 27.1957 5.43693C27.4267 4.92235 27.7597 4.52743 28.1897 4.25215C28.6198 3.97603 29.1169 3.83798 29.6808 3.83798C30.438 3.83798 31.0563 4.05134 31.5165 4.47722C31.9767 4.90395 32.2503 5.50638 32.3282 6.28954H31.135C31.0806 5.77496 30.9342 5.40514 30.7049 5.18006C30.4748 4.95415 30.1351 4.84119 29.6866 4.84119C29.1653 4.84119 28.7663 5.03531 28.4868 5.43024C28.2082 5.82517 28.0626 6.4025 28.0567 7.16056V7.79395C28.0567 8.5654 28.1906 9.15445 28.4567 9.55607C28.7227 9.96355 29.111 10.1635 29.6264 10.1635C30.0983 10.1635 30.4505 10.0573 30.6865 9.8372C30.9224 9.61798 31.0747 9.25485 31.135 8.74697H32.329V8.74027ZM36.3335 11.0605C36.2667 10.9023 36.2222 10.7356 36.2013 10.5651C35.8373 10.9601 35.3897 11.1609 34.8559 11.1609C34.3404 11.1609 33.9221 11.0103 33.5949 10.7032C33.2686 10.402 33.1105 10.0255 33.1105 9.57448C33.1105 9.01053 33.3105 8.57795 33.7163 8.27673C34.1221 7.97552 34.7036 7.82491 35.4558 7.82491H36.1586V7.47349C36.1586 7.19821 36.0858 6.97899 35.9344 6.81583C35.7829 6.65268 35.5578 6.57152 35.2558 6.57152C34.9947 6.57152 34.7772 6.64013 34.6132 6.77233C34.5342 6.83227 34.4704 6.91007 34.4272 6.99936C34.384 7.08865 34.3626 7.1869 34.3647 7.28607H33.2134C33.2134 6.9974 33.3046 6.72212 33.492 6.47111C33.6803 6.2201 33.9346 6.01928 34.2501 5.87537C34.5882 5.72908 34.9536 5.65662 35.3219 5.66285C35.9218 5.66285 36.4013 5.81931 36.7585 6.13224C37.1158 6.44601 37.2974 6.88528 37.3099 7.44923V9.83804C37.3099 10.315 37.3769 10.6965 37.504 10.9785V11.0605H36.3335ZM35.0742 10.2012C35.3043 10.2012 35.516 10.1451 35.716 10.0322C35.9168 9.9192 36.0674 9.76274 36.1703 9.57448V8.57795H35.5528C35.1286 8.57795 34.8073 8.65326 34.5889 8.80972C34.4852 8.88311 34.4015 8.98126 34.3454 9.09524C34.2893 9.20922 34.2626 9.33541 34.2676 9.46236C34.2676 9.68743 34.3404 9.87569 34.486 10.0071C34.6316 10.1384 34.8257 10.2012 35.0742 10.2012ZM41.1881 6.84763C41.0338 6.82238 40.8776 6.80979 40.7212 6.80998C40.194 6.80998 39.8368 7.01665 39.6552 7.43668V11.0596H38.5039V5.76325H39.6L39.631 6.35815C39.9096 5.90047 40.292 5.6687 40.7881 5.6687C40.9521 5.6687 41.0851 5.6938 41.1939 5.73731L41.1881 6.84763ZM41.7094 8.37045C41.7094 7.55549 41.8909 6.89783 42.2607 6.4025C42.6247 5.90717 43.115 5.66285 43.7334 5.66285C44.2789 5.66285 44.7148 5.85696 45.0478 6.25189V3.53676H46.2V11.0605H45.1574L45.1031 10.5082C44.7575 10.9408 44.2965 11.1542 43.7275 11.1542C43.1276 11.1542 42.6423 10.9032 42.2724 10.402C41.8968 9.91334 41.7094 9.22975 41.7094 8.37045ZM42.8606 8.47755C42.8606 9.01639 42.9636 9.43642 43.1635 9.73764C43.3643 10.0389 43.6488 10.1895 44.0178 10.1895C44.4906 10.1895 44.8294 9.96941 45.0478 9.53682V7.27352C44.8361 6.84679 44.4965 6.63427 44.0246 6.63427C43.6547 6.63427 43.3635 6.78488 43.1635 7.09195C42.9636 7.39902 42.8606 7.86256 42.8606 8.47755ZM51.8963 8.465C51.8963 9.28581 51.7206 9.9443 51.3625 10.4271C51.0052 10.9099 50.5199 11.155 49.8957 11.155C49.2958 11.155 48.8298 10.9291 48.4959 10.4831L48.4416 11.0538H47.3999V3.53174H48.5512V6.26528C48.8842 5.8578 49.3268 5.65699 49.8899 5.65699C50.5141 5.65699 51.0052 5.89545 51.3625 6.37823C51.7198 6.86102 51.8955 7.53122 51.8955 8.39053V8.46583L51.8963 8.465ZM50.7442 8.36459C50.7442 7.78726 50.6471 7.36137 50.4538 7.07271C50.2597 6.78488 49.9752 6.64013 49.5995 6.64013C49.1025 6.64013 48.7511 6.86604 48.5512 7.31786V9.49917C48.757 9.95685 49.1084 10.1886 49.6112 10.1886C49.9685 10.1886 50.2471 10.0506 50.448 9.77529C50.6412 9.49917 50.7442 9.07914 50.7509 8.5152V8.36459H50.7442ZM52.6594 8.36459C52.6594 7.84415 52.7565 7.38062 52.9565 6.96059C53.1364 6.56632 53.4271 6.23288 53.7932 6.00088C54.1504 5.77496 54.568 5.66285 55.0349 5.66285C55.726 5.66285 56.2899 5.89461 56.7192 6.3523C57.1501 6.80998 57.3801 7.42413 57.4161 8.18302L57.422 8.465C57.422 8.98543 57.3258 9.45566 57.1316 9.86231C56.9375 10.2706 56.6589 10.5902 56.2949 10.8162C55.9318 11.0421 55.5134 11.1542 55.0407 11.1542C54.3194 11.1542 53.7379 10.9032 53.3079 10.4087C52.8711 9.91334 52.6594 9.24816 52.6594 8.41479V8.36459ZM53.8107 8.465C53.8107 9.01053 53.9195 9.43642 54.1379 9.74349C54.3554 10.0506 54.6592 10.2079 55.0466 10.2079C55.2257 10.214 55.4035 10.174 55.5628 10.0917C55.722 10.0093 55.8575 9.8874 55.956 9.73764C56.1736 9.42387 56.2824 8.96619 56.2824 8.3579C56.2824 7.82575 56.1736 7.39902 55.9502 7.08609C55.8507 6.93719 55.7151 6.8159 55.5561 6.73353C55.397 6.65117 55.2197 6.61039 55.0407 6.61502C54.665 6.61502 54.368 6.77233 54.1438 7.0794C53.9195 7.39317 53.8107 7.85001 53.8107 8.465ZM61.3796 11.0605C61.3123 10.9024 61.2672 10.7357 61.2458 10.5651C61.078 10.7557 60.8709 10.9076 60.6388 11.0105C60.4067 11.1133 60.155 11.1646 59.9012 11.1609C59.3857 11.1609 58.9674 11.0103 58.6402 10.7032C58.3139 10.402 58.155 10.0255 58.155 9.57448C58.155 9.01053 58.3558 8.57795 58.7616 8.27673C59.1674 7.97552 59.7489 7.82491 60.5011 7.82491H61.2039V7.47349C61.2039 7.19821 61.1311 6.97899 60.9797 6.81583C60.8282 6.65268 60.6031 6.57152 60.3011 6.57152C60.04 6.57152 59.8217 6.64013 59.6585 6.77233C59.5795 6.83227 59.5158 6.91007 59.4726 6.99936C59.4294 7.08865 59.408 7.1869 59.41 7.28607H58.2587C58.2587 6.9974 58.3499 6.72212 58.5373 6.47111C58.7256 6.2201 58.98 6.01928 59.2946 5.87537C59.6329 5.72896 59.9986 5.6565 60.3672 5.66285C60.9671 5.66285 61.4466 5.81931 61.8038 6.13224C62.1611 6.44601 62.3427 6.88528 62.3552 7.44923V9.83804C62.3552 10.315 62.4222 10.6965 62.5493 10.9785V11.0605H61.3796ZM60.1187 10.2012C60.3496 10.2012 60.5613 10.1451 60.7613 10.0322C60.9613 9.9192 61.1127 9.76274 61.2156 9.57448V8.57795H60.5981C60.1739 8.57795 59.8526 8.65326 59.6342 8.80972C59.5305 8.88311 59.4468 8.98126 59.3907 9.09524C59.3346 9.20922 59.3079 9.33541 59.3129 9.46236C59.3129 9.68743 59.3857 9.87569 59.5305 10.0071C59.6769 10.1384 59.8702 10.2012 60.1187 10.2012ZM66.2393 6.84763C66.0852 6.82243 65.9293 6.80984 65.7732 6.80998C65.2461 6.80998 64.8879 7.01665 64.7064 7.43668V11.0596H63.5551V5.76325H64.6512L64.6821 6.35815C64.9607 5.90047 65.3431 5.6687 65.8393 5.6687C66.0033 5.6687 66.1363 5.6938 66.2451 5.73731L66.2393 6.84763ZM66.7547 8.37045C66.7547 7.55549 66.9362 6.89783 67.306 6.4025C67.6692 5.90717 68.1603 5.66285 68.7787 5.66285C69.3242 5.66285 69.7601 5.85696 70.0931 6.25189V3.53676H71.2445V11.0605H70.2028L70.1484 10.5082C69.8028 10.9408 69.3418 11.1542 68.7728 11.1542C68.1729 11.1542 67.6876 10.9032 67.3178 10.402C66.9421 9.91334 66.7547 9.22975 66.7547 8.37045ZM67.906 8.47755C67.906 9.01639 68.0089 9.43642 68.2089 9.73764C68.4089 10.0389 68.6942 10.1895 69.0632 10.1895C69.5359 10.1895 69.8747 9.96941 70.0931 9.53682V7.27352C69.8814 6.84679 69.5417 6.63427 69.069 6.63427C68.7 6.63427 68.4089 6.78488 68.2089 7.09195C68.0089 7.39902 67.906 7.86256 67.906 8.47755Z" fill="white"/>
</svg>
