<svg width="103" height="18" viewBox="0 0 103 18" fill="none" xmlns="http://www.w3.org/2000/svg">
<mask id="mask0_8_1336" style="mask-type:alpha" maskUnits="userSpaceOnUse" x="8" y="0" width="9" height="18">
<path fill-rule="evenodd" clip-rule="evenodd" d="M16.8052 0.120605H8.02686L8.02686 17.1148H16.8052V0.120605Z" fill="white"/>
</mask>
<g mask="url(#mask0_8_1336)">
<path fill-rule="evenodd" clip-rule="evenodd" d="M8.09591 0.120605C8.91766 0.338081 9.74482 0.536389 10.56 0.777614C11.8523 1.16 13.152 1.52202 14.3663 2.14082C15.9747 2.96057 16.7357 4.31063 16.7929 6.11843C16.816 6.84331 16.8298 7.56481 16.6121 8.27076C16.1833 9.66157 15.1086 10.2812 13.732 9.91786C12.919 9.70328 12.9191 9.70328 12.919 8.8552C12.919 7.30611 12.9286 5.75677 12.9102 4.2078C12.9068 3.91522 12.8265 3.6095 12.7184 3.33621C12.6025 3.04351 12.3295 2.8939 12.0243 2.92838C11.7323 2.96141 11.621 3.21397 11.5764 3.48461C11.5484 3.65398 11.5275 3.82698 11.5274 3.9984C11.5248 8.22338 11.5254 12.4484 11.5254 16.6734C11.5254 16.8025 11.5254 16.9316 11.5254 17.1148C11.0293 16.9529 10.5649 16.8005 10.1001 16.6497C9.50871 16.4579 8.92084 16.2531 8.32356 16.0831C8.08191 16.0143 8.0265 15.8988 8.02686 15.6551C8.03427 10.477 8.0325 5.29879 8.0325 0.120605H8.09591Z" fill="white"/>
</g>
<path fill-rule="evenodd" clip-rule="evenodd" d="M12.204 13.4731C12.204 12.7749 12.1957 12.1263 12.2144 11.4786C12.2167 11.3947 12.3453 11.2722 12.4389 11.2401C13.4632 10.8907 14.5164 10.695 15.5953 10.6383C17.1628 10.5561 18.6847 10.7829 20.1444 11.3746C20.5 11.5186 20.8537 11.7187 21.143 11.9715C21.6252 12.393 21.5945 12.9593 21.0731 13.3428C20.6919 13.623 20.2769 13.8845 19.8394 14.0496C17.3828 14.977 14.915 15.8728 12.4508 16.7787C12.3842 16.8031 12.3147 16.819 12.2058 16.8509C12.2058 16.1842 12.1967 15.5478 12.2177 14.9125C12.2201 14.8366 12.3751 14.7357 12.4774 14.6979C14.2087 14.0597 15.9431 13.4307 17.6757 12.7962C17.8335 12.7385 17.9955 12.6764 18.1327 12.5815C18.2281 12.5156 18.3473 12.3848 18.34 12.2927C18.3326 12.2006 18.1919 12.0658 18.0909 12.0451C17.7532 11.9755 17.393 11.8648 17.0672 11.9227C16.3883 12.0435 15.7165 12.2318 15.0591 12.4476C14.1195 12.7562 13.1953 13.1142 12.204 13.4731Z" fill="white"/>
<path fill-rule="evenodd" clip-rule="evenodd" d="M30.1171 13.7843H28.6147V5.03667C28.9853 5.03667 29.3424 5.03655 29.6994 5.03667C30.4605 5.03692 31.2215 5.03788 31.9826 5.03728C33.2544 5.03643 33.9032 5.55975 34.1932 6.84122C34.3896 7.70859 34.3543 8.56535 33.9576 9.37028C33.5845 10.1271 32.9835 10.5418 32.1307 10.5265C31.6886 10.5185 31.2462 10.525 30.7832 10.525V9.5505C31.0799 9.5505 31.3808 9.55074 31.6819 9.5505C32.1646 9.55002 32.4289 9.39704 32.5808 8.94316C32.8416 8.16343 32.8392 7.36851 32.5716 6.59071C32.4378 6.20181 32.1556 5.98518 31.724 5.99639C31.1987 6.01001 30.6729 5.99964 30.1171 5.99964V13.7843Z" fill="white"/>
<path fill-rule="evenodd" clip-rule="evenodd" d="M7.3493 13.1103C7.3493 13.7094 7.35601 14.2702 7.33989 14.8304C7.33801 14.8926 7.2126 14.9911 7.13296 15.0054C5.11464 15.3657 3.14221 15.1676 1.22402 14.443C0.914497 14.326 0.611091 14.1426 0.359567 13.9238C-0.145011 13.4848 -0.121717 12.8271 0.449565 12.4867C1.09096 12.1045 1.77354 11.7796 2.46764 11.5095C3.98137 10.9203 5.51369 10.3812 7.03896 9.82294C7.12613 9.79112 7.21707 9.77014 7.3493 9.73145C7.3493 10.4063 7.35566 11.0525 7.33966 11.698C7.33801 11.7629 7.21166 11.8516 7.12684 11.8833C6.0598 12.2818 4.98912 12.6699 3.92126 13.0659C3.74408 13.1316 3.56362 13.2029 3.40586 13.3058C3.12751 13.4876 3.13845 13.737 3.45397 13.8085C3.87855 13.9046 4.33995 13.9916 4.7583 13.9186C5.40487 13.8057 6.02933 13.5572 6.6612 13.3597C6.88025 13.2913 7.09354 13.2037 7.3493 13.1103Z" fill="white"/>
<path fill-rule="evenodd" clip-rule="evenodd" d="M97.3389 8.96063C97.9525 8.96063 98.5418 8.96485 99.1311 8.95786C99.288 8.95593 99.4458 8.92627 99.6013 8.89818C100.406 8.75292 100.85 8.21839 100.852 7.40008C100.854 6.63362 100.47 6.08221 99.7176 6.00421C98.9374 5.92332 98.1431 5.98613 97.3389 5.98613V8.96063ZM100.336 9.39999C101.145 9.6734 101.353 10.3544 101.557 11.0296C101.809 11.8641 102.045 12.7037 102.287 13.5413C102.307 13.6116 102.322 13.6836 102.35 13.8015C102.009 13.8015 101.693 13.8159 101.381 13.7907C101.309 13.7848 101.211 13.6539 101.186 13.5628C100.97 12.7851 100.769 12.0031 100.561 11.2231C100.527 11.0984 100.478 10.9781 100.443 10.8541C100.26 10.2206 99.8178 9.91523 99.2023 9.8875C98.5916 9.85989 97.9787 9.88147 97.3275 9.88147V13.7819H96.2734V5.07639C96.3245 5.06313 96.373 5.03938 96.4213 5.03974C97.5418 5.04601 98.6641 5.01539 99.7822 5.07302C101.297 5.15126 102.2 6.45249 101.823 7.95397C101.633 8.71308 101.111 9.15153 100.336 9.39999Z" fill="white"/>
<path fill-rule="evenodd" clip-rule="evenodd" d="M43.957 7.14048C44.4463 7.14048 44.911 7.12914 45.3742 7.15084C45.4588 7.1547 45.5799 7.27778 45.6123 7.37181C46.0171 8.55142 46.4085 9.73584 46.804 10.9188C46.8543 11.0691 46.908 11.2181 46.9857 11.441C47.072 11.2241 47.1357 11.0703 47.1947 10.9147C47.6368 9.74874 48.0832 8.58421 48.5146 7.41401C48.5881 7.21449 48.6678 7.12058 48.8921 7.13409C49.27 7.15675 49.6501 7.14023 50.0771 7.14023C49.9243 7.54553 49.7886 7.91574 49.6455 8.28307C48.5421 11.1171 47.4354 13.95 46.3372 16.7862C46.2623 16.98 46.1655 17.047 45.9659 17.0372C45.6206 17.0204 45.2739 17.0326 44.8882 17.0326C45.1887 16.2329 45.4271 15.4472 45.7749 14.7161C46.1013 14.0298 46.0616 13.4216 45.8089 12.7215C45.1594 10.9224 44.5809 9.09655 43.9749 7.28104C43.9651 7.25187 43.9666 7.21871 43.957 7.14048Z" fill="white"/>
<path fill-rule="evenodd" clip-rule="evenodd" d="M63.6161 12.8402V13.8278C62.9779 13.7983 62.3362 13.8479 61.7302 13.7202C60.9857 13.5632 60.5786 12.9352 60.5482 12.2075C60.5037 11.1438 60.5177 10.061 60.6651 9.0095C60.8319 7.81929 61.7252 7.15059 62.9029 7.14119C63.864 7.13335 64.825 7.1395 65.8113 7.1395V13.7809H64.307V8.12646C63.7779 8.12646 63.287 8.06908 62.8198 8.15202C62.6041 8.19023 62.3759 8.47136 62.2605 8.69932C62.1349 8.94694 62.0958 9.25929 62.0858 9.54596C62.0552 10.4214 62.0333 11.2987 62.0548 12.174C62.0674 12.6884 62.2784 12.8397 62.7936 12.8402C63.057 12.8404 63.3205 12.8402 63.6161 12.8402Z" fill="white"/>
<path fill-rule="evenodd" clip-rule="evenodd" d="M40.9405 12.8381V13.7608C40.3138 13.7608 39.6925 13.8401 39.1 13.7403C38.3962 13.6217 37.9806 13.0577 37.8852 12.3631C37.7289 11.2256 37.7145 10.0714 37.9798 8.94474C38.2555 7.77394 39.0514 7.1537 40.2196 7.142C41.1786 7.13248 42.1378 7.14008 43.1138 7.14008V13.7771H41.6131V8.06194C41.0929 8.08617 40.5991 8.0834 40.1123 8.1421C39.835 8.1755 39.6307 8.39996 39.577 8.68121C39.4785 9.19754 39.3831 9.72037 39.3583 10.244C39.3271 10.902 39.3534 11.5642 39.3834 12.2231C39.4038 12.6721 39.5955 12.8324 40.0319 12.8375C40.3263 12.8409 40.6208 12.8381 40.9405 12.8381Z" fill="white"/>
<path fill-rule="evenodd" clip-rule="evenodd" d="M80.1592 7.15152C81.2353 7.15152 82.2949 7.09378 83.3459 7.16695C84.5074 7.24784 85.2828 8.06868 85.3786 9.31784C85.4678 10.4812 85.439 11.654 85.4593 12.8228C85.4647 13.1349 85.4601 13.4471 85.4601 13.7813H83.9339V13.2498C83.9339 12.1661 83.9455 11.0821 83.9278 9.99872C83.9216 9.61247 83.8738 9.2208 83.7931 8.84323C83.6877 8.35017 83.4486 8.15222 82.957 8.10943C82.6105 8.07929 82.2608 8.08761 81.9124 8.08254C81.8514 8.0817 81.7902 8.09966 81.6955 8.11401V13.7827H80.1592V7.15152Z" fill="white"/>
<path fill-rule="evenodd" clip-rule="evenodd" d="M75.1055 10.4788C75.1935 11.0465 75.2377 11.62 75.3803 12.1664C75.5125 12.6733 75.8609 12.85 76.4391 12.8413C76.9906 12.8328 77.3008 12.6372 77.4505 12.1381C77.5424 11.8317 77.5953 11.507 77.6204 11.1868C77.6829 10.3877 77.6959 9.58541 77.4577 8.80929C77.299 8.29237 76.9488 8.07115 76.3909 8.08297C75.8204 8.0949 75.4969 8.28622 75.3693 8.81134C75.2384 9.35069 75.1916 9.91138 75.1055 10.4788ZM79.2105 10.5679C79.1637 10.9512 79.1435 11.4413 79.0386 11.9117C78.7834 13.0547 78.0092 13.72 76.8659 13.7714C76.3757 13.7934 75.8653 13.7881 75.3922 13.6735C74.2537 13.3977 73.8018 12.5056 73.6771 11.4094C73.5854 10.6028 73.5781 9.78954 73.777 8.99136C74.0501 7.89579 74.7811 7.23191 75.879 7.15921C76.3792 7.12618 76.901 7.14041 77.3876 7.25047C78.3674 7.47192 78.9716 8.24454 79.1066 9.3324C79.153 9.70696 79.1709 10.0853 79.2105 10.5679Z" fill="white"/>
<path fill-rule="evenodd" clip-rule="evenodd" d="M55.1728 5.06522V5.97877C55.0716 5.98588 54.9715 5.99866 54.8714 5.99902C54.3215 6.00083 53.771 5.98359 53.2221 6.00673C52.9872 6.01662 52.7318 6.06255 52.5273 6.1731C52.1203 6.39286 51.9547 7.15439 52.1221 7.829C52.252 8.35219 52.5441 8.59402 53.0931 8.63609C53.4193 8.66117 53.7496 8.66358 54.0705 8.72108C54.861 8.86285 55.333 9.38122 55.5476 10.1483C55.7527 10.8813 55.7482 11.6261 55.545 12.359C55.3098 13.2075 54.6864 13.7398 53.8155 13.7735C52.8678 13.8104 51.9177 13.782 50.949 13.782V12.8408C51.5686 12.8408 52.1781 12.8405 52.7877 12.8408C53.7407 12.8415 54.0609 12.559 54.1446 11.5823C54.169 11.2973 54.1366 10.9957 54.0705 10.7165C53.9508 10.2106 53.6143 9.97687 53.0701 9.94095C52.7651 9.92094 52.4528 9.91744 52.1585 9.84451C51.4749 9.67501 50.9946 9.22788 50.7616 8.554C50.4991 7.79524 50.515 7.01925 50.8304 6.27665C51.1392 5.5496 51.7253 5.13237 52.4751 5.07981C53.358 5.01773 54.2482 5.06522 55.1728 5.06522Z" fill="white"/>
<path fill-rule="evenodd" clip-rule="evenodd" d="M87.9473 5.03797C88.2862 5.03797 88.6041 5.017 88.9161 5.05148C89.0029 5.06112 89.1068 5.22254 89.145 5.33501C89.8237 7.33135 90.4932 9.33107 91.1653 11.3298C91.322 11.7959 91.4806 12.2613 91.6701 12.8209C91.8595 12.2659 92.0234 11.7967 92.18 11.3249C92.8442 9.32348 93.5081 7.32183 94.1658 5.31814C94.2313 5.11911 94.3125 5.0094 94.5417 5.03038C94.8021 5.05413 95.0661 5.0358 95.3823 5.0358C95.3326 5.19783 95.3005 5.31633 95.2602 5.43182C94.3151 8.13278 93.3676 10.8329 92.4265 13.5353C92.3615 13.7217 92.2836 13.8225 92.0707 13.8075C91.7865 13.7875 91.4983 13.8204 91.2153 13.7928C91.1094 13.7826 90.9543 13.6882 90.9214 13.5951C89.9369 10.8059 88.9647 8.01211 87.9913 5.21868C87.9747 5.17118 87.967 5.12031 87.9473 5.03797Z" fill="white"/>
<path fill-rule="evenodd" clip-rule="evenodd" d="M58.2867 7.14186H59.9124V8.07325H58.2941C58.2941 9.33663 58.2922 10.5493 58.296 11.7618C58.2967 11.9657 58.3103 12.1713 58.3389 12.3731C58.3863 12.7081 58.5949 12.8502 58.9167 12.8418C59.0959 12.8371 59.2753 12.841 59.4793 12.841V13.7962C58.7208 13.7638 57.9203 13.9963 57.2912 13.3046C56.9826 12.9654 56.7846 12.5632 56.7805 12.1135C56.762 10.0878 56.7725 8.06167 56.7725 6.00928H58.2867V7.14186Z" fill="white"/>
<path fill-rule="evenodd" clip-rule="evenodd" d="M70.1998 8.08606H68.6035C68.594 8.20251 68.58 8.2951 68.5799 8.38756C68.5783 9.57898 68.5775 10.7705 68.5809 11.9619C68.5813 12.0903 68.5992 12.2209 68.6264 12.3464C68.7089 12.7256 68.838 12.8303 69.2158 12.8393C69.3743 12.843 69.5328 12.8432 69.6912 12.8464C69.7115 12.8468 69.7316 12.8567 69.7792 12.8697V13.8398C69.2371 13.7947 68.6719 13.84 68.1656 13.684C67.4149 13.4529 67.0791 12.7796 67.0655 12.0239C67.03 10.0533 67.0545 8.08148 67.0561 6.11021C67.0561 6.08008 67.0712 6.05006 67.0839 6.00244H68.5667V7.12116H70.1998V8.08606Z" fill="white"/>
<path fill-rule="evenodd" clip-rule="evenodd" d="M35.2197 13.7935H36.6968V5.05615H35.2197V13.7935Z" fill="white"/>
<path fill-rule="evenodd" clip-rule="evenodd" d="M71.1333 13.7767H72.6295V7.16309H71.1333V13.7767Z" fill="white"/>
<path fill-rule="evenodd" clip-rule="evenodd" d="M71.1396 6.34643H72.616V5.05713H71.1396V6.34643Z" fill="white"/>
</svg>
