<svg width="66" height="13" viewBox="0 0 66 13" fill="none" xmlns="http://www.w3.org/2000/svg">
<path fill-rule="evenodd" clip-rule="evenodd" d="M6.40233 12.9058C10.5276 12.9058 12.6641 10.165 12.4603 5.9997H6.10013V8.25858H9.7827C9.49456 9.53909 8.2647 10.611 6.38124 10.611C4.11829 10.611 2.60029 8.79813 2.60029 6.44572C2.60029 4.09332 4.11829 2.33801 6.36016 2.33801C7.75167 2.33801 9.24859 3.00705 9.95137 4.51776L11.9473 3.20847C10.7174 1.11505 8.5177 0 6.36719 0C2.82518 0 0 2.71929 0 6.44572C0 10.165 2.69868 12.9058 6.40233 12.9058Z" fill="white"/>
<path fill-rule="evenodd" clip-rule="evenodd" d="M15.7916 8.6473H23.473C23.6346 5.22301 21.7934 2.7627 18.5395 2.7627C15.6721 2.7627 13.4443 4.94964 13.4443 7.85597C13.4443 10.7911 15.5597 12.9492 18.8347 12.9492C20.7462 12.9492 21.8777 11.6256 22.7632 10.5033L21.1187 9.51776C20.6408 10.2443 20.0645 10.9709 18.8136 10.9709C17.0637 10.9709 16.0657 10.0645 15.7916 8.6473ZM15.7915 7.01396C16.0656 5.54641 17.0846 4.71191 18.5675 4.71191C20.1558 4.71191 20.9569 5.69028 21.1607 7.01396H15.7915Z" fill="white"/>
<path fill-rule="evenodd" clip-rule="evenodd" d="M28.4065 12.9486C29.9948 12.9486 31.1544 12.0854 31.7026 10.9271L31.6815 12.74H33.9796V2.96351H31.6815L31.7026 4.75478C31.1122 3.54621 30.044 2.75488 28.4276 2.75488C25.9257 2.75488 24.0142 4.89866 24.0142 7.82657C24.0142 10.7833 25.9679 12.9486 28.4065 12.9486ZM29.0182 10.8771C27.3807 10.8771 26.4038 9.64696 26.4038 7.8269C26.4038 6.05721 27.3807 4.84863 29.0182 4.84863C30.6978 4.84863 31.7239 6.07879 31.7239 7.84848C31.7239 9.64696 30.6978 10.8771 29.0182 10.8771Z" fill="white"/>
<path fill-rule="evenodd" clip-rule="evenodd" d="M35.188 12.7405H37.4861V7.99255C37.4861 5.80561 38.4208 4.9927 39.7842 4.9927C40.3042 4.9927 40.6697 5.12939 41.0351 5.31643L41.8082 3.20143C41.4006 2.94245 40.9227 2.78418 40.241 2.78418C39.1938 2.78418 38.1045 3.27336 37.465 4.80566L37.4861 2.96403H35.188V12.7405H35.188Z" fill="white"/>
<path fill-rule="evenodd" clip-rule="evenodd" d="M44.2261 0.395508L48.8715 12.7474H50.8814L55.5198 0.395508H52.814L49.8694 9.3447L46.9318 0.395508H44.2261Z" fill="white"/>
<path fill-rule="evenodd" clip-rule="evenodd" d="M56.082 12.7478H58.5066V8.4818H59.8489L62.3789 12.7478H65.4431L62.4984 8.32353C63.3418 8.10052 63.9953 7.64731 64.4732 6.96389C64.9511 6.28047 65.183 5.43878 65.183 4.43883C65.183 3.23745 64.8527 2.25908 64.1851 1.51092C63.5245 0.762754 62.6249 0.388672 61.5005 0.388672H56.082V12.7478ZM58.5068 6.25889V2.62598H61.072C61.571 2.62598 61.9645 2.79863 62.2667 3.13674C62.5689 3.47486 62.7165 3.91368 62.7165 4.43884C62.7165 4.96399 62.5689 5.40282 62.2667 5.74812C61.9645 6.09343 61.571 6.26608 61.072 6.26608H58.5068V6.25889Z" fill="white"/>
</svg>
