<svg width="58" height="16" viewBox="0 0 58 16" fill="none" xmlns="http://www.w3.org/2000/svg">
<path d="M12.2006 12.301C11.9861 12.8063 11.7209 13.2885 11.409 13.7402C10.9924 14.3392 10.651 14.7542 10.3883 14.9852C9.9808 15.3634 9.54402 15.5567 9.07713 15.5675C8.74161 15.5675 8.33665 15.4713 7.86558 15.2755C7.39283 15.0814 6.95856 14.9852 6.56112 14.9852C6.14444 14.9852 5.69766 15.0814 5.2199 15.2755C4.7413 15.4713 4.35641 15.5734 4.06105 15.5834C3.61341 15.6027 3.16577 15.4035 2.72064 14.9852C2.43616 14.7342 2.07972 14.3041 1.653 13.6958C1.19531 13.0448 0.818795 12.291 0.524272 11.4317C0.208831 10.5029 0.0506592 9.60428 0.0506592 8.7341C0.0506592 7.73674 0.264033 6.8766 0.690756 6.15619C1.01275 5.59149 1.47502 5.11942 2.03285 4.78566C2.58084 4.45452 3.20745 4.27599 3.84768 4.26857C4.20328 4.26857 4.67017 4.37985 5.25085 4.59823C5.82902 4.81745 6.20053 4.92873 6.36369 4.92873C6.48501 4.92873 6.89833 4.79904 7.59782 4.53966C8.25883 4.29953 8.81775 4.19996 9.27543 4.23845C10.5146 4.33969 11.4459 4.83335 12.065 5.72194C10.9564 6.40051 10.4083 7.35102 10.4192 8.56927C10.4293 9.51894 10.7706 10.3088 11.44 10.9355C11.7446 11.2267 12.0843 11.4517 12.4608 11.6116C12.3788 11.8517 12.2935 12.081 12.2014 12.301H12.2006ZM9.35827 1.00539C9.35827 1.74923 9.08884 2.4437 8.5525 3.08629C7.90489 3.85105 7.12171 4.29283 6.27161 4.22338C6.26036 4.12982 6.25481 4.03566 6.25491 3.94141C6.25491 3.22686 6.5628 2.46211 7.11001 1.83708C7.40083 1.50724 7.75476 1.23896 8.1509 1.04806C8.57093 0.841394 8.96838 0.726764 9.34239 0.70752C9.35326 0.807088 9.35827 0.90582 9.35827 1.00455V1.00539Z" fill="white"/>
<path fill-rule="evenodd" clip-rule="evenodd" d="M20.2356 14.0029V7.39624H21.2899V14.0029H20.2356ZM20.7627 6.05415C20.6661 6.0552 20.5703 6.03644 20.4813 5.99903C20.3922 5.96161 20.3117 5.90633 20.2448 5.83661C20.1752 5.76982 20.12 5.68949 20.0826 5.60056C20.0451 5.51164 20.0263 5.41599 20.0273 5.31952C20.0273 5.11453 20.1001 4.94133 20.2448 4.79825C20.3123 4.72926 20.393 4.6747 20.4822 4.63788C20.5714 4.60106 20.6671 4.58275 20.7636 4.58405C20.9677 4.58405 21.1409 4.65517 21.284 4.79825C21.4263 4.94049 21.4982 5.11453 21.4982 5.31952C21.4994 5.41573 21.4811 5.51118 21.4443 5.60008C21.4074 5.68897 21.3529 5.76944 21.284 5.83661C21.2168 5.90687 21.1358 5.96247 21.0461 5.99991C20.9564 6.03735 20.8599 6.05582 20.7627 6.05415ZM23.0821 5.15971H26.4223C27.259 5.15971 27.9409 5.42662 28.4655 5.9596C28.991 6.49259 29.2528 7.18037 29.2528 8.0221C29.2528 8.8471 28.9868 9.524 28.4538 10.0536C27.92 10.5824 27.2389 10.8468 26.4097 10.8468H24.1849V14.0029H23.0821V5.15971ZM24.1849 6.14033V9.86621H26.1344C26.7628 9.86621 27.2514 9.70473 27.5987 9.3826C27.9459 9.05962 28.1191 8.60613 28.1191 8.0221C28.1191 7.41297 27.9492 6.94693 27.6079 6.62479C27.2665 6.30182 26.7754 6.14033 26.1336 6.14033H24.1849ZM30.6276 14.0029V4.77398H31.6818V8.43878H31.7806C31.9479 8.07481 32.2023 7.79117 32.5437 7.58701C32.8842 7.38202 33.3084 7.27994 33.8154 7.27994C34.5133 7.27994 35.068 7.4933 35.4789 7.92086C35.8888 8.34758 36.0946 8.94918 36.0946 9.72565V14.0029H35.0404V9.98252C35.0404 9.39849 34.9107 8.96006 34.6513 8.66888C34.392 8.37603 34.0129 8.23044 33.5151 8.23044C32.9227 8.23044 32.4692 8.40029 32.1546 8.74167C31.84 9.08305 31.6827 9.5332 31.6827 10.093V14.0029H30.6284H30.6276ZM40.3811 14.1201C39.4415 14.1201 38.6994 13.8138 38.153 13.203C37.6074 12.5922 37.3355 11.758 37.3355 10.6996C37.3355 9.63696 37.6074 8.80192 38.153 8.19363C38.6985 7.5845 39.4415 7.27994 40.3811 7.27994C41.3207 7.27994 42.0629 7.5845 42.6085 8.19363C43.154 8.80192 43.4268 9.63779 43.4268 10.6996C43.4268 11.758 43.154 12.5922 42.6085 13.203C42.0629 13.8138 41.3199 14.1192 40.3811 14.1192V14.1201ZM40.3811 13.1696C41.0061 13.1696 41.4881 12.9528 41.827 12.5203C42.1658 12.0868 42.3357 11.4802 42.3357 10.6996C42.3357 9.91558 42.1658 9.30729 41.827 8.87638C41.4881 8.44548 41.0061 8.23044 40.3811 8.23044C39.7561 8.23044 39.2734 8.44548 38.9345 8.87638C38.5956 9.30729 38.4257 9.91558 38.4257 10.7004C38.4257 11.4802 38.5956 12.0868 38.9345 12.5203C39.2734 12.9528 39.7561 13.1696 40.3811 13.1696ZM44.7278 14.0029V7.39624H45.7336V8.43878H45.8315C45.9988 8.07481 46.2448 7.79117 46.5695 7.58701C46.895 7.38202 47.31 7.27994 47.8162 7.27994C48.5609 7.27994 49.1315 7.49162 49.5297 7.91416C49.928 8.33754 50.1271 8.94081 50.1271 9.72565V14.0029H49.0729V9.98252C49.0729 9.38594 48.9457 8.94499 48.6905 8.65884C48.4345 8.37268 48.0437 8.23044 47.5166 8.23044C46.9895 8.23044 46.5686 8.39527 46.254 8.72661C45.9394 9.05711 45.7821 9.51312 45.7821 10.093V14.0029H44.7278ZM54.3333 8.21203C53.8062 8.21203 53.3736 8.38942 53.0348 8.74502C52.695 9.10062 52.5051 9.57002 52.4649 10.154H56.1047C56.0921 9.57002 55.9247 9.09979 55.6026 8.74502C55.2796 8.38942 54.8563 8.21203 54.3333 8.21203ZM56.0737 12.2935H57.1279C56.9812 12.8438 56.6365 13.3205 56.1599 13.6323C55.6737 13.9569 55.0688 14.1192 54.3458 14.1192C53.4305 14.1192 52.7059 13.8122 52.1704 13.1972C51.6349 12.5822 51.3672 11.7522 51.3672 10.7063C51.3672 9.66875 51.6374 8.83789 52.1763 8.21454C52.716 7.59203 53.4397 7.27994 54.3458 7.27994C55.2369 7.27994 55.9373 7.57781 56.4477 8.17187C56.9581 8.76594 57.2141 9.57588 57.2141 10.6017V11.0058H52.4649V11.056C52.4934 11.7087 52.6783 12.2274 53.0188 12.6123C53.3602 12.9955 53.8104 13.188 54.3702 13.188C54.7952 13.188 55.1508 13.111 55.4369 12.9579C55.7231 12.8047 55.9356 12.583 56.0745 12.2935H56.0737Z" fill="white"/>
</svg>
