<svg width="83" height="14" viewBox="0 0 83 14" fill="none" xmlns="http://www.w3.org/2000/svg">
<path fill-rule="evenodd" clip-rule="evenodd" d="M51.4587 6.28638C51.1207 6.21317 50.7594 6.19226 50.4098 6.22363C50.2303 6.24455 50.0718 6.27592 49.9016 6.33867C49.7764 6.38782 49.6587 6.45432 49.552 6.53621C49.3935 6.66286 49.2665 6.83019 49.2455 7.02889C49.2355 7.1109 49.2425 7.19408 49.2662 7.27326C49.2898 7.35243 49.3296 7.42589 49.383 7.48904C49.5112 7.64591 49.6907 7.75049 49.8702 7.82369C50.0404 7.8969 50.2093 7.94919 50.3888 7.99102C50.5904 8.04331 50.8025 8.08398 51.003 8.13743C51.4808 8.24201 51.9458 8.34659 52.3899 8.52437C53.1952 8.83811 53.9574 9.36101 54.2651 10.229C54.4026 10.6055 54.434 10.9924 54.3816 11.3898C54.3169 11.8633 54.1266 12.311 53.8303 12.6866C53.5972 12.9795 53.3222 13.22 53.004 13.4071C52.5705 13.6697 52.0834 13.8254 51.5857 13.9102C51.201 13.9763 50.8103 14.0008 50.4203 13.9834C49.9373 13.9627 49.4581 13.8886 48.9914 13.7626C48.1477 13.5242 47.3623 13.1152 46.6839 12.5611L47.826 11.0552C48.2502 11.3794 48.6954 11.6408 49.193 11.8186C49.5205 11.9441 49.8597 12.0162 50.2093 12.0592C50.5275 12.101 50.8549 12.101 51.1626 12.0696C51.384 12.0382 51.6172 11.986 51.8188 11.8814C51.9822 11.8102 52.1243 11.6981 52.2314 11.556C52.3238 11.4422 52.3827 11.305 52.4015 11.1598C52.4198 11.0021 52.3823 10.8431 52.2955 10.7101C52.194 10.554 52.056 10.4248 51.8934 10.3336C51.6848 10.2143 51.4598 10.1262 51.2256 10.0721C50.9505 9.98848 50.665 9.9362 50.3888 9.87345C49.5846 9.70612 48.6523 9.49696 47.9857 8.92061C47.6698 8.65015 47.4324 8.30028 47.2981 7.90736C47.1619 7.47206 47.1578 7.00633 47.2864 6.56874C47.3853 6.21545 47.559 5.88738 47.7957 5.60661C48.1199 5.21802 48.5389 4.91911 49.0124 4.7386C49.3645 4.59353 49.7352 4.49848 50.1138 4.45624C50.603 4.3952 51.0984 4.40224 51.5857 4.47716C52.4538 4.60295 53.2784 4.93668 53.9889 5.44974C53.6287 5.93081 53.2697 6.42233 52.9201 6.90223C52.4772 6.60512 51.981 6.39602 51.4587 6.28638ZM33.8186 0H31.6696V13.722H33.8186V0ZM44.9042 13.722V4.83273H42.7552V9.02636C42.7552 9.26689 42.7552 9.51788 42.7342 9.75841C42.7225 9.91528 42.7028 10.0721 42.6806 10.229C42.6337 10.523 42.5257 10.804 42.3636 11.054C41.9615 11.6722 41.2622 11.9755 40.5525 11.986C39.8334 11.9964 39.1447 11.7036 38.7531 11.0657C38.6042 10.806 38.5001 10.5231 38.4454 10.229C38.379 9.83148 38.3439 9.42936 38.3405 9.02636C38.3289 8.76491 38.3289 8.50346 38.3289 8.25247V4.83156H36.1798V8.43025C36.1798 8.77536 36.1798 9.12048 36.2008 9.46443C36.2125 9.71658 36.2218 9.96757 36.2439 10.229C36.2964 10.8251 36.4129 11.4108 36.6879 11.965C37.259 13.0945 38.3615 13.7429 39.5898 13.8893C40.1941 13.963 40.8071 13.9095 41.3893 13.7324C41.951 13.5651 42.5431 13.2723 42.9568 12.854L43.0197 13.7115C43.6549 13.722 44.2796 13.722 44.9042 13.722ZM19.1015 12.5716C18.6143 12.0696 18.1167 11.5676 17.6295 11.0761C17.2459 11.4223 16.779 11.6637 16.2741 11.7768C15.7765 11.8918 15.2369 11.8698 14.7497 11.714C14.258 11.5626 13.83 11.2539 13.5319 10.8356C13.2455 10.4126 13.0779 9.9209 13.0463 9.41153C13.0148 8.90217 13.1205 8.39366 13.3524 7.93873C13.6065 7.46812 13.977 7.14393 14.463 6.93477C14.9372 6.73506 15.4556 6.66293 15.9665 6.72561C16.4862 6.78836 16.9629 6.9766 17.3964 7.24851C17.8311 6.7047 18.2542 6.17134 18.6877 5.62753C17.961 5.05237 17.0825 4.69996 16.1588 4.61311C15.2349 4.51123 14.3008 4.66312 13.4573 5.05234C12.6135 5.44028 11.9213 6.09448 11.4877 6.91386C11.0587 7.72765 10.8574 8.64159 10.905 9.55971C10.9481 10.4696 11.2231 11.3689 11.7639 12.1324C12.3016 12.8878 13.0703 13.4492 13.9549 13.7324C14.8356 14.0244 15.7782 14.0786 16.6867 13.8893C17.6191 13.6801 18.4558 13.2409 19.1015 12.5716ZM29.1499 13.722V4.83273H26.9997V9.02636C26.9997 9.26689 26.9996 9.51788 26.9787 9.75841C26.9682 9.91528 26.9472 10.0721 26.9262 10.229C26.879 10.5231 26.7706 10.8041 26.6081 11.054C26.206 11.6722 25.5068 11.9755 24.7982 11.986C24.0779 11.9964 23.3891 11.7036 22.9975 11.0657C22.849 10.8059 22.7454 10.5231 22.6911 10.229C22.6242 9.83151 22.5888 9.42939 22.585 9.02636C22.5733 8.76491 22.5733 8.50346 22.5733 8.25247V4.83156H20.4243V8.43025C20.4243 8.77536 20.4242 9.12048 20.4464 9.46443C20.4569 9.71658 20.4674 9.96757 20.4884 10.229C20.5408 10.8251 20.6574 11.4108 20.9324 11.965C21.5046 13.0945 22.606 13.7429 23.8343 13.8893C24.4385 13.963 25.0515 13.9095 25.6338 13.7324C26.1955 13.5651 26.7875 13.2723 27.2012 12.854L27.2642 13.7115C27.8889 13.722 28.5252 13.722 29.1499 13.722ZM9.33864 9.2878C9.33864 10.5114 8.8841 11.714 7.9937 12.5925C7.11496 13.471 5.89825 13.9311 4.65939 13.9311C3.42054 13.9311 2.20266 13.4605 1.32392 12.5716C0.445179 11.6827 0 10.48 0 9.25643C0 8.03285 0.454502 6.83019 1.3449 5.95172C2.22363 5.07326 3.44152 4.61311 4.68038 4.61311C5.91924 4.61311 7.13712 5.08372 8.00537 5.97264C8.8946 6.86156 9.33864 8.06423 9.33864 9.2878ZM7.23152 9.27618C7.23152 9.09956 7.22101 8.92178 7.17905 8.74399C7.15082 8.57119 7.10112 8.40256 7.03106 8.24201C6.96966 8.08949 6.89518 7.94254 6.80845 7.80278C6.72163 7.66845 6.62254 7.54242 6.51243 7.42629C6.39589 7.31009 6.27935 7.20551 6.14183 7.12301C5.86029 6.93498 5.54293 6.80682 5.2095 6.74653C5.03509 6.7131 4.85798 6.6956 4.68038 6.69424C4.49974 6.69424 4.33074 6.7047 4.15126 6.74653C3.65813 6.83595 3.20402 7.07307 2.84946 7.42629C2.73292 7.53087 2.63621 7.65637 2.54181 7.78186C2.45923 7.9239 2.3849 8.07055 2.3192 8.2211C2.2551 8.37796 2.20264 8.55575 2.17117 8.72307C2.13761 8.89894 2.11969 9.07742 2.11758 9.25643C2.11758 9.43421 2.12922 9.612 2.17117 9.78978C2.20264 9.95711 2.24462 10.1349 2.3192 10.2918C2.38214 10.4486 2.45673 10.5939 2.54064 10.731C2.62572 10.867 2.73178 10.9924 2.83783 11.1075C2.95438 11.2225 3.07091 11.3271 3.20843 11.4096C3.48988 11.598 3.80725 11.7266 4.14076 11.7872C4.30975 11.8186 4.49041 11.8395 4.66988 11.8395C4.84936 11.8395 5.01954 11.8279 5.19901 11.7872C5.368 11.7559 5.53699 11.7036 5.69665 11.6408C5.84953 11.581 5.99496 11.5038 6.13016 11.4108C6.26543 11.3248 6.38985 11.223 6.50077 11.1075C6.61732 10.9913 6.71289 10.867 6.80845 10.7415C6.90265 10.6044 7.04155 10.3022 7.04155 10.3022C7.04155 10.3022 7.15808 9.96757 7.18955 9.80024C7.21053 9.64337 7.23152 9.46443 7.23152 9.27618ZM67.0499 13.7336C63.3683 13.7336 61.0922 11.097 61.0922 7.76908C61.0922 4.60497 63.4522 1.80341 66.9659 1.80341C68.9414 1.80341 70.1628 2.36349 71.3352 3.33608L70.4809 4.32377C69.5777 3.54989 68.5731 3.00607 66.9158 3.00607C64.3228 3.00607 62.4639 5.16505 62.4639 7.76908C62.4639 10.5207 64.2552 12.5635 67.1 12.5635C68.4403 12.5635 69.678 12.0522 70.4809 11.4108V8.54181H66.9158V7.37284H71.7524V11.9708C70.4505 13.1063 68.7797 13.7326 67.0499 13.7336ZM78.4642 13.7336C75.8699 13.7336 73.9795 11.7233 73.9795 9.28432C73.9795 6.87899 75.8874 4.83505 78.498 4.83505C81.0922 4.83505 83 6.8453 83 9.28548C83 11.6908 81.0759 13.7336 78.4642 13.7336ZM78.498 12.5972C80.372 12.5972 81.6784 11.1133 81.6784 9.28548C81.6784 7.45534 80.2892 5.95637 78.4642 5.95637C76.5901 5.95637 75.3012 7.45534 75.3012 9.28432C75.3012 11.1133 76.674 12.5972 78.498 12.5972Z" fill="white"/>
</svg>
