<svg width="296" height="33" viewBox="0 0 296 33" fill="none" xmlns="http://www.w3.org/2000/svg">
<g clip-path="url(#clip0_8_1299)">
<path fill-rule="evenodd" clip-rule="evenodd" d="M68.4087 13.7206C68.1658 13.6673 67.9077 13.6521 67.6571 13.6749C67.5281 13.6901 67.4142 13.713 67.2927 13.7587C67.2016 13.7967 67.1181 13.8424 67.0422 13.9034C66.9283 13.9947 66.8372 14.1166 66.8221 14.2613C66.8069 14.3831 66.8448 14.505 66.9207 14.5964C67.0118 14.7106 67.1409 14.7867 67.27 14.84C67.3914 14.8933 67.5129 14.9314 67.642 14.9619C67.7862 15 67.938 15.0304 68.0823 15.0685C68.4239 15.1447 68.7579 15.2208 69.0768 15.3503C69.6538 15.5787 70.2004 15.9595 70.4205 16.5916C70.5192 16.8657 70.542 17.1475 70.504 17.4369C70.4585 17.7795 70.3218 18.107 70.1093 18.3812C69.9422 18.5944 69.7449 18.7695 69.5171 18.9066C69.2059 19.097 68.8566 19.2112 68.4998 19.2721C68.2189 19.3178 67.9456 19.3407 67.6647 19.3255C67.3155 19.3102 66.9739 19.2569 66.6399 19.1655C66.0249 18.9904 65.4783 18.6934 64.9849 18.2898C65.2582 17.9242 65.5315 17.5587 65.8048 17.1932C66.1084 17.4292 66.4273 17.6196 66.7841 17.7491C67.0194 17.8405 67.2624 17.8938 67.5129 17.9242C67.7407 17.9547 67.976 17.9547 68.1962 17.9319C68.3556 17.909 68.5226 17.8709 68.6668 17.7948C68.7807 17.7415 68.887 17.6653 68.9629 17.5587C69.0312 17.4749 69.0692 17.3759 69.0844 17.2693C69.0996 17.1551 69.0692 17.0409 69.0085 16.9419C68.9401 16.8276 68.8339 16.7363 68.72 16.6677C68.5757 16.5763 68.4087 16.523 68.2417 16.4773C68.0443 16.4164 67.8393 16.3783 67.642 16.3326C67.065 16.2108 66.3969 16.0585 65.9186 15.6396C65.6909 15.4416 65.5239 15.1903 65.4252 14.901C65.3265 14.5811 65.3265 14.246 65.4176 13.9262C65.4859 13.6673 65.615 13.4312 65.782 13.2256C66.0173 12.9362 66.3134 12.7306 66.655 12.5935C66.9132 12.4869 67.1713 12.4184 67.4446 12.3879C67.7938 12.3422 68.1506 12.3498 68.4998 12.4031C69.1299 12.4945 69.7069 12.7382 70.2231 13.1114C69.965 13.4617 69.7069 13.8196 69.4564 14.1699C69.1223 13.949 68.7807 13.7967 68.4087 13.7206ZM55.7613 9.14355H54.2202V19.1348H55.7613V9.14355ZM63.7097 19.1351C63.7097 16.98 63.7097 14.8249 63.7097 12.6621C63.1934 12.6621 62.6848 12.6621 62.1686 12.6621C62.1686 13.081 62.1686 15.3046 62.1686 15.7158C62.1686 15.891 62.1686 16.0738 62.1534 16.2489C62.1458 16.3631 62.1306 16.4774 62.1154 16.5916C62.0775 16.8048 62.0091 17.0104 61.8877 17.1932C61.5992 17.6425 61.0981 17.8634 60.5895 17.871C60.0732 17.8786 59.5798 17.6654 59.2989 17.2008C59.185 17.0104 59.1243 16.8048 59.0787 16.5916C59.0256 16.3022 59.0104 16.0052 59.0028 15.7158C58.9952 15.5255 58.9952 15.3351 58.9952 15.1523C58.9952 14.8325 58.9952 14.5126 58.9952 14.1928C58.9952 13.6826 58.9952 13.1723 58.9952 12.6621C58.479 12.6621 57.9703 12.6621 57.4541 12.6621C57.4541 13.1876 57.4541 14.7563 57.4541 15.2818C57.4541 15.5331 57.4541 15.7844 57.4693 16.0357C57.4769 16.2185 57.4845 16.4012 57.4997 16.5916C57.5376 17.0257 57.6211 17.4521 57.8185 17.8557C58.2285 18.6782 59.018 19.1503 59.8986 19.257C60.3314 19.3103 60.7717 19.2722 61.1892 19.1427C61.5916 19.0209 62.0167 18.8077 62.3128 18.503C62.328 18.7087 62.3432 18.9219 62.3583 19.1275C62.8138 19.1351 63.2618 19.1351 63.7097 19.1351ZM45.2087 18.297C44.8595 17.9315 44.5027 17.566 44.1535 17.2081C43.8802 17.4594 43.5461 17.6345 43.1817 17.7183C42.8249 17.802 42.4378 17.7868 42.0885 17.6726C41.7317 17.5584 41.4281 17.3375 41.2155 17.0329C41.0029 16.7283 40.889 16.3628 40.8663 15.9972C40.8435 15.6317 40.9194 15.2509 41.0864 14.9235C41.2686 14.5808 41.5343 14.3447 41.8836 14.1924C42.0354 14.1239 42.1872 14.0858 42.3467 14.0553C42.5516 14.0172 42.7566 14.0172 42.9616 14.0401C43.3336 14.0858 43.6752 14.2229 43.9865 14.4209C44.2977 14.0249 44.6014 13.6365 44.9127 13.2405C44.3736 12.814 43.7739 12.5703 43.0982 12.5018C42.4454 12.4333 41.7621 12.5323 41.1623 12.8216C40.5474 13.111 40.0691 13.5756 39.7503 14.1772C39.439 14.7635 39.3024 15.4413 39.3327 16.1038C39.3631 16.7664 39.5605 17.4213 39.9477 17.9772C40.3349 18.5331 40.8815 18.9291 41.5192 19.1423C42.1417 19.3556 42.8325 19.3936 43.4778 19.2566C44.1459 19.1043 44.7456 18.7844 45.2087 18.297ZM52.4133 19.1351C52.4133 16.98 52.4133 14.8249 52.4133 12.6621C51.897 12.6621 51.3884 12.6621 50.8722 12.6621C50.8722 13.081 50.8722 15.3046 50.8722 15.7158C50.8722 15.891 50.8722 16.0738 50.857 16.2489C50.8494 16.3631 50.8342 16.4774 50.819 16.5916C50.7811 16.8048 50.7127 17.0104 50.5913 17.1932C50.3028 17.6425 49.8017 17.8634 49.2931 17.871C48.7769 17.8786 48.2834 17.6654 48.0025 17.2008C47.8886 17.0104 47.8279 16.8048 47.7823 16.5916C47.7292 16.3022 47.714 16.0052 47.7064 15.7158C47.6988 15.5255 47.6988 15.3351 47.6988 15.1523C47.6988 14.8325 47.6988 14.5126 47.6988 14.1928C47.6988 13.6826 47.6988 13.1723 47.6988 12.6621C47.1826 12.6621 46.674 12.6621 46.1577 12.6621C46.1577 13.1876 46.1577 14.7563 46.1577 15.2818C46.1577 15.5331 46.1577 15.7844 46.1729 16.0357C46.1805 16.2185 46.1881 16.4012 46.2033 16.5916C46.2412 17.0257 46.3247 17.4521 46.5221 17.8557C46.9321 18.6782 47.7216 19.1503 48.6022 19.257C49.035 19.3103 49.4753 19.2722 49.8928 19.1427C50.2952 19.0209 50.7203 18.8077 51.0164 18.503C51.0316 18.7087 51.0468 18.9219 51.062 19.1275C51.5099 19.1351 51.9654 19.1351 52.4133 19.1351ZM38.2091 15.906C38.2091 16.797 37.8826 17.6728 37.2449 18.3125C36.6148 18.9522 35.7418 19.2872 34.8535 19.2872C33.9653 19.2872 33.0923 18.9446 32.4621 18.2973C31.832 17.6499 31.5132 16.7742 31.5132 15.8832C31.5132 14.9922 31.8396 14.1164 32.4773 13.4768C33.1074 12.8371 33.9805 12.502 34.8687 12.502C35.7569 12.502 36.63 12.8447 37.2525 13.492C37.8902 14.1393 38.2091 15.0151 38.2091 15.906ZM36.6985 15.8986C36.6985 15.7691 36.6909 15.6396 36.6606 15.5102C36.6378 15.3883 36.6074 15.2589 36.5543 15.1446C36.5087 15.0304 36.4556 14.9238 36.3949 14.8248C36.3341 14.7258 36.2582 14.6344 36.1823 14.5506C36.0988 14.4669 36.0153 14.3907 35.9166 14.3298C35.8179 14.2613 35.7116 14.208 35.6053 14.1623C35.4915 14.1166 35.37 14.0785 35.2485 14.0557C35.127 14.0328 34.998 14.0176 34.8689 14.0176C34.7399 14.0176 34.6184 14.0252 34.4893 14.0557C34.3679 14.0785 34.2464 14.1166 34.1325 14.1623C34.0263 14.208 33.92 14.2613 33.8213 14.3298C33.7226 14.3907 33.6391 14.4669 33.5556 14.5506C33.4721 14.6268 33.4037 14.7182 33.3354 14.8096C33.2747 14.9162 33.2215 15.0228 33.176 15.1294C33.1304 15.2436 33.0925 15.3731 33.0697 15.4949C33.0469 15.6244 33.0317 15.7539 33.0317 15.8833C33.0317 16.0128 33.0393 16.1422 33.0697 16.2717C33.0925 16.3936 33.1228 16.523 33.176 16.6372C33.2215 16.7515 33.2747 16.8581 33.3354 16.9571C33.3961 17.0561 33.4721 17.1475 33.548 17.2312C33.6315 17.315 33.715 17.3912 33.8137 17.4521C33.9124 17.5206 34.0187 17.5739 34.1249 17.6196C34.2388 17.6653 34.3603 17.7034 34.4818 17.7262C34.6032 17.7491 34.7323 17.7643 34.8613 17.7643C34.9904 17.7643 35.1119 17.7567 35.2409 17.7262C35.3624 17.7034 35.4839 17.6653 35.5977 17.6196C35.7116 17.5739 35.8103 17.5206 35.909 17.4521C36.0077 17.3912 36.0912 17.315 36.1747 17.2312C36.2582 17.1475 36.3265 17.0561 36.3949 16.9647C36.4632 16.8657 36.5163 16.7591 36.5619 16.6449C36.6074 16.5306 36.6454 16.4012 36.6682 16.2793C36.6833 16.1651 36.6985 16.0356 36.6985 15.8986ZM25.1437 15.7842C25.1437 18.0764 24.1037 20.2392 22.3272 21.6784C21.439 22.3943 20.4293 22.8817 19.3285 23.1482C18.6984 23.3005 18.0683 23.369 17.4154 23.3919C16.9371 23.4071 16.4588 23.3995 15.9805 23.3995C13.7106 23.3995 11.4407 23.3995 9.17078 23.3995C8.69251 23.3995 8.21423 23.4071 7.73595 23.3919C7.09066 23.369 6.46054 23.3005 5.82284 23.1482C4.72204 22.8817 3.70475 22.3867 2.82412 21.6784C1.04006 20.2392 0 18.0764 0 15.7842C0 13.492 1.04006 11.3292 2.81652 9.88995C3.70475 9.17412 4.71445 8.68674 5.81525 8.4202C6.44536 8.26789 7.07547 8.19936 7.72836 8.17651C8.20664 8.16128 8.68491 8.1689 9.16319 8.1689C11.4331 8.1689 13.703 8.1689 15.973 8.1689C16.4512 8.1689 16.9295 8.16128 17.4078 8.17651C18.0531 8.19936 18.6832 8.26789 19.3209 8.4202C20.4217 8.68674 21.439 9.18173 22.3196 9.88995C24.1113 11.3292 25.1437 13.492 25.1437 15.7842ZM20.0799 15.7844C20.0799 14.962 19.6775 14.2004 19.0019 13.7359C18.6678 13.4998 18.2958 13.3627 17.8935 13.3018C17.4911 13.2333 17.0963 13.2485 16.694 13.2485C13.9458 13.2485 11.1976 13.2485 8.44938 13.2485C8.04702 13.2485 7.65225 13.2333 7.24989 13.3018C6.84753 13.3627 6.47553 13.4998 6.1415 13.7359C5.47343 14.2004 5.06348 14.962 5.06348 15.7844C5.06348 16.6069 5.46584 17.3684 6.1415 17.8329C6.47553 18.069 6.84753 18.2061 7.24989 18.267C7.65225 18.3355 8.04702 18.3203 8.44938 18.3203C11.1976 18.3203 13.9458 18.3203 16.694 18.3203C17.0963 18.3203 17.4911 18.3355 17.8935 18.267C18.2958 18.1985 18.6678 18.0614 19.0019 17.8329C19.6775 17.3684 20.0799 16.6069 20.0799 15.7844Z" fill="white"/>
<path opacity="0.3" d="M74 32.0617L106.062 0" stroke="#979797"/>
<path opacity="0.3" d="M170 32.0617L202.062 0" stroke="#979797"/>
<path fill-rule="evenodd" clip-rule="evenodd" d="M121.462 19.8013L114.936 8.57228C114.734 8.21654 114.353 8 113.941 8H111.669C111.265 8 110.884 8.21654 110.682 8.57228L104.156 19.8013C103.953 20.157 103.953 20.5901 104.156 20.9458L105.291 22.8946C105.493 23.2504 105.875 23.4669 106.279 23.4669H119.331C119.743 23.4669 120.117 23.2504 120.327 22.8946L121.462 20.9458C121.665 20.5901 121.665 20.157 121.462 19.8013ZM115.916 20.8915C114.936 21.2008 113.886 21.3632 112.805 21.3632C111.724 21.3632 110.674 21.2008 109.694 20.8915C108.542 20.528 107.835 19.3757 108.083 18.2002C108.535 16.0658 109.647 14.1788 111.203 12.7559C112.113 11.9284 113.497 11.9284 114.407 12.7559C115.963 14.1788 117.083 16.0658 117.526 18.2002C117.775 19.368 117.067 20.528 115.916 20.8915Z" fill="white"/>
<path fill-rule="evenodd" clip-rule="evenodd" d="M168.848 11.1167H169.183V11.1708H169.05V11.5034H168.988V11.1708H168.848V11.1167ZM169.245 11.1167H169.331L169.463 11.4183L169.595 11.1167H169.681V11.5034H169.618V11.2018L169.486 11.5034H169.432L169.3 11.2018V11.5034H169.237V11.1167H169.245Z" fill="white"/>
<path fill-rule="evenodd" clip-rule="evenodd" d="M161.84 11.341C161.925 11.2018 162.073 11.1167 162.236 11.1167H167.93C168.093 11.1167 168.241 11.2018 168.319 11.341L168.724 12.0292C168.778 12.1298 168.809 12.238 168.809 12.3541V12.5242C168.809 12.6634 168.692 12.7794 168.552 12.7794H163.364C163.263 12.7794 163.178 12.8645 163.178 12.965V14.7514C163.178 14.852 163.263 14.937 163.364 14.937H166.88C167.051 14.937 167.191 15.0762 167.191 15.2464V16.2749C167.191 16.445 167.051 16.5843 166.88 16.5843H163.364C163.263 16.5843 163.178 16.6693 163.178 16.7699V18.6104C163.178 18.711 163.263 18.796 163.364 18.796H168.552C168.692 18.796 168.809 18.912 168.809 19.0512V19.2214C168.809 19.3374 168.778 19.4456 168.724 19.5462L168.319 20.2344C168.241 20.3736 168.093 20.4587 167.93 20.4587H162.236C162.073 20.4587 161.917 20.3736 161.84 20.2267L161.443 19.5462C161.389 19.4456 161.357 19.3374 161.357 19.2214V12.3309C161.357 12.2148 161.389 12.1066 161.443 12.006L161.84 11.341Z" fill="white"/>
<path fill-rule="evenodd" clip-rule="evenodd" d="M157.406 12.4855L153.431 20.2654C153.369 20.3891 153.237 20.4664 153.097 20.4664H151.782C151.642 20.4664 151.51 20.3891 151.448 20.2654L147.473 12.4855C147.403 12.3541 147.411 12.1994 147.481 12.0756L147.909 11.3487C147.994 11.2095 148.142 11.1167 148.305 11.1167H148.694C148.795 11.1167 148.889 11.1708 148.928 11.2636L152.272 17.8757C152.342 18.0149 152.545 18.0149 152.615 17.8757L155.951 11.2636C155.998 11.1708 156.092 11.1167 156.193 11.1167H156.574C156.737 11.1167 156.893 11.2018 156.97 11.3487L157.398 12.0834C157.468 12.1994 157.476 12.3541 157.406 12.4855Z" fill="white"/>
<path fill-rule="evenodd" clip-rule="evenodd" d="M143.405 11.225C143.335 11.1554 143.242 11.1167 143.133 11.1167H142.534C142.37 11.1167 142.215 11.2018 142.137 11.3487L141.725 12.0756C141.686 12.1452 141.67 12.2148 141.67 12.2922V20.0875C141.67 20.2963 141.842 20.4664 142.052 20.4664H143.148C143.358 20.4664 143.529 20.2963 143.529 20.0875V11.4956C143.522 11.3874 143.475 11.2946 143.405 11.225Z" fill="white"/>
<path fill-rule="evenodd" clip-rule="evenodd" d="M137.711 12.4854L133.736 20.2653C133.674 20.389 133.542 20.4664 133.402 20.4664H132.087C131.947 20.4664 131.815 20.389 131.753 20.2653L127.778 12.4854C127.708 12.354 127.716 12.1993 127.786 12.0756L128.214 11.3409C128.299 11.2017 128.447 11.1089 128.611 11.1089H128.999C129.101 11.1089 129.194 11.163 129.233 11.2558L132.578 17.8679C132.648 18.0071 132.85 18.0071 132.92 17.8679L136.257 11.2558C136.303 11.163 136.397 11.1089 136.498 11.1089H136.879C137.042 11.1089 137.198 11.194 137.276 11.3409L137.703 12.0756C137.773 12.1993 137.781 12.354 137.711 12.4854Z" fill="white"/>
<path fill-rule="evenodd" clip-rule="evenodd" d="M225.598 5.3999L216.213 6.76541V13.6132H225.598V5.3999ZM208 7.89201L208.006 13.6134H215.04V6.93604L208 7.89201ZM225.6 14.7866L225.598 22.9999L216.213 21.6796V14.7866H225.6ZM208.006 20.566L215.04 21.5302V14.7866H208.005L208.006 20.566Z" fill="white"/>
<path fill-rule="evenodd" clip-rule="evenodd" d="M237.51 7.5605L237.416 7.88514L237.174 8.716C237.073 9.05487 236.97 9.41465 236.859 9.79536C236.75 10.1752 236.645 10.535 236.545 10.8739L236.303 11.7047L236.208 12.0285H235.541L234 6.36902H234.737L235.863 10.9693H235.91L237.177 6.36902H237.891L239.157 10.9693H239.204L240.331 6.36902H241.068L239.526 12.0285H238.86L237.558 7.5605H237.51ZM241.91 12.0285V7.80064H242.585V12.0285H241.91ZM242.247 6.94133C242.186 6.94207 242.124 6.93012 242.067 6.90623C242.01 6.88234 241.959 6.84702 241.916 6.80244C241.871 6.75971 241.836 6.70826 241.812 6.65127C241.788 6.59427 241.776 6.53295 241.776 6.4711C241.775 6.40883 241.787 6.34702 241.811 6.28957C241.835 6.23212 241.871 6.18026 241.916 6.13725C241.959 6.09317 242.011 6.05829 242.068 6.0347C242.125 6.01112 242.186 5.99932 242.247 6.00003C242.378 6.00003 242.489 6.04605 242.58 6.13725C242.673 6.22929 242.718 6.34057 242.718 6.4711C242.718 6.53274 242.707 6.59387 242.683 6.65082C242.659 6.70777 242.625 6.75935 242.58 6.80244C242.538 6.84726 242.486 6.88274 242.428 6.90664C242.371 6.93054 242.31 6.94235 242.247 6.94133ZM243.709 12.0285V7.80064H244.353V8.4675H244.415C244.523 8.23489 244.681 8.05249 244.888 7.92196C245.096 7.79143 245.362 7.72617 245.686 7.72617C246.162 7.72617 246.527 7.86172 246.782 8.13197C247.038 8.40223 247.165 8.78879 247.165 9.29082V12.0285H246.49V9.45565C246.49 9.07411 246.408 8.7913 246.245 8.60806C246.082 8.42566 245.831 8.33362 245.494 8.33362C245.157 8.33362 244.887 8.43988 244.686 8.65157C244.485 8.86326 244.384 9.15527 244.384 9.52594V12.0285H243.709ZM249.8 12.1038C249.258 12.1038 248.827 11.9047 248.505 11.5073C248.184 11.1098 248.023 10.5785 248.023 9.91417C248.023 9.25066 248.185 8.71935 248.509 8.32191C248.833 7.92447 249.263 7.72617 249.8 7.72617C250.095 7.72617 250.36 7.79143 250.595 7.92196C250.828 8.05249 251.005 8.23489 251.125 8.4675H251.184V6.12135H251.859V12.0285H251.215V11.3542H251.153C251.019 11.5893 250.834 11.7725 250.596 11.9047C250.352 12.0384 250.078 12.1067 249.8 12.103L249.8 12.1038ZM249.957 8.33362C249.572 8.33362 249.271 8.47419 249.051 8.75532C248.831 9.03646 248.721 9.42302 248.721 9.91417C248.721 10.4087 248.83 10.7961 249.048 11.0755C249.267 11.355 249.57 11.4947 249.957 11.4947C250.341 11.4947 250.644 11.3542 250.866 11.0713C251.089 10.7894 251.2 10.4036 251.2 9.91417C251.2 9.43055 251.088 9.0465 250.865 8.76118C250.641 8.4767 250.338 8.33446 249.957 8.33446V8.33362ZM254.745 12.103C254.143 12.103 253.668 11.9072 253.319 11.5173C252.97 11.1257 252.795 10.5919 252.795 9.91417C252.795 9.23476 252.97 8.7001 253.319 8.31019C253.668 7.92112 254.143 7.72617 254.745 7.72617C255.346 7.72617 255.821 7.92112 256.17 8.31019C256.519 8.7001 256.694 9.23476 256.694 9.91417C256.694 10.5919 256.519 11.1257 256.17 11.5165C255.821 11.9072 255.346 12.103 254.745 12.103ZM254.745 11.4947C255.145 11.4947 255.453 11.3567 255.67 11.0797C255.888 10.8019 255.996 10.4137 255.996 9.91417C255.996 9.41214 255.888 9.02391 255.67 8.74779C255.452 8.47168 255.145 8.33362 254.745 8.33362C254.345 8.33362 254.036 8.47168 253.819 8.74779C253.602 9.02391 253.493 9.41214 253.493 9.91417C253.493 10.4137 253.602 10.8019 253.819 11.0797C254.037 11.3558 254.345 11.4947 254.745 11.4947ZM262.752 7.80064L262.633 8.22736L262.337 9.28496L261.984 10.5442L261.688 11.601L261.568 12.0285H260.882L259.936 8.757H259.874L258.932 12.0285H258.25L257.066 7.80064H257.748L258.579 11.181H258.642L259.588 7.80064H260.234L261.18 11.181H261.243L262.074 7.80064H262.752ZM263.277 8.95781C263.277 8.60639 263.428 8.31354 263.728 8.07926C264.03 7.84331 264.404 7.72617 264.854 7.72617C265.299 7.72617 265.664 7.82825 265.95 8.03157C266.237 8.23573 266.402 8.51184 266.446 8.85991H265.78C265.735 8.6891 265.625 8.5426 265.474 8.4516C265.315 8.34952 265.106 8.29848 264.85 8.29848C264.599 8.29848 264.388 8.35705 264.215 8.47335C264.042 8.58966 263.955 8.7411 263.955 8.9302C263.955 9.07411 264.016 9.19376 264.137 9.28915C264.256 9.38453 264.441 9.46235 264.689 9.52259L265.341 9.67905C265.738 9.77611 266.034 9.91501 266.228 10.0974C266.423 10.279 266.521 10.5208 266.521 10.8245C266.521 11.2035 266.359 11.5115 266.034 11.7482C265.711 11.985 265.308 12.103 264.827 12.103C264.356 12.103 263.97 11.9984 263.67 11.7892C263.528 11.6966 263.408 11.573 263.321 11.4276C263.233 11.2823 263.179 11.119 263.164 10.95H263.858C263.916 11.128 264.035 11.2792 264.195 11.3759C264.363 11.4813 264.58 11.5349 264.85 11.5349C265.135 11.5349 265.369 11.473 265.552 11.3508C265.735 11.227 265.827 11.0688 265.827 10.8756C265.828 10.8059 265.814 10.7368 265.785 10.6734C265.756 10.61 265.713 10.5539 265.66 10.5091C265.549 10.4103 265.381 10.3342 265.156 10.279L264.43 10.1033C264.035 10.0062 263.744 9.86731 263.558 9.68742C263.371 9.50669 263.277 9.26321 263.277 8.95781ZM239.946 21.3997H239.287V17.0773H239.24L237.456 21.3612H236.859L235.075 17.0773H235.028V21.3997H234.369V15.7402H235.189L237.126 20.4233H237.189L239.127 15.7402H239.947V21.3997H239.946ZM241.157 21.3997V17.1718H241.832V21.3997H241.157ZM241.494 16.3125C241.433 16.3132 241.371 16.3013 241.314 16.2774C241.257 16.2535 241.206 16.2182 241.163 16.1736C241.118 16.1309 241.083 16.0794 241.059 16.0224C241.035 15.9655 241.023 15.9041 241.023 15.8423C241.022 15.78 241.034 15.7182 241.058 15.6608C241.082 15.6033 241.118 15.5514 241.163 15.5084C241.206 15.4644 241.258 15.4295 241.315 15.4059C241.372 15.3823 241.433 15.3705 241.494 15.3712C241.625 15.3712 241.736 15.4172 241.827 15.5084C241.919 15.6005 241.965 15.7118 241.965 15.8423C241.965 15.9039 241.954 15.9651 241.93 16.022C241.906 16.079 241.872 16.1305 241.827 16.1736C241.784 16.2184 241.733 16.2539 241.675 16.2778C241.618 16.3017 241.557 16.3135 241.494 16.3125ZM244.455 19.8033H244.392L243.388 21.3997H242.623L244.071 19.2854L242.607 17.1718H243.411L244.415 18.7448H244.478L245.471 17.1718H246.235L244.8 19.2586L246.255 21.3997H245.455L244.455 19.8033ZM248.505 17.6931C248.168 17.6931 247.891 17.8069 247.674 18.0345C247.457 18.2621 247.336 18.5624 247.31 18.9364H249.639C249.631 18.5624 249.524 18.2621 249.318 18.0345C249.111 17.8069 248.841 17.6931 248.506 17.6931H248.505ZM249.619 20.3053H250.294C250.2 20.6574 249.98 20.9625 249.675 21.1621C249.363 21.3704 248.976 21.4742 248.514 21.4742C247.928 21.4742 247.464 21.2776 247.121 20.8843C246.778 20.4911 246.607 19.9589 246.607 19.2895C246.607 18.6252 246.78 18.0939 247.126 17.6956C247.47 17.2965 247.933 17.0973 248.514 17.0973C249.083 17.0973 249.532 17.2873 249.858 17.668C250.185 18.0487 250.349 18.5666 250.349 19.2226V19.482H247.31V19.5129C247.327 19.9313 247.446 20.2635 247.664 20.5086C247.882 20.7555 248.171 20.8785 248.529 20.8785C248.801 20.8785 249.028 20.8291 249.211 20.7312C249.395 20.6333 249.53 20.4911 249.619 20.3053ZM252.811 21.4742C252.27 21.4742 251.839 21.2759 251.517 20.8785C251.195 20.481 251.035 19.9497 251.035 19.2854C251.035 18.6218 251.196 18.0905 251.52 17.6931C251.845 17.2956 252.275 17.0973 252.811 17.0973C253.106 17.0973 253.372 17.1626 253.606 17.2931C253.839 17.4237 254.016 17.6061 254.136 17.8387H254.195V15.4925H254.87V21.3997H254.227V20.7253H254.164C254.03 20.9604 253.845 21.1437 253.608 21.2759C253.364 21.4096 253.089 21.4779 252.811 21.4742ZM252.968 17.7048C252.583 17.7048 252.282 17.8454 252.062 18.1265C251.842 18.4076 251.732 18.7942 251.732 19.2854C251.732 19.7798 251.841 20.1672 252.06 20.4467C252.278 20.7262 252.581 20.8659 252.968 20.8659C253.352 20.8659 253.655 20.7253 253.878 20.4425C254.1 20.1606 254.211 19.7748 254.211 19.2854C254.211 18.8017 254.1 18.4177 253.876 18.1324C253.653 17.8479 253.349 17.7056 252.968 17.7056V17.7048ZM258.916 16.3677V18.5323H260.309C260.672 18.5323 260.952 18.4394 261.15 18.252C261.347 18.0654 261.446 17.7977 261.446 17.4504C261.446 17.1099 261.342 16.8447 261.136 16.6539C260.93 16.4631 260.643 16.3677 260.277 16.3677H258.916ZM258.916 19.1598V21.3997H258.21V15.7402H260.372C260.918 15.7402 261.355 15.8942 261.683 16.2004C262.011 16.5083 262.175 16.9166 262.175 17.427C262.175 17.8211 262.075 18.1633 261.873 18.4503C261.673 18.7381 261.393 18.9381 261.038 19.0502L262.348 21.3997H261.52L260.309 19.1598H258.916ZM264.778 17.6931C264.441 17.6931 264.164 17.8069 263.947 18.0345C263.73 18.2621 263.609 18.5624 263.583 18.9364H265.912C265.904 18.5624 265.797 18.2621 265.591 18.0345C265.384 17.8069 265.114 17.6931 264.779 17.6931H264.778ZM265.892 20.3053H266.567C266.474 20.6574 266.253 20.9625 265.948 21.1621C265.636 21.3704 265.25 21.4742 264.787 21.4742C264.201 21.4742 263.737 21.2776 263.395 20.8843C263.052 20.4911 262.88 19.9589 262.88 19.2895C262.88 18.6252 263.053 18.0939 263.399 17.6956C263.743 17.2965 264.206 17.0973 264.787 17.0973C265.356 17.0973 265.805 17.2873 266.131 17.668C266.459 18.0487 266.622 18.5666 266.622 19.2226V19.482H263.583V19.5129C263.6 19.9313 263.719 20.2635 263.938 20.5086C264.155 20.7555 264.444 20.8785 264.802 20.8785C265.074 20.8785 265.301 20.8291 265.485 20.7312C265.668 20.6333 265.803 20.4911 265.892 20.3053ZM268.821 20.8826C269.17 20.8826 269.457 20.7806 269.687 20.5781C269.915 20.3756 270.03 20.1237 270.03 19.8234V19.4351L268.892 19.5096C268.275 19.5514 267.966 19.7815 267.966 20.1999C267.966 20.4141 268.048 20.5814 268.209 20.7019C268.372 20.8216 268.575 20.8818 268.821 20.8818V20.8826ZM268.696 21.4742C268.286 21.4742 267.945 21.3612 267.674 21.1353C267.404 20.9094 267.269 20.6023 267.269 20.2149C267.269 19.441 267.782 19.0243 268.81 18.9641L270.03 18.8896V18.5047C270.03 17.9667 269.711 17.6973 269.072 17.6973C268.819 17.6973 268.608 17.7433 268.441 17.8345C268.363 17.8735 268.295 17.9281 268.239 17.9949C268.184 18.0618 268.143 18.1393 268.119 18.2227H267.437C267.481 17.883 267.657 17.6103 267.962 17.4053C268.268 17.1994 268.647 17.0973 269.096 17.0973C269.611 17.0973 270.008 17.222 270.287 17.4714C270.565 17.7215 270.704 18.0654 270.704 18.5055V21.3997H270.061V20.7764H269.998C269.868 20.995 269.681 21.1738 269.457 21.2935C269.222 21.4162 268.961 21.4783 268.696 21.4742ZM271.829 21.3997V15.4925H272.504V21.3997H271.829ZM273.668 21.3997V17.1718H274.342V21.3997H273.668ZM274.005 16.3125C273.943 16.3132 273.882 16.3013 273.825 16.2774C273.768 16.2535 273.716 16.2182 273.674 16.1736C273.629 16.1309 273.593 16.0794 273.569 16.0224C273.545 15.9655 273.533 15.9041 273.534 15.8423C273.533 15.78 273.545 15.7182 273.569 15.6608C273.593 15.6033 273.629 15.5514 273.674 15.5084C273.717 15.4644 273.768 15.4295 273.825 15.4059C273.882 15.3823 273.943 15.3705 274.005 15.3712C274.135 15.3712 274.247 15.4172 274.338 15.5084C274.43 15.6005 274.475 15.7118 274.475 15.8423C274.476 15.9039 274.464 15.9651 274.44 16.022C274.417 16.079 274.382 16.1305 274.338 16.1736C274.295 16.2184 274.243 16.2539 274.186 16.2778C274.129 16.3017 274.067 16.3135 274.005 16.3125ZM275.749 16.0782H276.424V17.1718H277.365V17.7366H276.424V20.1296C276.424 20.3773 276.474 20.558 276.573 20.6701C276.672 20.7822 276.832 20.8391 277.051 20.8391C277.156 20.8398 277.261 20.8343 277.365 20.8224V21.3914C277.235 21.4174 277.102 21.4306 276.969 21.4307C276.534 21.4307 276.223 21.3437 276.034 21.168C275.844 20.9931 275.749 20.7044 275.749 20.3011V17.7366H275.067V17.1718H275.749V16.0774V16.0782ZM278.584 22.9292C278.517 22.9285 278.449 22.9252 278.382 22.9192C278.348 22.9156 278.315 22.9112 278.281 22.9058V22.3285C278.323 22.3368 278.37 22.3427 278.419 22.3452C278.47 22.3477 278.517 22.3486 278.564 22.3486C278.758 22.3486 278.914 22.2975 279.031 22.1938C279.148 22.0908 279.252 21.911 279.341 21.6549L279.419 21.4039L277.855 17.1718H278.584L279.745 20.6509H279.808L280.965 17.1718H281.683L280.032 21.6583C279.851 22.1503 279.658 22.4849 279.453 22.6623C279.248 22.8405 278.958 22.9301 278.584 22.9301V22.9292Z" fill="white"/>
</g>
<defs>
<clipPath id="clip0_8_1299">
<rect width="296" height="33" fill="white"/>
</clipPath>
</defs>
</svg>
