<svg width="66" height="16" viewBox="0 0 66 16" fill="none" xmlns="http://www.w3.org/2000/svg">
<path fill-rule="evenodd" clip-rule="evenodd" d="M17.4624 11.8013L10.9364 0.572276C10.7341 0.216537 10.353 0 9.94075 0H7.66947C7.265 0 6.88386 0.216537 6.68162 0.572276L0.155584 11.8013C-0.046653 12.157 -0.046653 12.5901 0.155584 12.9458L1.29122 14.8946C1.49346 15.2504 1.8746 15.4669 2.27907 15.4669H15.3311C15.7434 15.4669 16.1168 15.2504 16.3268 14.8946L17.4624 12.9458C17.6646 12.5901 17.6646 12.157 17.4624 11.8013ZM11.9163 12.8919C10.9362 13.2013 9.8861 13.3637 8.80491 13.3637C7.72372 13.3637 6.67364 13.2013 5.69357 12.8919C4.54238 12.5285 3.83455 11.3762 4.08345 10.2007C4.5346 8.06627 5.6469 6.17931 7.20257 4.75635C8.11264 3.92887 9.49718 3.92887 10.4073 4.75635C11.9629 6.17931 13.083 8.06627 13.5264 10.2007C13.7753 11.3685 13.0674 12.5285 11.9163 12.8919Z" fill="white"/>
<path fill-rule="evenodd" clip-rule="evenodd" d="M64.8481 3.11621H65.1826V3.17035H65.0504V3.50288H64.9882V3.17035H64.8481V3.11621ZM65.2451 3.11621H65.3306L65.4629 3.41782L65.5951 3.11621H65.6807V3.50288H65.6184V3.20128L65.4862 3.50288H65.4318L65.2995 3.20128V3.50288H65.2373V3.11621H65.2451Z" fill="white"/>
<path fill-rule="evenodd" clip-rule="evenodd" d="M57.8397 3.34048C57.9252 3.20128 58.073 3.11621 58.2364 3.11621H63.9301C64.0935 3.11621 64.2413 3.20128 64.319 3.34048L64.7235 4.02876C64.778 4.12929 64.8091 4.23756 64.8091 4.35356V4.5237C64.8091 4.6629 64.6924 4.7789 64.5524 4.7789H59.3642C59.2631 4.7789 59.1776 4.86397 59.1776 4.96451V6.75093C59.1776 6.85147 59.2631 6.93654 59.3642 6.93654H62.8801C63.0512 6.93654 63.1912 7.07574 63.1912 7.24587V8.27442C63.1912 8.44456 63.0512 8.58376 62.8801 8.58376H59.3642C59.2631 8.58376 59.1776 8.66883 59.1776 8.76937V10.6099C59.1776 10.7105 59.2631 10.7955 59.3642 10.7955H64.5524C64.6924 10.7955 64.8091 10.9115 64.8091 11.0507V11.2209C64.8091 11.3369 64.778 11.4451 64.7235 11.5457L64.319 12.234C64.2413 12.3732 64.0935 12.4582 63.9301 12.4582H58.2364C58.073 12.4582 57.9175 12.3732 57.8397 12.2262L57.443 11.5457C57.3885 11.4451 57.3574 11.3369 57.3574 11.2209V4.33036C57.3574 4.21436 57.3885 4.10609 57.443 4.00556L57.8397 3.34048Z" fill="white"/>
<path fill-rule="evenodd" clip-rule="evenodd" d="M53.406 4.48503L49.4313 12.2649C49.3691 12.3886 49.2369 12.466 49.0968 12.466H47.7823C47.6423 12.466 47.5101 12.3886 47.4478 12.2649L43.4731 4.48503C43.4031 4.35356 43.4109 4.19889 43.4809 4.07516L43.9087 3.34821C43.9942 3.20901 44.142 3.11621 44.3054 3.11621H44.6943C44.7954 3.11621 44.8888 3.17035 44.9276 3.26315L48.2723 9.87525C48.3423 10.0145 48.5446 10.0145 48.6146 9.87525L51.9515 3.26315C51.9982 3.17035 52.0915 3.11621 52.1926 3.11621H52.5738C52.7371 3.11621 52.8927 3.20128 52.9705 3.34821L53.3983 4.08289C53.4683 4.19889 53.4761 4.35356 53.406 4.48503Z" fill="white"/>
<path fill-rule="evenodd" clip-rule="evenodd" d="M39.405 3.22448C39.335 3.15488 39.2416 3.11621 39.1327 3.11621H38.5338C38.3705 3.11621 38.2149 3.20128 38.1371 3.34821L37.7249 4.07516C37.686 4.14476 37.6704 4.21436 37.6704 4.2917V12.087C37.6704 12.2958 37.8415 12.466 38.0515 12.466H39.1483C39.3583 12.466 39.5294 12.2958 39.5294 12.087V3.49515C39.5217 3.38688 39.475 3.29408 39.405 3.22448Z" fill="white"/>
<path fill-rule="evenodd" clip-rule="evenodd" d="M33.7112 4.48495L29.7365 12.2648C29.6743 12.3885 29.542 12.4659 29.402 12.4659H28.0875C27.9475 12.4659 27.8152 12.3885 27.753 12.2648L23.7783 4.48495C23.7083 4.35348 23.716 4.19882 23.786 4.07508L24.2139 3.3404C24.2994 3.2012 24.4472 3.1084 24.6106 3.1084H24.9995C25.1006 3.1084 25.1939 3.16253 25.2328 3.25533L28.5775 9.86744C28.6475 10.0066 28.8498 10.0066 28.9198 9.86744L32.2567 3.25533C32.3033 3.16253 32.3967 3.1084 32.4978 3.1084H32.8789C33.0423 3.1084 33.1979 3.19347 33.2756 3.3404L33.7034 4.07508C33.7734 4.19882 33.7812 4.35348 33.7112 4.48495Z" fill="white"/>
</svg>
