<svg width="82" height="22" viewBox="0 0 82 22" fill="none" xmlns="http://www.w3.org/2000/svg">
<path fill-rule="evenodd" clip-rule="evenodd" d="M25.0674 15.2833V6.00195H27.9439C29.3887 6.00195 30.5442 6.43208 31.4112 7.29193C32.2782 8.15178 32.7115 9.26854 32.7115 10.6426C32.7115 12.0167 32.2782 13.1335 31.4112 13.9933C30.5442 14.8536 29.3887 15.2833 27.9439 15.2833H25.0674ZM72.0967 8.9318H73.2526V9.8132H73.3051C73.489 9.51111 73.7711 9.25378 74.1524 9.04203C74.5332 8.83028 74.9115 8.72461 75.2881 8.72461C76.2866 8.72461 76.9647 9.13071 77.3241 9.9429C77.8493 9.13071 78.5979 8.72461 79.5699 8.72461C80.3316 8.72461 80.9051 8.96412 81.2906 9.44398C81.6756 9.92342 81.8683 10.574 81.8683 11.3949V15.2835H80.6599V11.5764C80.6599 10.937 80.5419 10.4833 80.3056 10.2151C80.0692 9.94746 79.7098 9.8132 79.2286 9.8132C78.7558 9.8132 78.3637 10.0121 78.053 10.4095C77.7418 10.8073 77.5869 11.2611 77.5869 11.7707V15.2835H76.3785V11.5764C76.3785 10.937 76.2601 10.4833 76.0237 10.2151C75.7873 9.94746 75.4283 9.8132 74.9468 9.8132C74.474 9.8132 74.0818 10.0121 73.7711 10.4095C73.4604 10.8073 73.3051 11.2611 73.3051 11.7707V15.2835H72.0967V8.9318ZM27.944 14.1423H26.2759V7.14258H27.944C29.0294 7.14258 29.8897 7.45171 30.5245 8.06955C31.1594 8.6874 31.4768 9.54518 31.4768 10.6425C31.4768 11.7489 31.1594 12.6083 30.5245 13.222C29.8897 13.8357 29.0294 14.1423 27.944 14.1423ZM36.2972 15.4911C35.4651 15.4911 34.7475 15.167 34.1433 14.5189C33.5391 13.8708 33.2368 13.0669 33.2368 12.1076C33.2368 11.1483 33.5391 10.3449 34.1433 9.69675C34.7475 9.04866 35.4651 8.72461 36.2972 8.72461C36.7872 8.72461 37.2273 8.82821 37.6173 9.03581C38.0065 9.243 38.2979 9.50241 38.4906 9.8132H38.5431V8.9318H39.699V15.2835H38.5431V14.4021H38.4906C38.2979 14.7133 38.0065 14.9723 37.6173 15.1799C37.2273 15.3871 36.7872 15.4911 36.2972 15.4911ZM37.9453 13.779C37.5464 14.1938 37.0627 14.4014 36.4938 14.4014C35.9333 14.4014 35.4517 14.1921 35.049 13.7728C34.6464 13.3538 34.4448 12.7986 34.4448 12.1069C34.4448 11.4158 34.6464 10.8605 35.049 10.4415C35.4517 10.0222 35.9333 9.8125 36.4938 9.8125C37.0627 9.8125 37.5464 10.0201 37.9453 10.4349C38.3433 10.8497 38.5428 11.407 38.5428 12.1069C38.5428 12.8068 38.3433 13.3642 37.9453 13.779ZM46.6399 8.93161L43.2906 16.5534C42.8266 17.6598 42.1305 18.2126 41.2026 18.2126C40.8956 18.2126 40.5984 18.1521 40.3095 18.0311L40.6114 16.9943C40.8037 17.0805 41.001 17.124 41.2026 17.124C41.4301 17.124 41.6161 17.0635 41.7606 16.9425C41.905 16.8211 42.0473 16.6139 42.1876 16.3201L42.8573 14.8813L40.2041 8.93161H41.5175L43.435 13.4944H43.4615L45.3265 8.93161H46.6399ZM47.4085 14.5184C48.0126 15.1665 48.7302 15.4905 49.5624 15.4905C50.0524 15.4905 50.4924 15.3865 50.8825 15.1793C51.2717 14.9717 51.5631 14.7127 51.7558 14.4015H51.8083V15.2829H52.9642V6.00195H51.7558V8.93123L51.8083 9.81263H51.7558C51.5631 9.50184 51.2717 9.24243 50.8825 9.03524C50.4924 8.82764 50.0524 8.72404 49.5624 8.72404C48.7302 8.72404 48.0126 9.04809 47.4085 9.69619C46.8043 10.3443 46.502 11.1478 46.502 12.1071C46.502 13.0664 46.8043 13.8703 47.4085 14.5184ZM49.7589 14.4014C50.3279 14.4014 50.8115 14.1938 51.2104 13.779C51.6085 13.3642 51.8079 12.8068 51.8079 12.1069C51.8079 11.407 51.6085 10.8497 51.2104 10.4349C50.8115 10.0201 50.3279 9.8125 49.7589 9.8125C49.1984 9.8125 48.7168 10.0222 48.3142 10.4415C47.9115 10.8605 47.71 11.4158 47.71 12.1069C47.71 12.7986 47.9115 13.3538 48.3142 13.7728C48.7168 14.1921 49.1984 14.4014 49.7589 14.4014ZM55.2853 9.96855V8.93176H54.1294V15.2834H55.3378V11.8092C55.3378 11.2308 55.5238 10.7745 55.8962 10.4418C56.2682 10.1094 56.7431 9.94286 57.3212 9.94286C57.4787 9.94286 57.6408 9.95156 57.807 9.96855V8.80206C57.6496 8.78507 57.5047 8.77637 57.3737 8.77637C56.9182 8.77637 56.5 8.88204 56.1192 9.09379C55.7383 9.30554 55.4776 9.59726 55.3378 9.96855H55.2853ZM61.0842 15.4911C60.1122 15.4911 59.322 15.1716 58.7136 14.5318C58.1048 13.8924 57.8008 13.0843 57.8008 12.1081C57.8008 11.1831 58.0964 10.3884 58.6871 9.72286C59.2783 9.05736 60.0332 8.72461 60.9527 8.72461C61.9071 8.72461 62.6713 9.03167 63.2448 9.64496C63.8179 10.2587 64.1051 11.0796 64.1051 12.1081L64.0917 12.3281H59.0092C59.044 12.9679 59.2607 13.4734 59.6591 13.8447C60.0576 14.2164 60.5236 14.4021 61.0577 14.4021C61.9247 14.4021 62.5113 14.0391 62.8178 13.3135L63.8948 13.754C63.6848 14.2467 63.3389 14.6594 62.8573 14.9922C62.3757 15.3245 61.7845 15.4911 61.0842 15.4911ZM62.312 10.3058C62.6227 10.6344 62.7911 10.98 62.8175 11.343H59.0874C59.21 10.8764 59.4355 10.5047 59.7638 10.2283C60.0922 9.95188 60.4797 9.81348 60.9264 9.81348C61.539 9.81348 62.0009 9.97757 62.312 10.3058ZM67.6376 15.4911C66.8054 15.4911 66.0878 15.167 65.4836 14.5189C64.8795 13.8708 64.5771 13.0669 64.5771 12.1076C64.5771 11.1483 64.8795 10.3449 65.4836 9.69675C66.0878 9.04866 66.8054 8.72461 67.6376 8.72461C68.1276 8.72461 68.5676 8.82821 68.9577 9.03581C69.3469 9.243 69.6383 9.50241 69.831 9.8132H69.8835V8.9318H71.0394V15.2835H69.8835V14.4021H69.831C69.6383 14.7133 69.3469 14.9723 68.9577 15.1799C68.5676 15.3871 68.1276 15.4911 67.6376 15.4911ZM69.2861 13.779C68.8872 14.1938 68.4035 14.4014 67.8346 14.4014C67.2741 14.4014 66.7925 14.1921 66.3898 13.7728C65.9872 13.3538 65.7856 12.7986 65.7856 12.1069C65.7856 11.4158 65.9872 10.8605 66.3898 10.4415C66.7925 10.0222 67.2741 9.8125 67.8346 9.8125C68.4035 9.8125 68.8872 10.0201 69.2861 10.4349C69.6841 10.8497 69.8836 11.407 69.8836 12.1069C69.8836 12.8068 69.6841 13.3642 69.2861 13.779Z" fill="white"/>
<path fill-rule="evenodd" clip-rule="evenodd" d="M14.3516 5.19037C13.8624 2.25351 10.9386 1.15818 9.10441 1.80844C8.08101 2.17126 7.24003 3.14085 7.38028 4.5594C8.42258 4.9649 9.89385 5.99466 10.7704 7.60241C10.0608 6.32693 8.95465 5.27736 7.5308 4.6513C7.47789 4.62768 7.40146 4.5973 7.34813 4.57616L7.79993 8.85812L7.79909 8.85808L7.34629 4.57812C4.55562 3.52802 2.07803 5.46467 1.72382 7.37968C1.5264 8.44698 1.97381 9.67577 3.2713 10.2638C1.0034 12.1582 1.455 15.2637 2.92932 16.522C3.75523 17.2269 5.03139 17.4127 6.18976 16.582C6.01477 15.4185 6.20518 13.5954 7.22275 12.005L7.25368 12.0186C6.43158 13.2912 6.03102 14.8136 6.19939 16.4003C6.20527 16.4571 6.21324 16.5134 6.22164 16.5698L6.25359 16.5472C6.7441 19.4823 9.65379 20.6823 11.4874 20.0323C12.5108 19.6695 13.3388 18.6588 13.1986 17.2402C12.1139 16.8157 10.5851 15.6922 9.75504 14.0669L9.75611 14.0661C10.4611 15.4054 11.596 16.5097 13.0722 17.1591C13.1256 17.1823 13.1789 17.2034 13.2322 17.2245L12.8023 12.9518C13.1681 12.9689 13.5355 12.9576 13.9008 12.9173C13.5479 12.9572 13.1814 12.9712 12.8053 12.9527L13.2334 17.2228C16.0241 18.2729 18.5089 16.3345 18.8631 14.4195C19.0601 13.3545 18.6068 12.1558 17.316 11.5663C19.5845 9.67197 19.1397 6.56603 17.6653 5.30767C16.8394 4.60278 15.5755 4.32282 14.4172 5.15355C14.4724 5.70989 14.5073 6.38978 14.3936 7.10566C14.254 7.98441 13.9452 8.91039 13.3803 9.80472L13.3494 9.7909C14.1719 8.51874 14.5724 6.9963 14.4041 5.40962C14.4014 5.38592 14.3989 5.34981 14.3961 5.3117V5.31168C14.3924 5.25851 14.3883 5.20142 14.3834 5.1686L14.3516 5.19037ZM3.30679 10.2382C3.32415 10.2246 3.34267 10.2103 3.36105 10.1963C3.34257 10.2102 3.32438 10.2241 3.3065 10.238L3.30679 10.2382ZM7.61683 8.85199C7.18737 8.84318 6.75635 8.87363 6.3297 8.94417C6.74791 8.87069 7.18087 8.83532 7.61683 8.85199ZM3.64144 9.99957C3.57681 10.0423 3.51268 10.0863 3.44909 10.1316C3.51037 10.0875 3.57454 10.0434 3.64144 9.99957Z" fill="white"/>
<path opacity="0.65" fill-rule="evenodd" clip-rule="evenodd" d="M7.7995 8.85521L7.34629 4.5713C4.55562 3.52119 2.07803 5.45784 1.72382 7.37285C1.52633 8.44055 1.97414 9.66986 3.27276 10.2577C4.19834 9.52423 5.98709 8.72462 7.7995 8.85521Z" fill="url(#paint0_radial_18_2723)"/>
<path opacity="0.65" fill-rule="evenodd" clip-rule="evenodd" d="M7.23574 11.977L3.30387 10.2291C0.999121 12.1208 1.44798 15.2499 2.92932 16.5142C3.75523 17.2191 5.03139 17.4049 6.18976 16.5742C6.01402 15.4058 6.2068 13.5721 7.23574 11.977Z" fill="url(#paint1_radial_18_2723)"/>
<path opacity="0.65" fill-rule="evenodd" clip-rule="evenodd" d="M9.73706 14.0245L6.25205 16.5311C6.73796 19.4729 9.65185 20.6762 11.4874 20.0255C12.5108 19.6626 13.3388 18.6519 13.1986 17.2334C12.1061 16.8057 10.5629 15.669 9.73706 14.0245Z" fill="url(#paint2_radial_18_2723)"/>
<path opacity="0.65" fill-rule="evenodd" clip-rule="evenodd" d="M12.8048 12.9449L13.2329 17.215C16.0236 18.2651 18.5084 16.3267 18.8626 14.4117C19.0601 13.344 18.604 12.1417 17.3054 11.5539C16.408 12.2811 14.7327 13.0397 12.8048 12.9449Z" fill="url(#paint3_radial_18_2723)"/>
<path opacity="0.65" fill-rule="evenodd" clip-rule="evenodd" d="M13.3662 9.81844L17.2834 11.585C19.5882 9.69331 19.1461 6.56412 17.6648 5.29986C16.8389 4.59498 15.575 4.31502 14.4167 5.14574C14.4719 5.70208 14.5068 6.38198 14.3931 7.09785C14.2524 7.98365 13.9398 8.91744 13.3662 9.81844Z" fill="url(#paint4_radial_18_2723)"/>
<path opacity="0.65" fill-rule="evenodd" clip-rule="evenodd" d="M10.8629 7.77085L14.3527 5.18919C13.8668 2.24735 10.94 1.14989 9.10441 1.80063C8.08101 2.16345 7.24003 3.13305 7.38028 4.55159C8.46018 4.97172 10.0006 6.06196 10.8629 7.77085Z" fill="url(#paint5_radial_18_2723)"/>
<defs>
<radialGradient id="paint0_radial_18_2723" cx="0" cy="0" r="1" gradientUnits="userSpaceOnUse" gradientTransform="translate(4.11182 10.8164) rotate(-103.263) scale(4.06349 4.14748)">
<stop/>
<stop offset="1" stop-color="white" stop-opacity="0.01"/>
</radialGradient>
<radialGradient id="paint1_radial_18_2723" cx="0" cy="0" r="1" gradientUnits="userSpaceOnUse" gradientTransform="translate(7.07902 16.1483) rotate(-163.308) scale(4.05323 4.15019)">
<stop/>
<stop offset="1" stop-color="white" stop-opacity="0.01"/>
</radialGradient>
<radialGradient id="paint2_radial_18_2723" cx="0" cy="0" r="1" gradientUnits="userSpaceOnUse" gradientTransform="translate(13.2684 16.2408) rotate(136.703) scale(4.05033 4.14394)">
<stop/>
<stop offset="1" stop-color="white" stop-opacity="0.01"/>
</radialGradient>
<radialGradient id="paint3_radial_18_2723" cx="0" cy="0" r="1" gradientUnits="userSpaceOnUse" gradientTransform="translate(16.4814 10.9976) rotate(76.7213) scale(4.04648 4.13478)">
<stop/>
<stop offset="1" stop-color="white" stop-opacity="0.01"/>
</radialGradient>
<radialGradient id="paint4_radial_18_2723" cx="0" cy="0" r="1" gradientUnits="userSpaceOnUse" gradientTransform="translate(13.4867 5.63637) rotate(16.7888) scale(4.07275 4.14199)">
<stop/>
<stop offset="1" stop-color="white" stop-opacity="0.01"/>
</radialGradient>
<radialGradient id="paint5_radial_18_2723" cx="0" cy="0" r="1" gradientUnits="userSpaceOnUse" gradientTransform="translate(7.32226 5.57377) rotate(-43.1517) scale(4.08087 4.13289)">
<stop/>
<stop offset="1" stop-color="white" stop-opacity="0.01"/>
</radialGradient>
</defs>
</svg>
