<svg width="71" height="16" viewBox="0 0 71 16" fill="none" xmlns="http://www.w3.org/2000/svg">
<path fill-rule="evenodd" clip-rule="evenodd" d="M68.4087 5.72059C68.1658 5.66728 67.9077 5.65205 67.6571 5.6749C67.5281 5.69013 67.4142 5.71298 67.2927 5.75867C67.2016 5.79674 67.1181 5.84244 67.0422 5.90336C66.9283 5.99474 66.8372 6.11659 66.8221 6.26128C66.8069 6.38312 66.8448 6.50497 66.9207 6.59635C67.0118 6.71058 67.1409 6.78673 67.27 6.84004C67.3914 6.89335 67.5129 6.93142 67.642 6.96188C67.7862 6.99996 67.938 7.03042 68.0823 7.0685C68.4239 7.14465 68.7579 7.22081 69.0768 7.35027C69.6538 7.57872 70.2004 7.95949 70.4205 8.59156C70.5192 8.86571 70.542 9.14748 70.504 9.43686C70.4585 9.77955 70.3218 10.107 70.1093 10.3812C69.9422 10.5944 69.7449 10.7695 69.5171 10.9066C69.2059 11.097 68.8566 11.2112 68.4998 11.2721C68.2189 11.3178 67.9456 11.3407 67.6647 11.3255C67.3155 11.3102 66.9739 11.2569 66.6399 11.1655C66.0249 10.9904 65.4783 10.6934 64.9849 10.2898C65.2582 9.92424 65.5315 9.5587 65.8048 9.19317C66.1084 9.42924 66.4273 9.61963 66.7841 9.74909C67.0194 9.84047 67.2624 9.89378 67.5129 9.92424C67.7407 9.9547 67.976 9.9547 68.1962 9.93185C68.3556 9.90901 68.5226 9.87093 68.6668 9.79478C68.7807 9.74147 68.887 9.66532 68.9629 9.5587C69.0312 9.47494 69.0692 9.37594 69.0844 9.26932C69.0996 9.15509 69.0692 9.04086 69.0085 8.94186C68.9401 8.82763 68.8339 8.73625 68.72 8.66771C68.5757 8.57633 68.4087 8.52302 68.2417 8.47733C68.0443 8.41641 67.8393 8.37833 67.642 8.33264C67.065 8.21079 66.3969 8.05849 65.9186 7.63965C65.6909 7.44165 65.5239 7.19034 65.4252 6.90096C65.3265 6.58112 65.3265 6.24605 65.4176 5.9262C65.4859 5.66728 65.615 5.43121 65.782 5.2256C66.0173 4.93621 66.3134 4.7306 66.655 4.59353C66.9132 4.48691 67.1713 4.41837 67.4446 4.38791C67.7938 4.34222 68.1506 4.34984 68.4998 4.40314C69.1299 4.49453 69.7069 4.73822 70.2231 5.11137C69.965 5.46167 69.7069 5.81959 69.4564 6.16989C69.1223 5.94905 68.7807 5.79674 68.4087 5.72059ZM55.7613 1.14355H54.2202V11.1348H55.7613V1.14355ZM63.7097 11.1351C63.7097 8.97999 63.7097 6.82486 63.7097 4.66211C63.1934 4.66211 62.6848 4.66211 62.1686 4.66211C62.1686 5.08095 62.1686 7.30462 62.1686 7.71585C62.1686 7.891 62.1686 8.07377 62.1534 8.24892C62.1458 8.36315 62.1306 8.47738 62.1154 8.59161C62.0775 8.80483 62.0091 9.01045 61.8877 9.19322C61.5992 9.64252 61.0981 9.86336 60.5895 9.87098C60.0732 9.87859 59.5798 9.66536 59.2989 9.20083C59.185 9.01045 59.1243 8.80483 59.0787 8.59161C59.0256 8.30222 59.0104 8.00523 59.0028 7.71585C58.9952 7.52546 58.9952 7.33508 58.9952 7.15231C58.9952 6.83247 58.9952 6.51263 58.9952 6.19279C58.9952 5.68256 58.9952 5.17233 58.9952 4.66211C58.479 4.66211 57.9703 4.66211 57.4541 4.66211C57.4541 5.18757 57.4541 6.75632 57.4541 7.28177C57.4541 7.53308 57.4541 7.78438 57.4693 8.03569C57.4769 8.21846 57.4845 8.40122 57.4997 8.59161C57.5376 9.02568 57.6211 9.45214 57.8185 9.85575C58.2285 10.6782 59.018 11.1503 59.8986 11.257C60.3314 11.3103 60.7717 11.2722 61.1892 11.1427C61.5916 11.0209 62.0167 10.8077 62.3128 10.503C62.328 10.7087 62.3432 10.9219 62.3583 11.1275C62.8138 11.1351 63.2618 11.1351 63.7097 11.1351ZM45.2087 10.297C44.8595 9.93151 44.5027 9.56597 44.1535 9.20805C43.8802 9.45936 43.5461 9.63451 43.1817 9.71828C42.8249 9.80205 42.4378 9.78681 42.0885 9.67259C41.7317 9.55836 41.4281 9.33751 41.2155 9.0329C41.0029 8.72829 40.889 8.36275 40.8663 7.99722C40.8435 7.63168 40.9194 7.25092 41.0864 6.92346C41.2686 6.58077 41.5343 6.3447 41.8836 6.19239C42.0354 6.12385 42.1872 6.08578 42.3467 6.05532C42.5516 6.01724 42.7566 6.01724 42.9616 6.04009C43.3336 6.08578 43.6752 6.22285 43.9865 6.42085C44.2977 6.02486 44.6014 5.63647 44.9127 5.24048C44.3736 4.81402 43.7739 4.57033 43.0982 4.50179C42.4454 4.43326 41.7621 4.53226 41.1623 4.82164C40.5474 5.11102 40.0691 5.57555 39.7503 6.17716C39.439 6.76354 39.3024 7.4413 39.3327 8.10383C39.3631 8.76636 39.5605 9.42128 39.9477 9.9772C40.3349 10.5331 40.8815 10.9291 41.5192 11.1423C42.1417 11.3556 42.8325 11.3936 43.4778 11.2566C44.1459 11.1043 44.7456 10.7844 45.2087 10.297ZM52.4133 11.1351C52.4133 8.97999 52.4133 6.82486 52.4133 4.66211C51.897 4.66211 51.3884 4.66211 50.8722 4.66211C50.8722 5.08095 50.8722 7.30462 50.8722 7.71585C50.8722 7.891 50.8722 8.07377 50.857 8.24892C50.8494 8.36315 50.8342 8.47738 50.819 8.59161C50.7811 8.80483 50.7127 9.01045 50.5913 9.19322C50.3028 9.64252 49.8017 9.86336 49.2931 9.87098C48.7769 9.87859 48.2834 9.66536 48.0025 9.20083C47.8886 9.01045 47.8279 8.80483 47.7823 8.59161C47.7292 8.30222 47.714 8.00523 47.7064 7.71585C47.6988 7.52546 47.6988 7.33508 47.6988 7.15231C47.6988 6.83247 47.6988 6.51263 47.6988 6.19279C47.6988 5.68256 47.6988 5.17233 47.6988 4.66211C47.1826 4.66211 46.674 4.66211 46.1577 4.66211C46.1577 5.18757 46.1577 6.75632 46.1577 7.28177C46.1577 7.53308 46.1577 7.78438 46.1729 8.03569C46.1805 8.21846 46.1881 8.40122 46.2033 8.59161C46.2412 9.02568 46.3247 9.45214 46.5221 9.85575C46.9321 10.6782 47.7216 11.1503 48.6022 11.257C49.035 11.3103 49.4753 11.2722 49.8928 11.1427C50.2952 11.0209 50.7203 10.8077 51.0164 10.503C51.0316 10.7087 51.0468 10.9219 51.062 11.1275C51.5099 11.1351 51.9654 11.1351 52.4133 11.1351ZM38.2091 7.90604C38.2091 8.79704 37.8826 9.6728 37.2449 10.3125C36.6148 10.9522 35.7418 11.2872 34.8535 11.2872C33.9653 11.2872 33.0923 10.9446 32.4621 10.2973C31.832 9.64995 31.5132 8.77419 31.5132 7.8832C31.5132 6.99221 31.8396 6.11645 32.4773 5.47676C33.1074 4.83708 33.9805 4.502 34.8687 4.502C35.7569 4.502 36.63 4.84469 37.2525 5.49199C37.8902 6.13929 38.2091 7.01505 38.2091 7.90604ZM36.6985 7.89856C36.6985 7.7691 36.6909 7.63964 36.6606 7.51018C36.6378 7.38833 36.6074 7.25887 36.5543 7.14464C36.5087 7.03041 36.4556 6.9238 36.3949 6.8248C36.3341 6.7258 36.2582 6.63442 36.1823 6.55065C36.0988 6.46688 36.0153 6.39073 35.9166 6.32981C35.8179 6.26127 35.7116 6.20796 35.6053 6.16227C35.4915 6.11658 35.37 6.0785 35.2485 6.05565C35.127 6.03281 34.998 6.01758 34.8689 6.01758C34.7399 6.01758 34.6184 6.02519 34.4893 6.05565C34.3679 6.0785 34.2464 6.11658 34.1325 6.16227C34.0263 6.20796 33.92 6.26127 33.8213 6.32981C33.7226 6.39073 33.6391 6.46688 33.5556 6.55065C33.4721 6.6268 33.4037 6.71819 33.3354 6.80957C33.2747 6.91618 33.2215 7.0228 33.176 7.12941C33.1304 7.24364 33.0925 7.3731 33.0697 7.49495C33.0469 7.62441 33.0317 7.75387 33.0317 7.88333C33.0317 8.01279 33.0393 8.14225 33.0697 8.27171C33.0925 8.39355 33.1228 8.52301 33.176 8.63724C33.2215 8.75147 33.2747 8.85809 33.3354 8.95709C33.3961 9.05608 33.4721 9.14747 33.548 9.23124C33.6315 9.315 33.715 9.39116 33.8137 9.45208C33.9124 9.52062 34.0187 9.57393 34.1249 9.61962C34.2388 9.66531 34.3603 9.70339 34.4818 9.72623C34.6032 9.74908 34.7323 9.76431 34.8613 9.76431C34.9904 9.76431 35.1119 9.75669 35.2409 9.72623C35.3624 9.70339 35.4839 9.66531 35.5977 9.61962C35.7116 9.57393 35.8103 9.52062 35.909 9.45208C36.0077 9.39116 36.0912 9.315 36.1747 9.23124C36.2582 9.14747 36.3265 9.05608 36.3949 8.9647C36.4632 8.8657 36.5163 8.75909 36.5619 8.64486C36.6074 8.53063 36.6454 8.40117 36.6682 8.27932C36.6833 8.16509 36.6985 8.03563 36.6985 7.89856ZM25.1437 7.7842C25.1437 10.0764 24.1037 12.2392 22.3272 13.6784C21.439 14.3943 20.4293 14.8817 19.3285 15.1482C18.6984 15.3005 18.0683 15.369 17.4154 15.3919C16.9371 15.4071 16.4588 15.3995 15.9805 15.3995C13.7106 15.3995 11.4407 15.3995 9.17078 15.3995C8.69251 15.3995 8.21423 15.4071 7.73595 15.3919C7.09066 15.369 6.46054 15.3005 5.82284 15.1482C4.72204 14.8817 3.70475 14.3867 2.82412 13.6784C1.04006 12.2392 0 10.0764 0 7.7842C0 5.49199 1.04006 3.32925 2.81652 1.88995C3.70475 1.17412 4.71445 0.686737 5.81525 0.420201C6.44536 0.267895 7.07547 0.199357 7.72836 0.176511C8.20664 0.161281 8.68491 0.168896 9.16319 0.168896C11.4331 0.168896 13.703 0.168896 15.973 0.168896C16.4512 0.168896 16.9295 0.161281 17.4078 0.176511C18.0531 0.199357 18.6832 0.267895 19.3209 0.420201C20.4217 0.686737 21.439 1.18173 22.3196 1.88995C24.1113 3.32925 25.1437 5.49199 25.1437 7.7842ZM20.0799 7.78441C20.0799 6.96196 19.6775 6.20043 19.0019 5.73589C18.6678 5.49982 18.2958 5.36274 17.8935 5.30182C17.4911 5.23328 17.0963 5.24851 16.694 5.24851C13.9458 5.24851 11.1976 5.24851 8.44938 5.24851C8.04702 5.24851 7.65225 5.23328 7.24989 5.30182C6.84753 5.36274 6.47553 5.49982 6.1415 5.73589C5.47343 6.20043 5.06348 6.96196 5.06348 7.78441C5.06348 8.60686 5.46584 9.36839 6.1415 9.83293C6.47553 10.069 6.84753 10.2061 7.24989 10.267C7.65225 10.3355 8.04702 10.3203 8.44938 10.3203C11.1976 10.3203 13.9458 10.3203 16.694 10.3203C17.0963 10.3203 17.4911 10.3355 17.8935 10.267C18.2958 10.1985 18.6678 10.0614 19.0019 9.83293C19.6775 9.36839 20.0799 8.60686 20.0799 7.78441Z" fill="white"/>
</svg>
