<svg width="100%" height="100%" viewBox="0 0 30 28" fill="none" xmlns="http://www.w3.org/2000/svg">
<path opacity="0.1" fill-rule="evenodd" clip-rule="evenodd" d="M28.151 0C29.2894 2.49574 29.9018 4.99999 29.988 7.51282C30.0743 10.0257 29.6948 12.4872 28.8496 14.8974C28.0043 17.3077 26.7365 19.6154 25.0461 21.8205C23.3556 24.0257 21.2857 26.0855 18.8363 28L15.8349 26.0513C15.3864 25.7094 15.1622 25.265 15.1622 24.7179C15.1622 24.4103 15.2484 24.1197 15.4209 23.8462C15.5934 23.5726 15.8867 23.1966 16.3006 22.7179C16.9906 21.9658 17.7065 21 18.4482 19.8205C19.1899 18.641 19.7936 17.3077 20.2594 15.8205C20.7251 14.3333 20.9494 12.718 20.9321 10.9744C20.9149 9.23076 20.475 7.41881 19.6125 5.53846C19.3365 4.92307 19.3624 4.34188 19.6902 3.79487C20.0179 3.24786 20.5612 2.83761 21.3202 2.5641L28.151 0ZM12.9888 0C14.1272 2.49574 14.7396 4.99999 14.8258 7.51282C14.9121 10.0257 14.5326 12.4872 13.6874 14.8974C12.8421 17.3077 11.5743 19.6154 9.88389 21.8205C8.19344 24.0257 6.12354 26.0855 3.67411 28L0.672726 26.0513C0.224239 25.7094 0 25.265 0 24.7179C0 24.4103 0.0862465 24.1197 0.258741 23.8462C0.431236 23.5726 0.724472 23.1966 1.13846 22.7179C1.82844 21.9658 2.54428 21 3.286 19.8205C4.02773 18.641 4.63145 17.3077 5.09719 15.8205C5.56292 14.3333 5.78716 12.718 5.76991 10.9744C5.75266 9.23076 5.31281 7.41881 4.45034 5.53846C4.17435 4.92307 4.20022 4.34188 4.52796 3.79487C4.8557 3.24786 5.39905 2.83761 6.15802 2.5641L12.9888 0Z" fill="#AFAFAF"/>
</svg>
