<svg width="100%" height="100%" viewBox="0 0 30 28" fill="none" xmlns="http://www.w3.org/2000/svg">
<path opacity="0.1" fill-rule="evenodd" clip-rule="evenodd" d="M1.84904 28C0.710573 25.5043 0.0982262 23 0.0119789 20.4872C-0.0742683 17.9743 0.305214 15.5128 1.15044 13.1026C1.99566 10.6923 3.26348 8.38463 4.95392 6.17949C6.64437 3.97435 8.71427 1.91454 11.1637 0L14.1651 1.94872C14.6136 2.2906 14.8378 2.73504 14.8378 3.28205C14.8378 3.58975 14.7516 3.88034 14.5791 4.15385C14.4066 4.42735 14.1133 4.80342 13.6994 5.28205C13.0094 6.03419 12.2935 6.99999 11.5518 8.17949C10.8101 9.35898 10.2064 10.6923 9.74062 12.1795C9.27489 13.6667 9.05065 15.282 9.0679 17.0256C9.08514 18.7692 9.525 20.5812 10.3875 22.4615C10.6635 23.0769 10.6376 23.6581 10.3098 24.2051C9.98211 24.7521 9.43876 25.1624 8.67978 25.4359L1.84904 28ZM17.0112 28C15.8728 25.5043 15.2604 23 15.1742 20.4872C15.0879 17.9743 15.4674 15.5128 16.3126 13.1026C17.1579 10.6923 18.4257 8.38463 20.1161 6.17949C21.8066 3.97435 23.8765 1.91454 26.3259 0L29.3273 1.94872C29.7758 2.2906 30 2.73504 30 3.28205C30 3.58975 29.9138 3.88034 29.7413 4.15385C29.5688 4.42735 29.2755 4.80342 28.8615 5.28205C28.1716 6.03419 27.4557 6.99999 26.714 8.17949C25.9723 9.35898 25.3685 10.6923 24.9028 12.1795C24.4371 13.6667 24.2128 15.282 24.2301 17.0256C24.2473 18.7692 24.6872 20.5812 25.5497 22.4615C25.8257 23.0769 25.7998 23.6581 25.472 24.2051C25.1443 24.7521 24.601 25.1624 23.842 25.4359L17.0112 28Z" fill="#AFAFAF"/>
</svg>
