<svg width="20" height="18" viewBox="0 0 20 18" fill="none" xmlns="http://www.w3.org/2000/svg">
<path fill-rule="evenodd" clip-rule="evenodd" d="M19.9865 8.13374C19.9865 6.72941 18.8627 5.59102 17.4766 5.59102C16.7823 5.59102 16.1552 5.87775 15.7009 6.33934C14.2973 5.42224 12.5042 4.8378 10.5348 4.74663C10.536 3.8995 10.9105 3.1098 11.5629 2.5796C12.2164 2.04851 13.0605 1.84962 13.878 2.03357L13.9903 2.05883C13.9898 2.06998 13.9891 2.08104 13.9884 2.09209V2.09211V2.09212V2.09214C13.9872 2.10935 13.986 2.12655 13.986 2.14407C13.986 3.31633 14.9241 4.26666 16.0812 4.26666C17.2383 4.26666 18.1764 3.31633 18.1764 2.14407C18.1764 0.971762 17.2383 0.0214844 16.0812 0.0214844C15.3372 0.0214844 14.6854 0.415505 14.3137 1.00767L14.1129 0.962479C12.9729 0.705861 11.7963 0.983306 10.8852 1.72376C9.97526 2.46331 9.45302 3.56494 9.45181 4.74663C7.48288 4.83776 5.69005 5.42191 4.2866 6.33859C3.83233 5.8769 3.20423 5.59098 2.50986 5.59098C1.12372 5.59102 0 6.72941 0 8.13374C0 9.11219 0.546512 9.95989 1.34633 10.385C1.28558 10.6997 1.25363 11.0216 1.25363 11.3491C1.25363 15.0028 5.16646 17.9646 9.99321 17.9646C14.82 17.9646 18.7328 15.0028 18.7328 11.3491C18.7328 11.0217 18.7008 10.7001 18.6402 10.3854C19.44 9.96027 19.9865 9.11229 19.9865 8.13374ZM16.081 1.11868C16.6392 1.11868 17.0932 1.57867 17.0932 2.14412C17.0932 2.70952 16.6392 3.1695 16.081 3.1695C15.5229 3.1695 15.0688 2.70952 15.0688 2.14412C15.0688 1.57867 15.5229 1.11868 16.081 1.11868ZM2.50986 6.68818C1.72307 6.68818 1.08298 7.33665 1.08298 8.13374C1.08298 8.61672 1.31856 9.04405 1.67893 9.30628C2.04586 8.44996 2.63684 7.67007 3.40019 7.00662C3.15614 6.80777 2.84684 6.68818 2.50986 6.68818ZM15.5246 15.148C14.0599 16.2568 12.0954 16.8674 9.99303 16.8674C7.89071 16.8674 5.92619 16.2568 4.46145 15.148C3.09112 14.1108 2.33643 12.7616 2.33643 11.3491C2.33643 9.93662 3.09112 8.58746 4.46145 7.5502C5.92619 6.44146 7.89071 5.83083 9.99303 5.83083C12.0954 5.83083 14.0599 6.44146 15.5246 7.5502C16.8949 8.58746 17.6496 9.93662 17.6496 11.3491C17.6496 12.7616 16.8949 14.1108 15.5246 15.148ZM16.5859 7.00642C17.3491 7.66978 17.9401 8.44944 18.3071 9.30562C18.6675 9.04349 18.9033 8.61667 18.9034 8.13373C18.9034 7.33664 18.2633 6.68817 17.4765 6.68817C17.1395 6.68817 16.83 6.80757 16.5859 7.00642Z" fill="#AFAFAF"/>
<ellipse cx="6.80099" cy="9.80423" rx="1.14279" ry="1.15775" fill="#AFAFAF"/>
<ellipse cx="13.1848" cy="9.80423" rx="1.14279" ry="1.15775" fill="#AFAFAF"/>
<path d="M12.7013 12.6174C11.8957 13.361 10.8514 13.7705 9.76061 13.7705C8.53587 13.7705 7.40112 13.2704 6.56545 12.3625C6.36154 12.1408 6.01889 12.1288 5.80015 12.3354C5.5814 12.542 5.56945 12.8891 5.7734 13.1107C6.80108 14.2272 8.25438 14.8676 9.76066 14.8676C11.1219 14.8676 12.4252 14.3565 13.4307 13.4284C13.6517 13.2244 13.6677 12.8774 13.4662 12.6534C13.2649 12.4297 12.9226 12.4133 12.7013 12.6174Z" fill="#AFAFAF"/>
</svg>
