<svg width="186" height="34" viewBox="0 0 186 34" fill="none" xmlns="http://www.w3.org/2000/svg">
<path opacity="0.3" d="M72 33.0617L104.062 1" stroke="#979797"/>
<path fill-rule="evenodd" clip-rule="evenodd" d="M6.40233 24.9058C10.5276 24.9058 12.6641 22.165 12.4603 17.9997H6.10013V20.2586H9.7827C9.49456 21.5391 8.2647 22.611 6.38124 22.611C4.11829 22.611 2.60029 20.7981 2.60029 18.4457C2.60029 16.0933 4.11829 14.338 6.36016 14.338C7.75167 14.338 9.24859 15.007 9.95137 16.5178L11.9473 15.2085C10.7174 13.1151 8.5177 12 6.36719 12C2.82518 12 0 14.7193 0 18.4457C0 22.165 2.69868 24.9058 6.40233 24.9058Z" fill="white"/>
<path fill-rule="evenodd" clip-rule="evenodd" d="M15.7916 20.6473H23.473C23.6346 17.223 21.7934 14.7627 18.5395 14.7627C15.6721 14.7627 13.4443 16.9496 13.4443 19.856C13.4443 22.7911 15.5597 24.9492 18.8347 24.9492C20.7462 24.9492 21.8777 23.6256 22.7632 22.5033L21.1187 21.5178C20.6408 22.2443 20.0645 22.9709 18.8136 22.9709C17.0637 22.9709 16.0657 22.0645 15.7916 20.6473ZM15.7915 19.014C16.0656 17.5464 17.0846 16.7119 18.5675 16.7119C20.1558 16.7119 20.9569 17.6903 21.1607 19.014H15.7915Z" fill="white"/>
<path fill-rule="evenodd" clip-rule="evenodd" d="M28.4065 24.9486C29.9948 24.9486 31.1544 24.0854 31.7026 22.9271L31.6815 24.74H33.9796V14.9635H31.6815L31.7026 16.7548C31.1122 15.5462 30.044 14.7549 28.4276 14.7549C25.9257 14.7549 24.0142 16.8987 24.0142 19.8266C24.0142 22.7833 25.9679 24.9486 28.4065 24.9486ZM29.0182 22.8771C27.3807 22.8771 26.4038 21.647 26.4038 19.8269C26.4038 18.0572 27.3807 16.8486 29.0182 16.8486C30.6978 16.8486 31.7239 18.0788 31.7239 19.8485C31.7239 21.647 30.6978 22.8771 29.0182 22.8771Z" fill="white"/>
<path fill-rule="evenodd" clip-rule="evenodd" d="M35.188 24.7405H37.4861V19.9926C37.4861 17.8056 38.4208 16.9927 39.7842 16.9927C40.3042 16.9927 40.6697 17.1294 41.0351 17.3164L41.8082 15.2014C41.4006 14.9424 40.9227 14.7842 40.241 14.7842C39.1938 14.7842 38.1045 15.2734 37.465 16.8057L37.4861 14.964H35.188V24.7405H35.188Z" fill="white"/>
<path fill-rule="evenodd" clip-rule="evenodd" d="M44.2261 12.3955L48.8715 24.7474H50.8814L55.5198 12.3955H52.814L49.8694 21.3447L46.9318 12.3955H44.2261Z" fill="white"/>
<path fill-rule="evenodd" clip-rule="evenodd" d="M56.082 24.7478H58.5066V20.4818H59.8489L62.3789 24.7478H65.4431L62.4984 20.3235C63.3418 20.1005 63.9953 19.6473 64.4732 18.9639C64.9511 18.2805 65.183 17.4388 65.183 16.4388C65.183 15.2375 64.8527 14.2591 64.1851 13.5109C63.5245 12.7628 62.6249 12.3887 61.5005 12.3887H56.082V24.7478ZM58.5068 18.2589V14.626H61.072C61.571 14.626 61.9645 14.7986 62.2667 15.1367C62.5689 15.4749 62.7165 15.9137 62.7165 16.4388C62.7165 16.964 62.5689 17.4028 62.2667 17.7481C61.9645 18.0934 61.571 18.2661 61.072 18.2661H58.5068V18.2589Z" fill="white"/>
<path fill-rule="evenodd" clip-rule="evenodd" d="M129.067 22.2833V13.002H131.944C133.389 13.002 134.544 13.4321 135.411 14.2919C136.278 15.1518 136.712 16.2685 136.712 17.6426C136.712 19.0167 136.278 20.1335 135.411 20.9933C134.544 21.8536 133.389 22.2833 131.944 22.2833H129.067ZM176.097 15.9318H177.253V16.8132H177.305C177.489 16.5111 177.771 16.2538 178.152 16.042C178.533 15.8303 178.911 15.7246 179.288 15.7246C180.287 15.7246 180.965 16.1307 181.324 16.9429C181.849 16.1307 182.598 15.7246 183.57 15.7246C184.332 15.7246 184.905 15.9641 185.291 16.444C185.676 16.9234 185.868 17.574 185.868 18.3949V22.2835H184.66V18.5764C184.66 17.937 184.542 17.4833 184.306 17.2151C184.069 16.9475 183.71 16.8132 183.229 16.8132C182.756 16.8132 182.364 17.0121 182.053 17.4095C181.742 17.8073 181.587 18.2611 181.587 18.7707V22.2835H180.379V18.5764C180.379 17.937 180.26 17.4833 180.024 17.2151C179.787 16.9475 179.428 16.8132 178.947 16.8132C178.474 16.8132 178.082 17.0121 177.771 17.4095C177.46 17.8073 177.305 18.2611 177.305 18.7707V22.2835H176.097V15.9318ZM131.944 21.1423H130.276V14.1426H131.944C133.029 14.1426 133.89 14.4517 134.525 15.0696C135.159 15.6874 135.477 16.5452 135.477 17.6425C135.477 18.7489 135.159 19.6083 134.525 20.222C133.89 20.8357 133.029 21.1423 131.944 21.1423ZM140.297 22.4911C139.465 22.4911 138.748 22.167 138.143 21.5189C137.539 20.8708 137.237 20.0669 137.237 19.1076C137.237 18.1483 137.539 17.3449 138.143 16.6968C138.748 16.0487 139.465 15.7246 140.297 15.7246C140.787 15.7246 141.227 15.8282 141.617 16.0358C142.007 16.243 142.298 16.5024 142.491 16.8132H142.543V15.9318H143.699V22.2835H142.543V21.4021H142.491C142.298 21.7133 142.007 21.9723 141.617 22.1799C141.227 22.3871 140.787 22.4911 140.297 22.4911ZM141.945 20.779C141.546 21.1938 141.063 21.4014 140.494 21.4014C139.933 21.4014 139.452 21.1921 139.049 20.7728C138.646 20.3538 138.445 19.7986 138.445 19.1069C138.445 18.4158 138.646 17.8605 139.049 17.4415C139.452 17.0222 139.933 16.8125 140.494 16.8125C141.063 16.8125 141.546 17.0201 141.945 17.4349C142.343 17.8497 142.543 18.407 142.543 19.1069C142.543 19.8068 142.343 20.3642 141.945 20.779ZM150.64 15.9316L147.291 23.5534C146.827 24.6598 146.13 25.2126 145.203 25.2126C144.896 25.2126 144.598 25.1521 144.31 25.0311L144.611 23.9943C144.804 24.0805 145.001 24.124 145.203 24.124C145.43 24.124 145.616 24.0635 145.761 23.9425C145.905 23.8211 146.047 23.6139 146.188 23.3201L146.857 21.8813L144.204 15.9316H145.517L147.435 20.4944H147.461L149.327 15.9316H150.64ZM151.408 21.5184C152.013 22.1665 152.73 22.4905 153.562 22.4905C154.052 22.4905 154.492 22.3865 154.882 22.1793C155.272 21.9717 155.563 21.7127 155.756 21.4015H155.808V22.2829H156.964V13.002H155.756V15.9312L155.808 16.8126H155.756C155.563 16.5018 155.272 16.2424 154.882 16.0352C154.492 15.8276 154.052 15.724 153.562 15.724C152.73 15.724 152.013 16.0481 151.408 16.6962C150.804 17.3443 150.502 18.1478 150.502 19.1071C150.502 20.0664 150.804 20.8703 151.408 21.5184ZM153.759 21.4014C154.328 21.4014 154.812 21.1938 155.21 20.779C155.608 20.3642 155.808 19.8068 155.808 19.1069C155.808 18.407 155.608 17.8497 155.21 17.4349C154.812 17.0201 154.328 16.8125 153.759 16.8125C153.198 16.8125 152.717 17.0222 152.314 17.4415C151.911 17.8605 151.71 18.4158 151.71 19.1069C151.71 19.7986 151.911 20.3538 152.314 20.7728C152.717 21.1921 153.198 21.4014 153.759 21.4014ZM159.285 16.9685V15.9318H158.129V22.2834H159.338V18.8092C159.338 18.2308 159.524 17.7745 159.896 17.4418C160.268 17.1094 160.743 16.9429 161.321 16.9429C161.479 16.9429 161.641 16.9516 161.807 16.9685V15.8021C161.65 15.7851 161.505 15.7764 161.374 15.7764C160.918 15.7764 160.5 15.882 160.119 16.0938C159.738 16.3055 159.478 16.5973 159.338 16.9685H159.285ZM165.084 22.4911C164.112 22.4911 163.322 22.1716 162.714 21.5318C162.105 20.8924 161.801 20.0843 161.801 19.1081C161.801 18.1831 162.096 17.3884 162.687 16.7229C163.278 16.0574 164.033 15.7246 164.953 15.7246C165.907 15.7246 166.671 16.0317 167.245 16.645C167.818 17.2587 168.105 18.0796 168.105 19.1081L168.092 19.3281H163.009C163.044 19.9679 163.261 20.4734 163.659 20.8447C164.058 21.2164 164.524 21.4021 165.058 21.4021C165.925 21.4021 166.511 21.0391 166.818 20.3135L167.895 20.754C167.685 21.2467 167.339 21.6594 166.857 21.9922C166.376 22.3245 165.785 22.4911 165.084 22.4911ZM166.312 17.3058C166.623 17.6344 166.791 17.98 166.818 18.343H163.087C163.21 17.8764 163.435 17.5047 163.764 17.2283C164.092 16.9519 164.48 16.8135 164.926 16.8135C165.539 16.8135 166.001 16.9776 166.312 17.3058ZM171.638 22.4911C170.805 22.4911 170.088 22.167 169.484 21.5189C168.879 20.8708 168.577 20.0669 168.577 19.1076C168.577 18.1483 168.879 17.3449 169.484 16.6968C170.088 16.0487 170.805 15.7246 171.638 15.7246C172.128 15.7246 172.568 15.8282 172.958 16.0358C173.347 16.243 173.638 16.5024 173.831 16.8132H173.883V15.9318H175.039V22.2835H173.883V21.4021H173.831C173.638 21.7133 173.347 21.9723 172.958 22.1799C172.568 22.3871 172.128 22.4911 171.638 22.4911ZM173.286 20.779C172.887 21.1938 172.404 21.4014 171.835 21.4014C171.274 21.4014 170.792 21.1921 170.39 20.7728C169.987 20.3538 169.786 19.7986 169.786 19.1069C169.786 18.4158 169.987 17.8605 170.39 17.4415C170.792 17.0222 171.274 16.8125 171.835 16.8125C172.404 16.8125 172.887 17.0201 173.286 17.4349C173.684 17.8497 173.884 18.407 173.884 19.1069C173.884 19.8068 173.684 20.3642 173.286 20.779Z" fill="white"/>
<path fill-rule="evenodd" clip-rule="evenodd" d="M118.352 12.1904C117.862 9.25351 114.939 8.15818 113.104 8.80844C112.081 9.17126 111.24 10.1409 111.38 11.5594C112.423 11.9649 113.894 12.9947 114.77 14.6024C114.061 13.3269 112.955 12.2774 111.531 11.6513C111.478 11.6277 111.401 11.5973 111.348 11.5762L111.8 15.8581L111.799 15.8581L111.346 11.5781C108.556 10.528 106.078 12.4647 105.724 14.3797C105.526 15.447 105.974 16.6758 107.271 17.2638C105.003 19.1582 105.455 22.2637 106.929 23.522C107.755 24.2269 109.031 24.4127 110.19 23.582C110.015 22.4185 110.205 20.5954 111.223 19.005L111.254 19.0186C110.432 20.2912 110.031 21.8136 110.199 23.4003C110.205 23.4571 110.213 23.5134 110.222 23.5698L110.254 23.5472C110.744 26.4823 113.654 27.6823 115.487 27.0323C116.511 26.6695 117.339 25.6588 117.199 24.2402C116.114 23.8157 114.585 22.6922 113.755 21.0669L113.756 21.0661C114.461 22.4054 115.596 23.5097 117.072 24.1591C117.126 24.1823 117.179 24.2034 117.232 24.2245L116.802 19.9518C117.168 19.9689 117.536 19.9576 117.901 19.9173C117.548 19.9572 117.181 19.9712 116.805 19.9527L117.233 24.2228C120.024 25.2729 122.509 23.3345 122.863 21.4195C123.06 20.3545 122.607 19.1558 121.316 18.5663C123.585 16.672 123.14 13.566 121.665 12.3077C120.839 11.6028 119.576 11.3228 118.417 12.1535C118.472 12.7099 118.507 13.3898 118.394 14.1057C118.254 14.9844 117.945 15.9104 117.38 16.8047L117.349 16.7909C118.172 15.5187 118.572 13.9963 118.404 12.4096C118.401 12.3859 118.399 12.3498 118.396 12.3117V12.3117C118.392 12.2585 118.388 12.2014 118.383 12.1686L118.352 12.1904ZM107.307 17.2382C107.324 17.2246 107.343 17.2103 107.361 17.1963C107.343 17.2102 107.324 17.2241 107.307 17.238L107.307 17.2382ZM111.617 15.852C111.187 15.8432 110.756 15.8736 110.33 15.9442C110.748 15.8707 111.181 15.8353 111.617 15.852ZM107.641 16.9996C107.577 17.0423 107.513 17.0863 107.449 17.1316C107.51 17.0875 107.575 17.0434 107.641 16.9996Z" fill="white"/>
<path opacity="0.65" fill-rule="evenodd" clip-rule="evenodd" d="M111.8 15.8552L111.346 11.5713C108.556 10.5212 106.078 12.4578 105.724 14.3729C105.526 15.4406 105.974 16.6699 107.273 17.2577C108.198 16.5242 109.987 15.7246 111.8 15.8552Z" fill="url(#paint0_radial_18_2707)"/>
<path opacity="0.65" fill-rule="evenodd" clip-rule="evenodd" d="M111.236 18.977L107.304 17.2291C104.999 19.1208 105.448 22.2499 106.929 23.5142C107.755 24.2191 109.031 24.4049 110.19 23.5742C110.014 22.4058 110.207 20.5721 111.236 18.977Z" fill="url(#paint1_radial_18_2707)"/>
<path opacity="0.65" fill-rule="evenodd" clip-rule="evenodd" d="M113.737 21.0245L110.252 23.5311C110.738 26.4729 113.652 27.6762 115.487 27.0255C116.511 26.6626 117.339 25.6519 117.199 24.2334C116.106 23.8057 114.563 22.669 113.737 21.0245Z" fill="url(#paint2_radial_18_2707)"/>
<path opacity="0.65" fill-rule="evenodd" clip-rule="evenodd" d="M116.805 19.9449L117.233 24.215C120.024 25.2651 122.508 23.3267 122.863 21.4117C123.06 20.344 122.604 19.1417 121.305 18.5539C120.408 19.2811 118.733 20.0397 116.805 19.9449Z" fill="url(#paint3_radial_18_2707)"/>
<path opacity="0.65" fill-rule="evenodd" clip-rule="evenodd" d="M117.366 16.8184L121.283 18.585C123.588 16.6933 123.146 13.5641 121.665 12.2999C120.839 11.595 119.575 11.315 118.417 12.1457C118.472 12.7021 118.507 13.382 118.393 14.0979C118.252 14.9837 117.94 15.9174 117.366 16.8184Z" fill="url(#paint4_radial_18_2707)"/>
<path opacity="0.65" fill-rule="evenodd" clip-rule="evenodd" d="M114.863 14.7709L118.353 12.1892C117.867 9.24735 114.94 8.14989 113.104 8.80063C112.081 9.16345 111.24 10.133 111.38 11.5516C112.46 11.9717 114.001 13.062 114.863 14.7709Z" fill="url(#paint5_radial_18_2707)"/>
<defs>
<radialGradient id="paint0_radial_18_2707" cx="0" cy="0" r="1" gradientUnits="userSpaceOnUse" gradientTransform="translate(108.112 17.8164) rotate(-103.263) scale(4.06349 4.14748)">
<stop/>
<stop offset="1" stop-color="white" stop-opacity="0.01"/>
</radialGradient>
<radialGradient id="paint1_radial_18_2707" cx="0" cy="0" r="1" gradientUnits="userSpaceOnUse" gradientTransform="translate(111.079 23.1483) rotate(-163.308) scale(4.05323 4.15019)">
<stop/>
<stop offset="1" stop-color="white" stop-opacity="0.01"/>
</radialGradient>
<radialGradient id="paint2_radial_18_2707" cx="0" cy="0" r="1" gradientUnits="userSpaceOnUse" gradientTransform="translate(117.268 23.2408) rotate(136.703) scale(4.05033 4.14394)">
<stop/>
<stop offset="1" stop-color="white" stop-opacity="0.01"/>
</radialGradient>
<radialGradient id="paint3_radial_18_2707" cx="0" cy="0" r="1" gradientUnits="userSpaceOnUse" gradientTransform="translate(120.481 17.9976) rotate(76.7213) scale(4.04648 4.13478)">
<stop/>
<stop offset="1" stop-color="white" stop-opacity="0.01"/>
</radialGradient>
<radialGradient id="paint4_radial_18_2707" cx="0" cy="0" r="1" gradientUnits="userSpaceOnUse" gradientTransform="translate(117.487 12.6364) rotate(16.7888) scale(4.07275 4.14199)">
<stop/>
<stop offset="1" stop-color="white" stop-opacity="0.01"/>
</radialGradient>
<radialGradient id="paint5_radial_18_2707" cx="0" cy="0" r="1" gradientUnits="userSpaceOnUse" gradientTransform="translate(111.322 12.5738) rotate(-43.1517) scale(4.08087 4.13289)">
<stop/>
<stop offset="1" stop-color="white" stop-opacity="0.01"/>
</radialGradient>
</defs>
</svg>
