<svg width="38" height="12" viewBox="0 0 38 12" fill="none" xmlns="http://www.w3.org/2000/svg">
<path d="M15.782 0.231934H18.728L16.9015 10.9556H13.8965L15.782 0.231934Z" fill="white"/>
<path d="M27.3167 0.581834C26.7423 0.350985 25.829 0.120117 24.68 0.120117C21.815 0.120117 19.7527 1.56484 19.7527 3.65C19.7527 5.21387 21.1816 6.02559 22.3305 6.54688C23.4795 7.06817 23.8183 7.41818 23.8183 7.87989C23.8183 8.57246 22.905 8.92247 22.1022 8.92247C20.9533 8.92247 20.3272 8.75119 19.355 8.34161L18.9573 8.17032L18.5596 10.5459C19.2445 10.8364 20.504 11.1268 21.8223 11.1268C24.8568 11.1268 26.8601 9.68206 26.8601 7.47775C26.8601 6.26389 26.1162 5.33301 24.4002 4.58087C23.369 4.05958 22.7356 3.76914 22.7356 3.24785C22.7356 2.78614 23.2512 2.32443 24.4002 2.32443C25.3723 2.32443 26.0647 2.49571 26.5802 2.72656L26.8675 2.84572L27.3167 0.581834Z" fill="white"/>
<path fill-rule="evenodd" clip-rule="evenodd" d="M31.1017 1.00642C31.3963 0.291494 31.9266 0.231934 32.6337 0.231934H34.9316L37.4063 10.9556H34.5781L34.2246 9.16833H30.4536L29.8644 10.9556H26.6826L31.1017 1.00642ZM32.4569 4.22353C32.4569 4.22353 31.4553 6.84487 31.2785 7.38105L31.2785 7.44063H33.7532C33.6354 6.84487 33.0462 4.16395 33.0462 4.16395L32.8693 3.15116C32.6927 3.56819 32.4569 4.22353 32.4569 4.22353Z" fill="white"/>
<path d="M8.47582 7.7385L8.18113 6.18953C7.65085 4.40225 5.94214 2.43624 4.05664 1.48303L6.7081 11.0152H9.88984L14.6625 0.291504H11.4807L8.47582 7.7385Z" fill="white"/>
<path d="M0.286133 0.231934L0.816413 0.351086C4.5874 1.24473 7.17993 3.50861 8.18158 6.18953L7.12102 1.12557C6.94421 0.410663 6.41396 0.231934 5.76581 0.231934L0.286133 0.231934Z" fill="white"/>
</svg>
